G04 Layer_Physical_Order=1*
G04 Layer_Color=255*
%FSLAX44Y44*%
%MOMM*%
G71*
G01*
G75*
%ADD10R,0.8500X0.8500*%
G04:AMPARAMS|DCode=11|XSize=0.4mm|YSize=5mm|CornerRadius=0.1mm|HoleSize=0mm|Usage=FLASHONLY|Rotation=90.000|XOffset=0mm|YOffset=0mm|HoleType=Round|Shape=RoundedRectangle|*
%AMROUNDEDRECTD11*
21,1,0.4000,4.8000,0,0,90.0*
21,1,0.2000,5.0000,0,0,90.0*
1,1,0.2000,2.4000,0.1000*
1,1,0.2000,2.4000,-0.1000*
1,1,0.2000,-2.4000,-0.1000*
1,1,0.2000,-2.4000,0.1000*
%
%ADD11ROUNDEDRECTD11*%
%ADD12R,0.8500X0.8500*%
%ADD13R,0.7000X1.0000*%
%ADD14R,1.9000X1.7500*%
%ADD15R,1.9000X1.8000*%
%ADD16R,1.6000X2.1000*%
%ADD17R,1.4000X0.4000*%
G04:AMPARAMS|DCode=18|XSize=1.016mm|YSize=1.016mm|CornerRadius=0.0254mm|HoleSize=0mm|Usage=FLASHONLY|Rotation=270.000|XOffset=0mm|YOffset=0mm|HoleType=Round|Shape=RoundedRectangle|*
%AMROUNDEDRECTD18*
21,1,1.0160,0.9652,0,0,270.0*
21,1,0.9652,1.0160,0,0,270.0*
1,1,0.0508,-0.4826,-0.4826*
1,1,0.0508,-0.4826,0.4826*
1,1,0.0508,0.4826,0.4826*
1,1,0.0508,0.4826,-0.4826*
%
%ADD18ROUNDEDRECTD18*%
G04:AMPARAMS|DCode=19|XSize=1.016mm|YSize=1.016mm|CornerRadius=0.0254mm|HoleSize=0mm|Usage=FLASHONLY|Rotation=180.000|XOffset=0mm|YOffset=0mm|HoleType=Round|Shape=RoundedRectangle|*
%AMROUNDEDRECTD19*
21,1,1.0160,0.9652,0,0,180.0*
21,1,0.9652,1.0160,0,0,180.0*
1,1,0.0508,-0.4826,0.4826*
1,1,0.0508,0.4826,0.4826*
1,1,0.0508,0.4826,-0.4826*
1,1,0.0508,-0.4826,-0.4826*
%
%ADD19ROUNDEDRECTD19*%
%ADD20R,0.6000X1.0000*%
%ADD21O,0.3000X1.4000*%
%ADD22O,1.4000X0.3000*%
%ADD23R,1.1450X0.5500*%
%ADD24R,0.5500X1.1450*%
%ADD25R,1.6000X1.2000*%
%ADD26R,1.2000X1.6000*%
%ADD27C,0.6000*%
%ADD28C,0.3500*%
%ADD29C,0.3000*%
%ADD30C,0.8000*%
%ADD31C,1.0000*%
%ADD32C,0.7000*%
%ADD33C,0.2540*%
%ADD34C,0.5000*%
%ADD35C,0.4000*%
%ADD36C,2.0000*%
%ADD37R,2.0000X2.0000*%
%ADD38C,1.8000*%
%ADD39P,1.9483X8X292.5*%
%ADD40R,2.0000X2.0000*%
%ADD41C,0.4000*%
%ADD42C,0.6000*%
%ADD43C,2.8000*%
G36*
X110000Y745000D02*
X141000D01*
X149000Y737000D01*
X149000Y694000D01*
X147000Y692000D01*
X137000D01*
X137000Y704000D01*
X134000Y707000D01*
X103000Y707000D01*
X98000Y702000D01*
X98000Y674000D01*
X97000Y673000D01*
X92000Y668000D01*
X49000D01*
Y731000D01*
X80000D01*
Y752000D01*
X110000D01*
X110000Y745000D01*
D02*
G37*
G36*
X379887Y691105D02*
X379361Y689835D01*
X374174D01*
X365904Y698104D01*
X364985Y698719D01*
X363900Y698934D01*
X327453D01*
X326479Y701284D01*
X324832Y703432D01*
X322684Y705080D01*
X320184Y706115D01*
X320000Y706140D01*
Y711460D01*
X320184Y711485D01*
X322684Y712521D01*
X324832Y714168D01*
X326479Y716316D01*
X327453Y718666D01*
X352326D01*
X379887Y691105D01*
D02*
G37*
G36*
X390496Y724496D02*
X391415Y723881D01*
X392500Y723666D01*
X441326D01*
X448520Y716471D01*
X448489Y715671D01*
X447302Y714774D01*
X447000Y714835D01*
X445915Y714619D01*
X444996Y714004D01*
X444381Y713085D01*
X444233Y712337D01*
X444000Y712383D01*
X393230D01*
X354907Y750707D01*
X353160Y751874D01*
X351100Y752283D01*
X326327D01*
X324832Y754232D01*
X322684Y755880D01*
X320184Y756915D01*
X320000Y756940D01*
Y761915D01*
X322000D01*
X322980Y762320D01*
X327480Y766820D01*
X327885Y767800D01*
Y769466D01*
X345526D01*
X390496Y724496D01*
D02*
G37*
G36*
X218000Y743000D02*
Y739000D01*
X223000Y734000D01*
X238000D01*
X240000Y732000D01*
Y713000D01*
X237000Y710000D01*
X222000D01*
X220000Y712000D01*
Y724000D01*
X214000Y730000D01*
X211000D01*
X210000Y729000D01*
Y720000D01*
X203000Y713000D01*
X181000D01*
X179000Y711000D01*
X179000Y692000D01*
X129000Y642000D01*
X95540Y642000D01*
X91770Y645770D01*
X83770D01*
X80000Y642000D01*
X49000Y642000D01*
Y665000D01*
X94000D01*
X100000Y671000D01*
Y701000D01*
X102000Y703000D01*
X108000D01*
X110000Y701000D01*
Y677000D01*
X112000Y675000D01*
X123000D01*
X125000Y677000D01*
X125000Y701000D01*
X127000Y703000D01*
X133000Y703000D01*
X135000Y701000D01*
Y687000D01*
X142000D01*
X143000Y686000D01*
X153000Y696000D01*
Y726000D01*
X160000Y733000D01*
X195000D01*
X208000Y746000D01*
X215000D01*
X218000Y743000D01*
D02*
G37*
G36*
X424103Y678458D02*
X424344Y677896D01*
X424165Y677000D01*
X424344Y676105D01*
X424103Y675542D01*
X423576Y674835D01*
X382000D01*
X380915Y674619D01*
X379996Y674004D01*
X354126Y648135D01*
X327453D01*
X326479Y650484D01*
X324832Y652632D01*
X322684Y654280D01*
X320184Y655315D01*
X320000Y655340D01*
Y660660D01*
X320184Y660685D01*
X322684Y661721D01*
X324832Y663368D01*
X326479Y665516D01*
X327453Y667866D01*
X362700D01*
X363785Y668081D01*
X364704Y668696D01*
X375174Y679166D01*
X423576D01*
X424103Y678458D01*
D02*
G37*
G36*
X306000Y632000D02*
X357000D01*
X359000Y630000D01*
X379000D01*
Y626000D01*
X397000D01*
Y625500D01*
X413000D01*
X413000Y614000D01*
X381039D01*
X375038Y608000D01*
X331000D01*
Y608000D01*
X331000Y608000D01*
X313000Y608000D01*
X313000Y608000D01*
X313000Y608000D01*
X294000D01*
X283000Y619000D01*
Y634000D01*
X304000D01*
X306000Y632000D01*
D02*
G37*
G36*
X370996Y684996D02*
X371121Y684912D01*
X371299Y683308D01*
X361526Y673534D01*
X327453D01*
X326479Y675884D01*
X324832Y678032D01*
X322684Y679680D01*
X320184Y680715D01*
X320000Y680740D01*
Y686060D01*
X320184Y686085D01*
X322684Y687121D01*
X324832Y688768D01*
X326479Y690916D01*
X327453Y693266D01*
X362726D01*
X370996Y684996D01*
D02*
G37*
G36*
X339248Y524014D02*
X339434Y523990D01*
X339582Y523876D01*
X342253Y523159D01*
X342439Y523183D01*
X342612Y523111D01*
X343994Y523111D01*
X343995Y523111D01*
X343996Y523111D01*
X376111D01*
Y520004D01*
X376111Y520004D01*
Y518617D01*
X376182Y518444D01*
X376158Y518259D01*
X376874Y515587D01*
X376988Y515438D01*
X377012Y515253D01*
X377597Y514240D01*
X377322Y513428D01*
X376572Y512678D01*
X376096Y511530D01*
Y511255D01*
X375991Y511000D01*
X376096Y510745D01*
Y510470D01*
X376572Y509322D01*
X376894Y509000D01*
X376572Y508678D01*
X376096Y507530D01*
Y507255D01*
X375991Y507000D01*
X376096Y506745D01*
Y506470D01*
X376572Y505322D01*
X376894Y505000D01*
X376572Y504678D01*
X376096Y503530D01*
Y503255D01*
X375991Y503000D01*
X376096Y502745D01*
Y502470D01*
X376572Y501322D01*
X376894Y501000D01*
X376572Y500678D01*
X376096Y499530D01*
Y499255D01*
X375991Y499000D01*
X376096Y498745D01*
Y498470D01*
X376572Y497322D01*
X377322Y496572D01*
X377390Y495169D01*
X376523Y493075D01*
X376118Y490000D01*
X376185D01*
Y455000D01*
X376118D01*
X376523Y451925D01*
X377390Y449831D01*
X377322Y448428D01*
X376572Y447678D01*
X376096Y446530D01*
Y446255D01*
X375991Y446000D01*
X376096Y445745D01*
Y445470D01*
X376572Y444322D01*
X376894Y444000D01*
X376572Y443678D01*
X376096Y442530D01*
Y442255D01*
X375991Y442000D01*
X376096Y441745D01*
Y441470D01*
X376572Y440322D01*
X376894Y440000D01*
X376572Y439678D01*
X376096Y438530D01*
Y438255D01*
X375991Y438000D01*
X376096Y437745D01*
Y437470D01*
X376572Y436322D01*
X376894Y436000D01*
X376572Y435678D01*
X376096Y434530D01*
Y434255D01*
X375991Y434000D01*
X376096Y433745D01*
Y433470D01*
X376572Y432322D01*
X377322Y431572D01*
X377390Y430169D01*
X376523Y428075D01*
X376118Y425000D01*
X376185D01*
Y411815D01*
X343000D01*
Y411882D01*
X339925Y411477D01*
X337831Y410610D01*
X336428Y410678D01*
X335678Y411428D01*
X334530Y411904D01*
X334255D01*
X334000Y412009D01*
X333745Y411904D01*
X333470D01*
X332322Y411428D01*
X332000Y411106D01*
X331678Y411428D01*
X330530Y411904D01*
X330255D01*
X330000Y412009D01*
X329745Y411904D01*
X329470D01*
X328322Y411428D01*
X328000Y411106D01*
X327678Y411428D01*
X326530Y411904D01*
X326255D01*
X326000Y412009D01*
X325745Y411904D01*
X325470D01*
X324322Y411428D01*
X324000Y411106D01*
X323678Y411428D01*
X322530Y411904D01*
X322255D01*
X322000Y412009D01*
X321745Y411904D01*
X321470D01*
X320322Y411428D01*
X319572Y410678D01*
X318169Y410610D01*
X316075Y411477D01*
X313000Y411882D01*
Y411815D01*
X278000D01*
Y411882D01*
X274925Y411477D01*
X272831Y410610D01*
X271428Y410678D01*
X270678Y411428D01*
X269530Y411904D01*
X269255D01*
X269000Y412009D01*
X268745Y411904D01*
X268470D01*
X267322Y411428D01*
X267000Y411106D01*
X266678Y411428D01*
X265530Y411904D01*
X265255D01*
X265000Y412009D01*
X264745Y411904D01*
X264470D01*
X263322Y411428D01*
X263000Y411106D01*
X262678Y411428D01*
X261530Y411904D01*
X261255D01*
X261000Y412009D01*
X260745Y411904D01*
X260470D01*
X259322Y411428D01*
X259000Y411106D01*
X258678Y411428D01*
X257530Y411904D01*
X257255D01*
X257000Y412009D01*
X256745Y411904D01*
X256470D01*
X255322Y411428D01*
X254572Y410678D01*
X253169Y410610D01*
X251075Y411477D01*
X248000Y411882D01*
Y411815D01*
X213000D01*
Y411882D01*
X209925Y411477D01*
X207831Y410610D01*
X206428Y410678D01*
X205678Y411428D01*
X204530Y411904D01*
X204255D01*
X204000Y412009D01*
X203745Y411904D01*
X203470D01*
X202322Y411428D01*
X202000Y411106D01*
X201678Y411428D01*
X200530Y411904D01*
X200255D01*
X200000Y412009D01*
X199745Y411904D01*
X199470D01*
X198322Y411428D01*
X198000Y411106D01*
X197678Y411428D01*
X196530Y411904D01*
X196255D01*
X196000Y412009D01*
X195745Y411904D01*
X195470D01*
X194322Y411428D01*
X194000Y411106D01*
X193678Y411428D01*
X192530Y411904D01*
X192255D01*
X192000Y412009D01*
X191745Y411904D01*
X191470D01*
X190322Y411428D01*
X189572Y410678D01*
X188169Y410610D01*
X186075Y411477D01*
X183000Y411882D01*
Y411815D01*
X155000D01*
X154305Y411677D01*
X153717Y411283D01*
X153323Y410695D01*
X153185Y410000D01*
Y390000D01*
Y355000D01*
X153118D01*
X153523Y351925D01*
X154390Y349831D01*
X154322Y348428D01*
X153572Y347678D01*
X153096Y346530D01*
Y346255D01*
X152991Y346000D01*
X153096Y345745D01*
Y345470D01*
X153572Y344322D01*
X153894Y344000D01*
X153572Y343678D01*
X153096Y342530D01*
Y342255D01*
X152991Y342000D01*
X153096Y341745D01*
Y341470D01*
X153572Y340322D01*
X153894Y340000D01*
X153572Y339678D01*
X153096Y338530D01*
Y338255D01*
X152991Y338000D01*
X153096Y337745D01*
Y337470D01*
X153572Y336322D01*
X153894Y336000D01*
X153572Y335678D01*
X153096Y334530D01*
Y334255D01*
X152991Y334000D01*
X153096Y333745D01*
Y333470D01*
X153572Y332322D01*
X154322Y331572D01*
X154390Y330169D01*
X153523Y328075D01*
X153118Y325000D01*
X153185D01*
Y290000D01*
X153118D01*
X153523Y286925D01*
X154390Y284831D01*
X154322Y283428D01*
X153572Y282678D01*
X153096Y281530D01*
Y281255D01*
X152991Y281000D01*
X153096Y280745D01*
Y280470D01*
X153572Y279322D01*
X153894Y279000D01*
X153572Y278678D01*
X153096Y277530D01*
Y277255D01*
X152991Y277000D01*
X153096Y276745D01*
Y276470D01*
X153572Y275322D01*
X153894Y275000D01*
X153572Y274678D01*
X153096Y273530D01*
Y273255D01*
X152991Y273000D01*
X153096Y272745D01*
Y272470D01*
X153572Y271322D01*
X153894Y271000D01*
X153572Y270678D01*
X153096Y269530D01*
Y269255D01*
X152991Y269000D01*
X153096Y268745D01*
Y268470D01*
X153572Y267322D01*
X154322Y266572D01*
X154390Y265169D01*
X153523Y263075D01*
X153118Y260000D01*
X153185D01*
Y225000D01*
X153118D01*
X153523Y221925D01*
X154390Y219831D01*
X154322Y218428D01*
X153572Y217678D01*
X153096Y216530D01*
Y216255D01*
X152991Y216000D01*
X153096Y215745D01*
Y215470D01*
X153572Y214322D01*
X153894Y214000D01*
X153572Y213678D01*
X153096Y212530D01*
Y212255D01*
X152991Y212000D01*
X153096Y211745D01*
Y211470D01*
X153572Y210322D01*
X153894Y210000D01*
X153572Y209678D01*
X153096Y208530D01*
Y208255D01*
X152991Y208000D01*
X153096Y207745D01*
Y207470D01*
X153572Y206322D01*
X153894Y206000D01*
X153572Y205678D01*
X153096Y204530D01*
Y204255D01*
X152991Y204000D01*
X153096Y203745D01*
Y203470D01*
X153572Y202322D01*
X154322Y201572D01*
X154390Y200169D01*
X153523Y198075D01*
X153118Y195000D01*
X153185D01*
Y160000D01*
X153118D01*
X153523Y156925D01*
X154390Y154831D01*
X154322Y153428D01*
X153572Y152678D01*
X153096Y151530D01*
Y151255D01*
X152991Y151000D01*
X153096Y150745D01*
Y150470D01*
X153572Y149322D01*
X153894Y149000D01*
X153572Y148678D01*
X153096Y147530D01*
Y147255D01*
X152991Y147000D01*
X153096Y146745D01*
Y146470D01*
X153572Y145322D01*
X153894Y145000D01*
X153572Y144678D01*
X153096Y143530D01*
Y143255D01*
X152991Y143000D01*
X153096Y142745D01*
Y142470D01*
X153572Y141322D01*
X153894Y141000D01*
X153572Y140678D01*
X153096Y139530D01*
Y139255D01*
X152991Y139000D01*
X153096Y138745D01*
Y138470D01*
X153572Y137322D01*
X154322Y136572D01*
X154390Y135169D01*
X153523Y133075D01*
X153118Y130000D01*
X153185D01*
Y95000D01*
X153118D01*
X153523Y91925D01*
X154390Y89831D01*
X154322Y88428D01*
X153572Y87678D01*
X153096Y86530D01*
Y86255D01*
X152991Y86000D01*
X153096Y85745D01*
Y85470D01*
X153572Y84322D01*
X153894Y84000D01*
X153572Y83678D01*
X153096Y82530D01*
Y82255D01*
X152991Y82000D01*
X153096Y81745D01*
Y81470D01*
X153572Y80322D01*
X153894Y80000D01*
X153572Y79678D01*
X153096Y78530D01*
Y78255D01*
X152991Y78000D01*
X153096Y77745D01*
Y77470D01*
X153572Y76322D01*
X153894Y76000D01*
X153572Y75678D01*
X153096Y74530D01*
Y74255D01*
X152991Y74000D01*
X153096Y73745D01*
Y73470D01*
X153572Y72322D01*
X154322Y71572D01*
X154390Y70169D01*
X153523Y68075D01*
X153118Y65000D01*
X153185D01*
Y30000D01*
X153118D01*
X153523Y26925D01*
X154390Y24831D01*
X154322Y23428D01*
X153572Y22678D01*
X153096Y21530D01*
Y21255D01*
X152991Y21000D01*
X153096Y20745D01*
Y20470D01*
X153572Y19322D01*
X153894Y19000D01*
X153572Y18678D01*
X153096Y17530D01*
Y17255D01*
X152991Y17000D01*
X153096Y16745D01*
Y16470D01*
X153572Y15322D01*
X153894Y15000D01*
X153572Y14678D01*
X153096Y13530D01*
Y13255D01*
X152991Y13000D01*
X153096Y12745D01*
Y12470D01*
X153572Y11322D01*
X153894Y11000D01*
X153572Y10678D01*
X153096Y9530D01*
Y9255D01*
X152991Y9000D01*
X153096Y8745D01*
Y8470D01*
X153572Y7322D01*
X154322Y6572D01*
X154390Y5169D01*
X153523Y3075D01*
X153357Y1815D01*
X1815D01*
Y523357D01*
X3075Y523523D01*
X5169Y524390D01*
X6572Y524322D01*
X7322Y523572D01*
X8470Y523096D01*
X8745D01*
X9000Y522991D01*
X9255Y523096D01*
X9530D01*
X10678Y523572D01*
X11000Y523894D01*
X11322Y523572D01*
X12470Y523096D01*
X12745D01*
X13000Y522991D01*
X13255Y523096D01*
X13530D01*
X14678Y523572D01*
X15000Y523894D01*
X15322Y523572D01*
X16470Y523096D01*
X16745D01*
X17000Y522991D01*
X17255Y523096D01*
X17530D01*
X18678Y523572D01*
X19000Y523894D01*
X19322Y523572D01*
X20470Y523096D01*
X20745D01*
X21000Y522991D01*
X21255Y523096D01*
X21530D01*
X22678Y523572D01*
X23428Y524322D01*
X24831Y524390D01*
X26925Y523523D01*
X30000Y523118D01*
Y523185D01*
X65000D01*
Y523118D01*
X68075Y523523D01*
X70169Y524390D01*
X71572Y524322D01*
X72322Y523572D01*
X73470Y523096D01*
X73745D01*
X74000Y522991D01*
X74255Y523096D01*
X74530D01*
X75678Y523572D01*
X76000Y523894D01*
X76322Y523572D01*
X77470Y523096D01*
X77745D01*
X78000Y522991D01*
X78255Y523096D01*
X78530D01*
X79678Y523572D01*
X80000Y523894D01*
X80322Y523572D01*
X81470Y523096D01*
X81745D01*
X82000Y522991D01*
X82255Y523096D01*
X82530D01*
X83678Y523572D01*
X84000Y523894D01*
X84322Y523572D01*
X85470Y523096D01*
X85745D01*
X86000Y522991D01*
X86255Y523096D01*
X86530D01*
X87678Y523572D01*
X88428Y524322D01*
X89831Y524390D01*
X91925Y523523D01*
X95000Y523118D01*
Y523185D01*
X130000D01*
Y523118D01*
X133075Y523523D01*
X135169Y524390D01*
X136572Y524322D01*
X137322Y523572D01*
X138470Y523096D01*
X138745D01*
X139000Y522991D01*
X139255Y523096D01*
X139530D01*
X140678Y523572D01*
X141000Y523894D01*
X141322Y523572D01*
X142470Y523096D01*
X142745D01*
X143000Y522991D01*
X143255Y523096D01*
X143530D01*
X144678Y523572D01*
X145000Y523894D01*
X145322Y523572D01*
X146470Y523096D01*
X146745D01*
X147000Y522991D01*
X147255Y523096D01*
X147530D01*
X148678Y523572D01*
X149000Y523894D01*
X149322Y523572D01*
X150470Y523096D01*
X150745D01*
X151000Y522991D01*
X151255Y523096D01*
X151530D01*
X152678Y523572D01*
X153428Y524322D01*
X154782Y524343D01*
X155245Y524219D01*
X156925Y523523D01*
X160000Y523118D01*
Y523185D01*
X160000Y523185D01*
X184000D01*
Y523118D01*
X187075Y523523D01*
X189169Y524390D01*
X190572Y524322D01*
X191322Y523572D01*
X192470Y523096D01*
X192745D01*
X193000Y522991D01*
X193255Y523096D01*
X193530D01*
X194678Y523572D01*
X195000Y523894D01*
X195322Y523572D01*
X196470Y523096D01*
X196745D01*
X197000Y522991D01*
X197255Y523096D01*
X197530D01*
X198678Y523572D01*
X199000Y523894D01*
X199322Y523572D01*
X200470Y523096D01*
X200745D01*
X201000Y522991D01*
X201255Y523096D01*
X201530D01*
X202678Y523572D01*
X203000Y523894D01*
X203322Y523572D01*
X204470Y523096D01*
X204745D01*
X205000Y522991D01*
X205255Y523096D01*
X205530D01*
X206678Y523572D01*
X207428Y524322D01*
X208831Y524390D01*
X210925Y523523D01*
X214000Y523118D01*
Y523185D01*
X249000D01*
Y523118D01*
X252075Y523523D01*
X254169Y524390D01*
X255572Y524322D01*
X256322Y523572D01*
X257470Y523096D01*
X257745D01*
X258000Y522991D01*
X258255Y523096D01*
X258530D01*
X259678Y523572D01*
X260000Y523894D01*
X260322Y523572D01*
X261470Y523096D01*
X261745D01*
X262000Y522991D01*
X262255Y523096D01*
X262530D01*
X263678Y523572D01*
X264000Y523894D01*
X264322Y523572D01*
X265470Y523096D01*
X265745D01*
X266000Y522991D01*
X266255Y523096D01*
X266530D01*
X267678Y523572D01*
X268000Y523894D01*
X268322Y523572D01*
X269470Y523096D01*
X269745D01*
X270000Y522991D01*
X270255Y523096D01*
X270530D01*
X271678Y523572D01*
X272428Y524322D01*
X273831Y524390D01*
X275925Y523523D01*
X279000Y523118D01*
Y523185D01*
X314000D01*
Y523118D01*
X317075Y523523D01*
X319169Y524390D01*
X320572Y524322D01*
X321322Y523572D01*
X322470Y523096D01*
X322745D01*
X323000Y522991D01*
X323255Y523096D01*
X323530D01*
X324678Y523572D01*
X325000Y523894D01*
X325322Y523572D01*
X326470Y523096D01*
X326745D01*
X327000Y522991D01*
X327255Y523096D01*
X327530D01*
X328678Y523572D01*
X329000Y523894D01*
X329322Y523572D01*
X330470Y523096D01*
X330745D01*
X331000Y522991D01*
X331255Y523096D01*
X331530D01*
X332678Y523572D01*
X333000Y523894D01*
X333322Y523572D01*
X334470Y523096D01*
X334745D01*
X335000Y522991D01*
X335255Y523096D01*
X335530D01*
X336678Y523572D01*
X337428Y524322D01*
X338240Y524597D01*
X339248Y524014D01*
D02*
G37*
G36*
X706514Y819013D02*
X707682Y814149D01*
X709596Y809528D01*
X712210Y805262D01*
X715459Y801459D01*
X719262Y798210D01*
X723528Y795596D01*
X728149Y793682D01*
X733013Y792514D01*
X736185Y792265D01*
Y411643D01*
X734925Y411477D01*
X732831Y410610D01*
X731428Y410678D01*
X730678Y411428D01*
X729530Y411904D01*
X729255D01*
X729000Y412009D01*
X728745Y411904D01*
X728470D01*
X727322Y411428D01*
X727000Y411106D01*
X726678Y411428D01*
X725530Y411904D01*
X725255D01*
X725000Y412009D01*
X724745Y411904D01*
X724470D01*
X723322Y411428D01*
X723000Y411106D01*
X722678Y411428D01*
X721530Y411904D01*
X721255D01*
X721000Y412009D01*
X720745Y411904D01*
X720470D01*
X719322Y411428D01*
X719000Y411106D01*
X718678Y411428D01*
X717530Y411904D01*
X717255D01*
X717000Y412009D01*
X716745Y411904D01*
X716470D01*
X715322Y411428D01*
X714572Y410678D01*
X713169Y410610D01*
X711075Y411477D01*
X708000Y411882D01*
Y411815D01*
X673000D01*
Y411882D01*
X669925Y411477D01*
X667831Y410610D01*
X666428Y410678D01*
X665678Y411428D01*
X664530Y411904D01*
X664255D01*
X664000Y412009D01*
X663745Y411904D01*
X663470D01*
X662322Y411428D01*
X662000Y411106D01*
X661678Y411428D01*
X660530Y411904D01*
X660255D01*
X660000Y412009D01*
X659745Y411904D01*
X659470D01*
X658322Y411428D01*
X658000Y411106D01*
X657678Y411428D01*
X656530Y411904D01*
X656255D01*
X656000Y412009D01*
X655745Y411904D01*
X655470D01*
X654322Y411428D01*
X654000Y411106D01*
X653678Y411428D01*
X652530Y411904D01*
X652255D01*
X652000Y412009D01*
X651745Y411904D01*
X651470D01*
X650322Y411428D01*
X649572Y410678D01*
X648169Y410610D01*
X646075Y411477D01*
X643000Y411882D01*
Y411815D01*
X608000D01*
Y411882D01*
X604925Y411477D01*
X602831Y410610D01*
X601428Y410678D01*
X600678Y411428D01*
X599530Y411904D01*
X599255D01*
X599000Y412009D01*
X598745Y411904D01*
X598470D01*
X597322Y411428D01*
X597000Y411106D01*
X596678Y411428D01*
X595530Y411904D01*
X595255D01*
X595000Y412009D01*
X594745Y411904D01*
X594470D01*
X593322Y411428D01*
X593000Y411106D01*
X592678Y411428D01*
X591530Y411904D01*
X591255D01*
X591000Y412009D01*
X590745Y411904D01*
X590470D01*
X589322Y411428D01*
X589000Y411106D01*
X588678Y411428D01*
X587530Y411904D01*
X587255D01*
X587000Y412009D01*
X586745Y411904D01*
X586470D01*
X585322Y411428D01*
X584572Y410678D01*
X583169Y410610D01*
X581075Y411477D01*
X578000Y411882D01*
Y411815D01*
X543000D01*
Y411882D01*
X539925Y411477D01*
X537831Y410610D01*
X536428Y410678D01*
X535678Y411428D01*
X534530Y411904D01*
X534255D01*
X534000Y412009D01*
X533745Y411904D01*
X533470D01*
X532322Y411428D01*
X532000Y411106D01*
X531678Y411428D01*
X530530Y411904D01*
X530255D01*
X530000Y412009D01*
X529745Y411904D01*
X529470D01*
X528322Y411428D01*
X528000Y411106D01*
X527678Y411428D01*
X526530Y411904D01*
X526255D01*
X526000Y412009D01*
X525745Y411904D01*
X525470D01*
X524322Y411428D01*
X524000Y411106D01*
X523678Y411428D01*
X522530Y411904D01*
X522255D01*
X522000Y412009D01*
X521745Y411904D01*
X521470D01*
X520322Y411428D01*
X519572Y410678D01*
X518169Y410610D01*
X516075Y411477D01*
X513000Y411882D01*
Y411815D01*
X478000D01*
Y411882D01*
X474925Y411477D01*
X472831Y410610D01*
X471428Y410678D01*
X470678Y411428D01*
X469530Y411904D01*
X469255D01*
X469000Y412009D01*
X468745Y411904D01*
X468470D01*
X467322Y411428D01*
X467000Y411106D01*
X466678Y411428D01*
X465530Y411904D01*
X465255D01*
X465000Y412009D01*
X464745Y411904D01*
X464470D01*
X463322Y411428D01*
X463000Y411106D01*
X462678Y411428D01*
X461530Y411904D01*
X461255D01*
X461000Y412009D01*
X460745Y411904D01*
X460470D01*
X459322Y411428D01*
X459000Y411106D01*
X458678Y411428D01*
X457530Y411904D01*
X457255D01*
X457000Y412009D01*
X456745Y411904D01*
X456470D01*
X455322Y411428D01*
X454572Y410678D01*
X453169Y410610D01*
X451075Y411477D01*
X448000Y411882D01*
Y411815D01*
X399815D01*
Y425000D01*
X399882D01*
X399477Y428075D01*
X398610Y430169D01*
X398678Y431572D01*
X399428Y432322D01*
X399904Y433470D01*
Y433745D01*
X400009Y434000D01*
X399904Y434255D01*
Y434530D01*
X399428Y435678D01*
X399106Y436000D01*
X399428Y436322D01*
X399904Y437470D01*
Y437745D01*
X400009Y438000D01*
X399904Y438255D01*
Y438530D01*
X399428Y439678D01*
X399106Y440000D01*
X399428Y440322D01*
X399904Y441470D01*
Y441745D01*
X400009Y442000D01*
X399904Y442255D01*
Y442530D01*
X399428Y443678D01*
X399106Y444000D01*
X399428Y444322D01*
X399904Y445470D01*
Y445745D01*
X400009Y446000D01*
X399904Y446255D01*
Y446530D01*
X399428Y447678D01*
X398678Y448428D01*
X398610Y449831D01*
X399477Y451925D01*
X399882Y455000D01*
X399815D01*
Y490000D01*
X399882D01*
X399477Y493075D01*
X398610Y495169D01*
X398678Y496572D01*
X399428Y497322D01*
X399904Y498470D01*
Y498745D01*
X400009Y499000D01*
X399904Y499255D01*
Y499530D01*
X399428Y500678D01*
X399106Y501000D01*
X399428Y501322D01*
X399904Y502470D01*
Y502745D01*
X400009Y503000D01*
X399904Y503255D01*
Y503530D01*
X399428Y504678D01*
X399106Y505000D01*
X399428Y505322D01*
X399904Y506470D01*
Y506745D01*
X400009Y507000D01*
X399904Y507255D01*
Y507530D01*
X399428Y508678D01*
X399106Y509000D01*
X399428Y509322D01*
X399904Y510470D01*
Y510745D01*
X400009Y511000D01*
X399904Y511255D01*
Y511530D01*
X399428Y512678D01*
X398678Y513428D01*
X398403Y514240D01*
X398988Y515253D01*
X399012Y515439D01*
X399126Y515587D01*
X399842Y518259D01*
X399818Y518444D01*
X399889Y518617D01*
Y520001D01*
X399889Y520001D01*
X399889Y520002D01*
Y545100D01*
X399784Y545355D01*
X399784Y545630D01*
X399707Y545816D01*
X399512Y546010D01*
X399407Y546265D01*
X399265Y546407D01*
X399010Y546512D01*
X398816Y546707D01*
X398630Y546784D01*
X398355Y546784D01*
X398100Y546889D01*
X344000Y546889D01*
X342617D01*
X342444Y546818D01*
X342259Y546842D01*
X339588Y546127D01*
X339439Y546012D01*
X339254Y545988D01*
X338240Y545403D01*
X337428Y545678D01*
X336678Y546428D01*
X335530Y546904D01*
X335255D01*
X335000Y547009D01*
X334745Y546904D01*
X334470D01*
X333322Y546428D01*
X333000Y546106D01*
X332678Y546428D01*
X331530Y546904D01*
X331255D01*
X331000Y547009D01*
X330745Y546904D01*
X330470D01*
X329322Y546428D01*
X329000Y546106D01*
X328678Y546428D01*
X327530Y546904D01*
X327255D01*
X327000Y547009D01*
X326745Y546904D01*
X326470D01*
X325322Y546428D01*
X325000Y546106D01*
X324678Y546428D01*
X323530Y546904D01*
X323255D01*
X323000Y547009D01*
X322745Y546904D01*
X322470D01*
X321322Y546428D01*
X321270Y546376D01*
X320000Y546902D01*
Y581000D01*
X393270D01*
X394000Y581730D01*
Y583000D01*
Y598000D01*
X383000D01*
X379000Y594000D01*
Y583000D01*
X315000D01*
Y581000D01*
X314348Y580000D01*
X275000D01*
X242000Y613000D01*
X242000Y744000D01*
X243615Y745614D01*
X244173D01*
X244428Y745720D01*
X244703D01*
X244776Y745750D01*
X247135D01*
X247739Y746000D01*
X271000D01*
X303000Y714000D01*
Y635386D01*
X283000D01*
X282020Y634980D01*
X281614Y634000D01*
Y619000D01*
X282020Y618020D01*
X293020Y607020D01*
X294000Y606614D01*
X311385D01*
X312000Y606000D01*
X320000D01*
Y606614D01*
X331000Y606614D01*
X331842Y605798D01*
X332000Y605386D01*
X376426D01*
X377771Y606730D01*
X379000Y607959D01*
X379000Y607959D01*
X379000Y607959D01*
X379000Y607959D01*
X379000Y608000D01*
X378657D01*
X378171Y609173D01*
X381612Y612615D01*
X396000D01*
X396000Y612615D01*
X396000Y612615D01*
X413000D01*
X413980Y613020D01*
X414385Y614000D01*
X414385Y625500D01*
X413980Y626480D01*
X413897Y627889D01*
X425174Y639166D01*
X438000D01*
X439085Y639381D01*
X440004Y639996D01*
X440619Y640915D01*
X440834Y642000D01*
X440619Y643085D01*
X440004Y644004D01*
Y644996D01*
X440619Y645915D01*
X440834Y647000D01*
X440619Y648085D01*
X440004Y649004D01*
Y649996D01*
X440619Y650915D01*
X440834Y652000D01*
X440619Y653085D01*
X440004Y654004D01*
Y654996D01*
X440619Y655915D01*
X440834Y657000D01*
X440619Y658085D01*
X440004Y659004D01*
Y659996D01*
X440619Y660915D01*
X440834Y662000D01*
X440619Y663085D01*
X440004Y664004D01*
Y664996D01*
X440619Y665915D01*
X440834Y667000D01*
X440619Y668085D01*
X440004Y669004D01*
Y669996D01*
X440619Y670915D01*
X440834Y672000D01*
X440619Y673085D01*
X440004Y674004D01*
Y674996D01*
X440619Y675915D01*
X440834Y677000D01*
X440619Y678085D01*
X440004Y679004D01*
Y679996D01*
X440619Y680915D01*
X440834Y682000D01*
X440619Y683085D01*
X440004Y684004D01*
Y684996D01*
X440619Y685915D01*
X440834Y687000D01*
X440619Y688085D01*
X440004Y689004D01*
Y689996D01*
X440619Y690915D01*
X440834Y692000D01*
X440619Y693085D01*
X440004Y694004D01*
X439085Y694619D01*
X438000Y694835D01*
X384174D01*
X355504Y723504D01*
X354585Y724119D01*
X353500Y724334D01*
X327453D01*
X326479Y726684D01*
X324832Y728832D01*
X322684Y730480D01*
X320184Y731515D01*
X320000Y731540D01*
Y736861D01*
X320184Y736885D01*
X322684Y737921D01*
X324832Y739568D01*
X326327Y741517D01*
X348870D01*
X387193Y703193D01*
X388940Y702026D01*
X391000Y701617D01*
X444000D01*
X444166Y701481D01*
Y701000D01*
X444381Y699915D01*
X444996Y698996D01*
X445915Y698381D01*
X447000Y698166D01*
X448085Y698381D01*
X448634Y698748D01*
X449500Y698906D01*
X450366Y698748D01*
X450915Y698381D01*
X452000Y698166D01*
X453085Y698381D01*
X453634Y698748D01*
X454500Y698906D01*
X455366Y698748D01*
X455915Y698381D01*
X457000Y698166D01*
X458085Y698381D01*
X458634Y698748D01*
X459500Y698906D01*
X460366Y698748D01*
X460915Y698381D01*
X462000Y698166D01*
X463085Y698381D01*
X463634Y698748D01*
X464500Y698906D01*
X465366Y698748D01*
X465915Y698381D01*
X467000Y698166D01*
X468085Y698381D01*
X468634Y698748D01*
X469500Y698906D01*
X470366Y698748D01*
X470915Y698381D01*
X472000Y698166D01*
X473085Y698381D01*
X473634Y698748D01*
X474500Y698906D01*
X475366Y698748D01*
X475915Y698381D01*
X477000Y698166D01*
X478085Y698381D01*
X478634Y698748D01*
X479500Y698906D01*
X480366Y698748D01*
X480915Y698381D01*
X482000Y698166D01*
X483085Y698381D01*
X483634Y698748D01*
X484500Y698906D01*
X485366Y698748D01*
X485915Y698381D01*
X487000Y698166D01*
X488085Y698381D01*
X488634Y698748D01*
X489500Y698906D01*
X490366Y698748D01*
X490915Y698381D01*
X492000Y698166D01*
X493085Y698381D01*
X493634Y698748D01*
X494500Y698906D01*
X495366Y698748D01*
X495915Y698381D01*
X497000Y698166D01*
X498085Y698381D01*
X499004Y698996D01*
X499619Y699915D01*
X499835Y701000D01*
Y712000D01*
X499619Y713085D01*
X499004Y714004D01*
X498085Y714619D01*
X497000Y714835D01*
X495915Y714619D01*
X495366Y714252D01*
X494500Y714094D01*
X493634Y714252D01*
X493085Y714619D01*
X492000Y714835D01*
X490915Y714619D01*
X490366Y714252D01*
X489500Y714094D01*
X488634Y714252D01*
X488085Y714619D01*
X487000Y714835D01*
X485915Y714619D01*
X485366Y714252D01*
X484500Y714094D01*
X483634Y714252D01*
X483085Y714619D01*
X482000Y714835D01*
X480915Y714619D01*
X480366Y714252D01*
X479500Y714094D01*
X478634Y714252D01*
X478085Y714619D01*
X477000Y714835D01*
X475915Y714619D01*
X475366Y714252D01*
X474500Y714094D01*
X473634Y714252D01*
X473085Y714619D01*
X472000Y714835D01*
X471105Y714656D01*
X470542Y714897D01*
X469835Y715424D01*
Y722826D01*
X475873Y728865D01*
X481750D01*
X482730Y729270D01*
X483135Y730250D01*
Y732964D01*
X489840Y739669D01*
X491014Y739183D01*
Y734516D01*
Y724864D01*
X491500Y723690D01*
X491535Y723675D01*
X491584Y723430D01*
X492972Y721352D01*
X493352Y720972D01*
X495430Y719584D01*
X497880Y719097D01*
X500500D01*
X502950Y719584D01*
X505028Y720972D01*
X506416Y723050D01*
X506903Y725500D01*
X506416Y727950D01*
X505028Y730028D01*
X503986Y730723D01*
Y742136D01*
X503665Y742913D01*
X503589Y743465D01*
X504104Y744365D01*
X504480Y744520D01*
X504885Y745500D01*
Y761500D01*
X504480Y762480D01*
X503500Y762886D01*
X491500D01*
X490520Y762480D01*
X490115Y761500D01*
Y752286D01*
X477964Y740135D01*
X473250D01*
X472270Y739730D01*
X471865Y738750D01*
Y732873D01*
X470405Y731414D01*
X469135Y731940D01*
Y738750D01*
X468730Y739730D01*
X467864Y740088D01*
Y744115D01*
X471500D01*
X472480Y744520D01*
X472885Y745500D01*
Y761500D01*
X472607Y762172D01*
X473449Y763014D01*
X479516D01*
X480690Y763500D01*
X481176Y764674D01*
Y774326D01*
X480690Y775500D01*
X479516Y775986D01*
X469864D01*
X468690Y775500D01*
X468675Y775464D01*
X468430Y775416D01*
X466352Y774028D01*
X460972Y768648D01*
X459584Y766570D01*
X459097Y764120D01*
Y762719D01*
X458520Y762480D01*
X458115Y761500D01*
Y745500D01*
X458520Y744520D01*
X459136Y744265D01*
Y740088D01*
X458270Y739730D01*
X457864Y738750D01*
Y730250D01*
X458270Y729270D01*
X459166Y728900D01*
Y724639D01*
X457896Y724113D01*
X437136Y744873D01*
Y747750D01*
X436730Y748730D01*
X435750Y749136D01*
X427250D01*
X426270Y748730D01*
X426123Y748374D01*
X414019D01*
X342196Y820196D01*
X341120Y820915D01*
X341506Y822185D01*
X706265D01*
X706514Y819013D01*
D02*
G37*
G36*
X259000Y797000D02*
Y759000D01*
X247135Y747135D01*
X244500D01*
X244173Y747000D01*
X232827D01*
X232500Y747135D01*
X225500D01*
X225173Y747000D01*
X215931D01*
X215000Y747385D01*
X208000D01*
X207069Y747000D01*
X206000D01*
X194000Y735000D01*
X154000D01*
X149000Y740000D01*
Y741659D01*
X147827Y741173D01*
X142000Y747000D01*
X140000D01*
X138000Y749000D01*
Y759000D01*
X140000Y761000D01*
X149000D01*
X152126Y764126D01*
X182750D01*
X184615Y764497D01*
X185367Y765000D01*
X217000D01*
X224000Y758000D01*
X242000Y758000D01*
X242622Y758622D01*
X242980Y758770D01*
X243128Y759128D01*
X244000Y760000D01*
Y787923D01*
X244135Y788250D01*
Y794136D01*
X250000Y800000D01*
X256000D01*
X259000Y797000D01*
D02*
G37*
G36*
X230872Y810146D02*
X232039Y809601D01*
X232026Y809447D01*
X225914Y803336D01*
X224968Y801920D01*
X224636Y800250D01*
Y770778D01*
X224520Y770730D01*
X224114Y769750D01*
Y761504D01*
X222941Y761018D01*
X217980Y765980D01*
X217000Y766385D01*
X188687D01*
X188201Y767559D01*
X230791Y810149D01*
X230872Y810146D01*
D02*
G37*
G36*
X228130Y820915D02*
X227054Y820196D01*
X180731Y773874D01*
X150627D01*
X150480Y774230D01*
X149500Y774635D01*
X141000D01*
X140020Y774230D01*
X139614Y773250D01*
Y764750D01*
X140020Y763770D01*
X140298Y763655D01*
X140045Y762385D01*
X140000D01*
X139020Y761980D01*
X137903Y760863D01*
X136633Y761389D01*
Y764141D01*
X136885Y764750D01*
Y773250D01*
X136480Y774230D01*
X135500Y774635D01*
X127000D01*
X126020Y774230D01*
X125615Y773250D01*
Y764750D01*
X125867Y764141D01*
Y757505D01*
X125864Y757500D01*
Y755440D01*
X125276Y754560D01*
X124867Y752500D01*
X125276Y750440D01*
X125864Y749560D01*
Y747500D01*
X124951Y746385D01*
X123048D01*
X122135Y747500D01*
Y749560D01*
X122724Y750440D01*
X123133Y752500D01*
X122724Y754560D01*
X122135Y755440D01*
Y757500D01*
X121730Y758480D01*
X121383Y758623D01*
Y764141D01*
X121636Y764750D01*
Y773250D01*
X121230Y774230D01*
X120250Y774635D01*
X111750D01*
X110770Y774230D01*
X110365Y773250D01*
Y764750D01*
X110617Y764141D01*
Y758450D01*
X109347Y758197D01*
X109230Y758480D01*
X108250Y758885D01*
X102250D01*
X101270Y758480D01*
X100864Y757500D01*
Y755728D01*
X98522Y753385D01*
X80000D01*
X79020Y752980D01*
X78615Y752000D01*
X77386Y752099D01*
Y754772D01*
X86230Y763617D01*
X97142D01*
X97750Y763364D01*
X106250D01*
X107230Y763770D01*
X107635Y764750D01*
Y773250D01*
X107230Y774230D01*
X106250Y774635D01*
X97750D01*
X97142Y774383D01*
X84000D01*
X81940Y773974D01*
X80193Y772807D01*
X65472Y758085D01*
X56000D01*
X55020Y757680D01*
X54615Y756700D01*
Y736700D01*
X55020Y735720D01*
X56000Y735314D01*
X76000D01*
X76980Y735720D01*
X77386Y736700D01*
X78615Y736601D01*
Y732385D01*
X68217D01*
X66000Y732677D01*
X63783Y732385D01*
X49000D01*
X48020Y731980D01*
X47614Y731000D01*
Y705349D01*
X46385Y705250D01*
X45980Y706230D01*
X45000Y706636D01*
X29000D01*
X28020Y706230D01*
X27615Y705250D01*
Y684250D01*
X28020Y683270D01*
X29000Y682865D01*
X45000D01*
X45980Y683270D01*
X46385Y684250D01*
X47614Y684151D01*
Y680094D01*
X45099D01*
X45000Y680135D01*
X31000D01*
X30020Y679730D01*
X29615Y678750D01*
Y674750D01*
X30020Y673770D01*
X30020Y673230D01*
X29615Y672250D01*
Y668250D01*
X30020Y667270D01*
X30020Y666730D01*
X29615Y665750D01*
Y661750D01*
X30020Y660770D01*
X30020Y660230D01*
X29615Y659250D01*
Y655250D01*
X30020Y654270D01*
X30020Y653730D01*
X29615Y652750D01*
Y648750D01*
X30020Y647770D01*
X31000Y647365D01*
X45000D01*
X45100Y647406D01*
X47614D01*
Y643349D01*
X46385Y643250D01*
X45980Y644230D01*
X45000Y644635D01*
X29000D01*
X28020Y644230D01*
X27615Y643250D01*
Y622250D01*
X28020Y621270D01*
X29000Y620864D01*
X45000D01*
X45980Y621270D01*
X46385Y622250D01*
Y641901D01*
X47614Y642000D01*
X48020Y641020D01*
X49000Y640614D01*
X80000Y640614D01*
X80375Y640770D01*
X95164Y640770D01*
X95540Y640614D01*
X129000Y640614D01*
X129979Y641020D01*
X179979Y691020D01*
X180385Y692000D01*
X180385Y710426D01*
X181574Y711615D01*
X203000D01*
X203000Y711615D01*
X203980Y712020D01*
X210980Y719020D01*
X211385Y720000D01*
Y728426D01*
X211574Y728615D01*
X213426D01*
X218615Y723426D01*
Y712000D01*
X219020Y711020D01*
X221020Y709020D01*
X222000Y708615D01*
X237000D01*
X237980Y709020D01*
X239441Y710482D01*
X240614Y709996D01*
X240615Y613000D01*
X241020Y612020D01*
X274020Y579020D01*
X275000Y578615D01*
X314348D01*
X314997Y577530D01*
X315000Y577522D01*
Y547713D01*
X314045Y546876D01*
X314000Y546882D01*
Y546815D01*
X279000D01*
Y546882D01*
X275925Y546477D01*
X273831Y545610D01*
X272428Y545678D01*
X271678Y546428D01*
X270530Y546904D01*
X270255D01*
X270000Y547009D01*
X269745Y546904D01*
X269470D01*
X268322Y546428D01*
X268000Y546106D01*
X267678Y546428D01*
X266530Y546904D01*
X266255D01*
X266000Y547009D01*
X265745Y546904D01*
X265470D01*
X264322Y546428D01*
X264000Y546106D01*
X263678Y546428D01*
X262530Y546904D01*
X262255D01*
X262000Y547009D01*
X261745Y546904D01*
X261470D01*
X260322Y546428D01*
X260000Y546106D01*
X259678Y546428D01*
X258530Y546904D01*
X258255D01*
X258000Y547009D01*
X257745Y546904D01*
X257470D01*
X256322Y546428D01*
X255572Y545678D01*
X254169Y545610D01*
X252075Y546477D01*
X249000Y546882D01*
Y546815D01*
X214000D01*
Y546882D01*
X210925Y546477D01*
X208831Y545610D01*
X207428Y545678D01*
X206678Y546428D01*
X205530Y546904D01*
X205255D01*
X205000Y547009D01*
X204745Y546904D01*
X204470D01*
X203322Y546428D01*
X203000Y546106D01*
X202678Y546428D01*
X201530Y546904D01*
X201255D01*
X201000Y547009D01*
X200745Y546904D01*
X200470D01*
X199322Y546428D01*
X199000Y546106D01*
X198678Y546428D01*
X197530Y546904D01*
X197255D01*
X197000Y547009D01*
X196745Y546904D01*
X196470D01*
X195322Y546428D01*
X195000Y546106D01*
X194678Y546428D01*
X193530Y546904D01*
X193255D01*
X193000Y547009D01*
X192745Y546904D01*
X192470D01*
X191322Y546428D01*
X190572Y545678D01*
X189169Y545610D01*
X187075Y546477D01*
X184000Y546882D01*
Y546815D01*
X160000D01*
Y546882D01*
X156925Y546477D01*
X155245Y545781D01*
X154782Y545657D01*
X153428Y545678D01*
X152678Y546428D01*
X151530Y546904D01*
X151255D01*
X151000Y547009D01*
X150745Y546904D01*
X150470D01*
X149322Y546428D01*
X149000Y546106D01*
X148678Y546428D01*
X147530Y546904D01*
X147255D01*
X147000Y547009D01*
X146745Y546904D01*
X146470D01*
X145322Y546428D01*
X145000Y546106D01*
X144678Y546428D01*
X143530Y546904D01*
X143255D01*
X143000Y547009D01*
X142745Y546904D01*
X142470D01*
X141322Y546428D01*
X141000Y546106D01*
X140678Y546428D01*
X139530Y546904D01*
X139255D01*
X139000Y547009D01*
X138745Y546904D01*
X138470D01*
X137322Y546428D01*
X136572Y545678D01*
X135169Y545610D01*
X133075Y546477D01*
X130000Y546882D01*
Y546815D01*
X95000D01*
Y546882D01*
X91925Y546477D01*
X89831Y545610D01*
X88428Y545678D01*
X87678Y546428D01*
X86530Y546904D01*
X86255D01*
X86000Y547009D01*
X85745Y546904D01*
X85470D01*
X84322Y546428D01*
X84000Y546106D01*
X83678Y546428D01*
X82530Y546904D01*
X82255D01*
X82000Y547009D01*
X81745Y546904D01*
X81470D01*
X80322Y546428D01*
X80000Y546106D01*
X79678Y546428D01*
X78530Y546904D01*
X78255D01*
X78000Y547009D01*
X77745Y546904D01*
X77470D01*
X76322Y546428D01*
X76000Y546106D01*
X75678Y546428D01*
X74530Y546904D01*
X74255D01*
X74000Y547009D01*
X73745Y546904D01*
X73470D01*
X72322Y546428D01*
X71572Y545678D01*
X70169Y545610D01*
X68075Y546477D01*
X65000Y546882D01*
Y546815D01*
X30000D01*
Y546882D01*
X26925Y546477D01*
X24831Y545610D01*
X23428Y545678D01*
X22678Y546428D01*
X21530Y546904D01*
X21255D01*
X21000Y547009D01*
X20745Y546904D01*
X20470D01*
X19322Y546428D01*
X19000Y546106D01*
X18678Y546428D01*
X17530Y546904D01*
X17255D01*
X17000Y547009D01*
X16745Y546904D01*
X16470D01*
X15322Y546428D01*
X15000Y546106D01*
X14678Y546428D01*
X13530Y546904D01*
X13255D01*
X13000Y547009D01*
X12745Y546904D01*
X12470D01*
X11322Y546428D01*
X11000Y546106D01*
X10678Y546428D01*
X9530Y546904D01*
X9255D01*
X9000Y547009D01*
X8745Y546904D01*
X8470D01*
X7322Y546428D01*
X6572Y545678D01*
X5169Y545610D01*
X3075Y546477D01*
X1815Y546643D01*
Y613241D01*
X2000Y613365D01*
X21000D01*
X21980Y613770D01*
X22385Y614750D01*
Y632750D01*
X21980Y633730D01*
X21000Y634136D01*
X2000D01*
X1815Y634259D01*
Y642241D01*
X2000Y642365D01*
X21000D01*
X21980Y642770D01*
X22385Y643750D01*
Y661250D01*
X21980Y662230D01*
X21000Y662635D01*
X2000D01*
X1815Y662759D01*
Y664741D01*
X2000Y664865D01*
X21000D01*
X21980Y665270D01*
X22385Y666250D01*
Y683750D01*
X21980Y684730D01*
X21000Y685135D01*
X2000D01*
X1815Y685259D01*
Y693241D01*
X2000Y693365D01*
X21000D01*
X21980Y693770D01*
X22385Y694750D01*
Y712750D01*
X21980Y713730D01*
X21000Y714136D01*
X2000D01*
X1815Y714259D01*
Y792265D01*
X4987Y792514D01*
X9851Y793682D01*
X14472Y795596D01*
X18738Y798210D01*
X22541Y801459D01*
X25790Y805262D01*
X28404Y809528D01*
X30318Y814149D01*
X31486Y819013D01*
X31735Y822185D01*
X227745D01*
X228130Y820915D01*
D02*
G37*
G36*
X315000Y790379D02*
Y782685D01*
X313000D01*
X312020Y782280D01*
X307520Y777780D01*
X307115Y776800D01*
Y767800D01*
X307520Y766820D01*
X312020Y762320D01*
X313000Y761915D01*
X315000D01*
Y756940D01*
X314816Y756915D01*
X312316Y755880D01*
X310168Y754232D01*
X308520Y752084D01*
X307485Y749584D01*
X307131Y746900D01*
X307485Y744216D01*
X308520Y741716D01*
X310168Y739568D01*
X312316Y737921D01*
X314816Y736885D01*
X315000Y736861D01*
Y731540D01*
X314816Y731515D01*
X312316Y730480D01*
X310168Y728832D01*
X308520Y726684D01*
X307485Y724184D01*
X307131Y721500D01*
X307485Y718816D01*
X308520Y716316D01*
X310168Y714168D01*
X312316Y712521D01*
X314816Y711485D01*
X315000Y711460D01*
Y706140D01*
X314816Y706115D01*
X312316Y705080D01*
X310168Y703432D01*
X308520Y701284D01*
X307485Y698784D01*
X307131Y696100D01*
X307485Y693416D01*
X308520Y690916D01*
X310168Y688768D01*
X312316Y687121D01*
X314816Y686085D01*
X315000Y686060D01*
Y680740D01*
X314816Y680715D01*
X312316Y679680D01*
X310168Y678032D01*
X308520Y675884D01*
X307485Y673384D01*
X307131Y670700D01*
X307485Y668016D01*
X308520Y665516D01*
X310168Y663368D01*
X312316Y661721D01*
X314816Y660685D01*
X315000Y660660D01*
Y655340D01*
X314816Y655315D01*
X312316Y654280D01*
X310168Y652632D01*
X308520Y650484D01*
X307485Y647984D01*
X307131Y645300D01*
X307485Y642616D01*
X308520Y640116D01*
X310168Y637968D01*
X312316Y636320D01*
X314816Y635285D01*
X315000Y635261D01*
Y633386D01*
X306574D01*
X304980Y634980D01*
X304329Y635249D01*
X304386Y635386D01*
Y714000D01*
X303980Y714980D01*
X271980Y746980D01*
X271000Y747385D01*
X251004D01*
X250518Y748559D01*
X259980Y758020D01*
X260385Y759000D01*
Y788151D01*
X261615Y788250D01*
X262020Y787270D01*
X263000Y786864D01*
X271500D01*
X272480Y787270D01*
X272885Y788250D01*
Y789867D01*
X310500D01*
X312560Y790276D01*
X313730Y791058D01*
X315000Y790379D01*
D02*
G37*
G36*
X408554Y740054D02*
X410135Y738997D01*
X412000Y738626D01*
X426123D01*
X426270Y738270D01*
X427250Y737865D01*
X435750D01*
X436017Y737975D01*
X443576Y730415D01*
X442951Y729245D01*
X442500Y729334D01*
X393674D01*
X348704Y774304D01*
X347785Y774919D01*
X346700Y775135D01*
X327885D01*
Y776800D01*
X327480Y777780D01*
X322980Y782280D01*
X322000Y782685D01*
X320000D01*
Y802136D01*
X332500D01*
X334170Y802468D01*
X335586Y803414D01*
X336532Y804830D01*
X336864Y806500D01*
X336532Y808170D01*
X335586Y809586D01*
X334170Y810532D01*
X333795Y810606D01*
X333920Y811876D01*
X336731D01*
X408554Y740054D01*
D02*
G37*
G36*
X454572Y389322D02*
X455322Y388572D01*
X456470Y388096D01*
X456745D01*
X457000Y387991D01*
X457255Y388096D01*
X457530D01*
X458678Y388572D01*
X459000Y388894D01*
X459322Y388572D01*
X460470Y388096D01*
X460745D01*
X461000Y387991D01*
X461255Y388096D01*
X461530D01*
X462678Y388572D01*
X463000Y388894D01*
X463322Y388572D01*
X464470Y388096D01*
X464745D01*
X465000Y387991D01*
X465255Y388096D01*
X465530D01*
X466678Y388572D01*
X467000Y388894D01*
X467322Y388572D01*
X468470Y388096D01*
X468745D01*
X469000Y387991D01*
X469255Y388096D01*
X469530D01*
X470678Y388572D01*
X471428Y389322D01*
X472831Y389390D01*
X474925Y388523D01*
X478000Y388118D01*
Y388185D01*
X513000D01*
Y388118D01*
X516075Y388523D01*
X518169Y389390D01*
X519572Y389322D01*
X520322Y388572D01*
X521470Y388096D01*
X521745D01*
X522000Y387991D01*
X522255Y388096D01*
X522530D01*
X523678Y388572D01*
X524000Y388894D01*
X524322Y388572D01*
X525470Y388096D01*
X525745D01*
X526000Y387991D01*
X526255Y388096D01*
X526530D01*
X527678Y388572D01*
X528000Y388894D01*
X528322Y388572D01*
X529470Y388096D01*
X529745D01*
X530000Y387991D01*
X530255Y388096D01*
X530530D01*
X531678Y388572D01*
X532000Y388894D01*
X532322Y388572D01*
X533470Y388096D01*
X533745D01*
X534000Y387991D01*
X534255Y388096D01*
X534530D01*
X535678Y388572D01*
X536428Y389322D01*
X537831Y389390D01*
X539925Y388523D01*
X543000Y388118D01*
Y388185D01*
X578000D01*
Y388118D01*
X581075Y388523D01*
X583169Y389390D01*
X584572Y389322D01*
X585322Y388572D01*
X586470Y388096D01*
X586745D01*
X587000Y387991D01*
X587255Y388096D01*
X587530D01*
X588678Y388572D01*
X589000Y388894D01*
X589322Y388572D01*
X590470Y388096D01*
X590745D01*
X591000Y387991D01*
X591255Y388096D01*
X591530D01*
X592678Y388572D01*
X593000Y388894D01*
X593322Y388572D01*
X594470Y388096D01*
X594745D01*
X595000Y387991D01*
X595255Y388096D01*
X595530D01*
X596678Y388572D01*
X597000Y388894D01*
X597322Y388572D01*
X598470Y388096D01*
X598745D01*
X599000Y387991D01*
X599255Y388096D01*
X599530D01*
X600678Y388572D01*
X601428Y389322D01*
X602831Y389390D01*
X604925Y388523D01*
X608000Y388118D01*
Y388185D01*
X643000D01*
Y388118D01*
X646075Y388523D01*
X648169Y389390D01*
X649572Y389322D01*
X650322Y388572D01*
X651470Y388096D01*
X651745D01*
X652000Y387991D01*
X652255Y388096D01*
X652530D01*
X653678Y388572D01*
X654000Y388894D01*
X654322Y388572D01*
X655470Y388096D01*
X655745D01*
X656000Y387991D01*
X656255Y388096D01*
X656530D01*
X657678Y388572D01*
X658000Y388894D01*
X658322Y388572D01*
X659470Y388096D01*
X659745D01*
X660000Y387991D01*
X660255Y388096D01*
X660530D01*
X661678Y388572D01*
X662000Y388894D01*
X662322Y388572D01*
X663470Y388096D01*
X663745D01*
X664000Y387991D01*
X664255Y388096D01*
X664530D01*
X665678Y388572D01*
X666428Y389322D01*
X667831Y389390D01*
X669925Y388523D01*
X673000Y388118D01*
Y388185D01*
X708000D01*
Y388118D01*
X711075Y388523D01*
X713169Y389390D01*
X714572Y389322D01*
X715322Y388572D01*
X716470Y388096D01*
X716745D01*
X717000Y387991D01*
X717255Y388096D01*
X717530D01*
X718678Y388572D01*
X719000Y388894D01*
X719322Y388572D01*
X720470Y388096D01*
X720745D01*
X721000Y387991D01*
X721255Y388096D01*
X721530D01*
X722678Y388572D01*
X723000Y388894D01*
X723322Y388572D01*
X724470Y388096D01*
X724745D01*
X725000Y387991D01*
X725255Y388096D01*
X725530D01*
X726678Y388572D01*
X727000Y388894D01*
X727322Y388572D01*
X728470Y388096D01*
X728745D01*
X729000Y387991D01*
X729255Y388096D01*
X729530D01*
X730678Y388572D01*
X731428Y389322D01*
X732831Y389390D01*
X734925Y388523D01*
X736185Y388357D01*
Y1815D01*
X176643D01*
X176477Y3075D01*
X175610Y5169D01*
X175678Y6572D01*
X176428Y7322D01*
X176904Y8470D01*
Y8745D01*
X177009Y9000D01*
X176904Y9255D01*
Y9530D01*
X176428Y10678D01*
X176106Y11000D01*
X176428Y11322D01*
X176904Y12470D01*
Y12745D01*
X177009Y13000D01*
X176904Y13255D01*
Y13530D01*
X176428Y14678D01*
X176106Y15000D01*
X176428Y15322D01*
X176904Y16470D01*
Y16745D01*
X177009Y17000D01*
X176904Y17255D01*
Y17530D01*
X176428Y18678D01*
X176106Y19000D01*
X176428Y19322D01*
X176904Y20470D01*
Y20745D01*
X177009Y21000D01*
X176904Y21255D01*
Y21530D01*
X176428Y22678D01*
X175678Y23428D01*
X175610Y24831D01*
X176477Y26925D01*
X176882Y30000D01*
X176815D01*
Y65000D01*
X176882D01*
X176477Y68075D01*
X175610Y70169D01*
X175678Y71572D01*
X176428Y72322D01*
X176904Y73470D01*
Y73745D01*
X177009Y74000D01*
X176904Y74255D01*
Y74530D01*
X176428Y75678D01*
X176106Y76000D01*
X176428Y76322D01*
X176904Y77470D01*
Y77745D01*
X177009Y78000D01*
X176904Y78255D01*
Y78530D01*
X176428Y79678D01*
X176106Y80000D01*
X176428Y80322D01*
X176904Y81470D01*
Y81745D01*
X177009Y82000D01*
X176904Y82255D01*
Y82530D01*
X176428Y83678D01*
X176106Y84000D01*
X176428Y84322D01*
X176904Y85470D01*
Y85745D01*
X177009Y86000D01*
X176904Y86255D01*
Y86530D01*
X176428Y87678D01*
X175678Y88428D01*
X175610Y89831D01*
X176477Y91925D01*
X176882Y95000D01*
X176815D01*
Y130000D01*
X176882D01*
X176477Y133075D01*
X175610Y135169D01*
X175678Y136572D01*
X176428Y137322D01*
X176904Y138470D01*
Y138745D01*
X177009Y139000D01*
X176904Y139255D01*
Y139530D01*
X176428Y140678D01*
X176106Y141000D01*
X176428Y141322D01*
X176904Y142470D01*
Y142745D01*
X177009Y143000D01*
X176904Y143255D01*
Y143530D01*
X176428Y144678D01*
X176106Y145000D01*
X176428Y145322D01*
X176904Y146470D01*
Y146745D01*
X177009Y147000D01*
X176904Y147255D01*
Y147530D01*
X176428Y148678D01*
X176106Y149000D01*
X176428Y149322D01*
X176904Y150470D01*
Y150745D01*
X177009Y151000D01*
X176904Y151255D01*
Y151530D01*
X176428Y152678D01*
X175678Y153428D01*
X175610Y154831D01*
X176477Y156925D01*
X176882Y160000D01*
X176815D01*
Y195000D01*
X176882D01*
X176477Y198075D01*
X175610Y200169D01*
X175678Y201572D01*
X176428Y202322D01*
X176904Y203470D01*
Y203745D01*
X177009Y204000D01*
X176904Y204255D01*
Y204530D01*
X176428Y205678D01*
X176106Y206000D01*
X176428Y206322D01*
X176904Y207470D01*
Y207745D01*
X177009Y208000D01*
X176904Y208255D01*
Y208530D01*
X176428Y209678D01*
X176106Y210000D01*
X176428Y210322D01*
X176904Y211470D01*
Y211745D01*
X177009Y212000D01*
X176904Y212255D01*
Y212530D01*
X176428Y213678D01*
X176106Y214000D01*
X176428Y214322D01*
X176904Y215470D01*
Y215745D01*
X177009Y216000D01*
X176904Y216255D01*
Y216530D01*
X176428Y217678D01*
X175678Y218428D01*
X175610Y219831D01*
X176477Y221925D01*
X176882Y225000D01*
X176815D01*
Y260000D01*
X176882D01*
X176477Y263075D01*
X175610Y265169D01*
X175678Y266572D01*
X176428Y267322D01*
X176904Y268470D01*
Y268745D01*
X177009Y269000D01*
X176904Y269255D01*
Y269530D01*
X176428Y270678D01*
X176106Y271000D01*
X176428Y271322D01*
X176904Y272470D01*
Y272745D01*
X177009Y273000D01*
X176904Y273255D01*
Y273530D01*
X176428Y274678D01*
X176106Y275000D01*
X176428Y275322D01*
X176904Y276470D01*
Y276745D01*
X177009Y277000D01*
X176904Y277255D01*
Y277530D01*
X176428Y278678D01*
X176106Y279000D01*
X176428Y279322D01*
X176904Y280470D01*
Y280745D01*
X177009Y281000D01*
X176904Y281255D01*
Y281530D01*
X176428Y282678D01*
X175678Y283428D01*
X175610Y284831D01*
X176477Y286925D01*
X176882Y290000D01*
X176815D01*
Y325000D01*
X176882D01*
X176477Y328075D01*
X175610Y330169D01*
X175678Y331572D01*
X176428Y332322D01*
X176904Y333470D01*
Y333745D01*
X177009Y334000D01*
X176904Y334255D01*
Y334530D01*
X176428Y335678D01*
X176106Y336000D01*
X176428Y336322D01*
X176904Y337470D01*
Y337745D01*
X177009Y338000D01*
X176904Y338255D01*
Y338530D01*
X176428Y339678D01*
X176106Y340000D01*
X176428Y340322D01*
X176904Y341470D01*
Y341745D01*
X177009Y342000D01*
X176904Y342255D01*
Y342530D01*
X176428Y343678D01*
X176106Y344000D01*
X176428Y344322D01*
X176904Y345470D01*
Y345745D01*
X177009Y346000D01*
X176904Y346255D01*
Y346530D01*
X176428Y347678D01*
X175678Y348428D01*
X175610Y349831D01*
X176477Y351925D01*
X176882Y355000D01*
X176815D01*
Y388185D01*
X183000D01*
Y388118D01*
X186075Y388523D01*
X188169Y389390D01*
X189572Y389322D01*
X190322Y388572D01*
X191470Y388096D01*
X191745D01*
X192000Y387991D01*
X192255Y388096D01*
X192530D01*
X193678Y388572D01*
X194000Y388894D01*
X194322Y388572D01*
X195470Y388096D01*
X195745D01*
X196000Y387991D01*
X196255Y388096D01*
X196530D01*
X197678Y388572D01*
X198000Y388894D01*
X198322Y388572D01*
X199470Y388096D01*
X199745D01*
X200000Y387991D01*
X200255Y388096D01*
X200530D01*
X201678Y388572D01*
X202000Y388894D01*
X202322Y388572D01*
X203470Y388096D01*
X203745D01*
X204000Y387991D01*
X204255Y388096D01*
X204530D01*
X205678Y388572D01*
X206428Y389322D01*
X207831Y389390D01*
X209925Y388523D01*
X213000Y388118D01*
Y388185D01*
X248000D01*
Y388118D01*
X251075Y388523D01*
X253169Y389390D01*
X254572Y389322D01*
X255322Y388572D01*
X256470Y388096D01*
X256745D01*
X257000Y387991D01*
X257255Y388096D01*
X257530D01*
X258678Y388572D01*
X259000Y388894D01*
X259322Y388572D01*
X260470Y388096D01*
X260745D01*
X261000Y387991D01*
X261255Y388096D01*
X261530D01*
X262678Y388572D01*
X263000Y388894D01*
X263322Y388572D01*
X264470Y388096D01*
X264745D01*
X265000Y387991D01*
X265255Y388096D01*
X265530D01*
X266678Y388572D01*
X267000Y388894D01*
X267322Y388572D01*
X268470Y388096D01*
X268745D01*
X269000Y387991D01*
X269255Y388096D01*
X269530D01*
X270678Y388572D01*
X271428Y389322D01*
X272831Y389390D01*
X274925Y388523D01*
X278000Y388118D01*
Y388185D01*
X313000D01*
Y388118D01*
X316075Y388523D01*
X318169Y389390D01*
X319572Y389322D01*
X320322Y388572D01*
X321470Y388096D01*
X321745D01*
X322000Y387991D01*
X322255Y388096D01*
X322530D01*
X323678Y388572D01*
X324000Y388894D01*
X324322Y388572D01*
X325470Y388096D01*
X325745D01*
X326000Y387991D01*
X326255Y388096D01*
X326530D01*
X327678Y388572D01*
X328000Y388894D01*
X328322Y388572D01*
X329470Y388096D01*
X329745D01*
X330000Y387991D01*
X330255Y388096D01*
X330530D01*
X331678Y388572D01*
X332000Y388894D01*
X332322Y388572D01*
X333470Y388096D01*
X333745D01*
X334000Y387991D01*
X334255Y388096D01*
X334530D01*
X335678Y388572D01*
X336428Y389322D01*
X337831Y389390D01*
X339925Y388523D01*
X343000Y388118D01*
Y388185D01*
X413000D01*
X413000Y388185D01*
X448000D01*
Y388118D01*
X451075Y388523D01*
X453169Y389390D01*
X454572Y389322D01*
D02*
G37*
%LPC*%
G36*
X573750Y699386D02*
X565250D01*
X564270Y698980D01*
X563865Y698000D01*
Y689500D01*
X564270Y688520D01*
X565250Y688114D01*
X573750D01*
X574358Y688367D01*
X586367D01*
Y684770D01*
X586270Y684730D01*
X585864Y683750D01*
Y675250D01*
X586270Y674270D01*
X587250Y673865D01*
X595750D01*
X596730Y674270D01*
X597136Y675250D01*
Y683750D01*
X597133Y683755D01*
Y693750D01*
X596724Y695810D01*
X595557Y697557D01*
X593810Y698724D01*
X591750Y699134D01*
X574358D01*
X573750Y699386D01*
D02*
G37*
G36*
X612750Y725636D02*
X604250D01*
X603270Y725230D01*
X603123Y724874D01*
X568000D01*
X566135Y724503D01*
X564554Y723446D01*
X552054Y710946D01*
X550997Y709365D01*
X550626Y707500D01*
Y699127D01*
X550270Y698980D01*
X549865Y698000D01*
Y692123D01*
X547406Y689664D01*
X546135Y690190D01*
Y698000D01*
X545730Y698980D01*
X544750Y699386D01*
X536250D01*
X535270Y698980D01*
X534865Y698000D01*
Y689500D01*
X535270Y688520D01*
X535352Y688110D01*
X532076Y684834D01*
X525424D01*
X524897Y685542D01*
X524656Y686104D01*
X524834Y687000D01*
X524619Y688085D01*
X524004Y689004D01*
X523085Y689619D01*
X522000Y689834D01*
X510000D01*
X508915Y689619D01*
X507996Y689004D01*
X507382Y688390D01*
X507223Y688284D01*
X507000Y688061D01*
X504716Y685777D01*
X504609Y685618D01*
X499671Y680679D01*
X499220Y680590D01*
X498135Y679865D01*
X497410Y678780D01*
X497156Y677500D01*
X497410Y676220D01*
X498135Y675135D01*
X499220Y674410D01*
X500500Y674156D01*
X501780Y674410D01*
X502865Y675135D01*
X503590Y676220D01*
X503679Y676671D01*
X505827Y678818D01*
X506849Y679841D01*
X508319Y679674D01*
X508798Y678909D01*
X508748Y678634D01*
X508381Y678085D01*
X508166Y677000D01*
X508381Y675915D01*
X508748Y675366D01*
X508906Y674500D01*
X508748Y673634D01*
X508381Y673085D01*
X508166Y672000D01*
X508381Y670915D01*
X508748Y670366D01*
X508906Y669500D01*
X508748Y668634D01*
X508381Y668085D01*
X508166Y667000D01*
X508381Y665915D01*
X508748Y665366D01*
X508906Y664500D01*
X508748Y663634D01*
X508381Y663085D01*
X508166Y662000D01*
X508381Y660915D01*
X508748Y660366D01*
X508906Y659500D01*
X508748Y658634D01*
X508381Y658085D01*
X508166Y657000D01*
X508381Y655915D01*
X508748Y655366D01*
X508906Y654500D01*
X508748Y653634D01*
X508381Y653085D01*
X508166Y652000D01*
X508381Y650915D01*
X508748Y650366D01*
X508906Y649500D01*
X508748Y648634D01*
X508381Y648085D01*
X508166Y647000D01*
X508381Y645915D01*
X508748Y645366D01*
X508906Y644500D01*
X508748Y643634D01*
X508381Y643085D01*
X508166Y642000D01*
X508381Y640915D01*
X508748Y640366D01*
X508906Y639500D01*
X508748Y638634D01*
X508381Y638085D01*
X508166Y637000D01*
X508381Y635915D01*
X508996Y634996D01*
X509915Y634381D01*
X511000Y634166D01*
X520165D01*
Y495000D01*
X520381Y493915D01*
X520996Y492996D01*
X524566Y489426D01*
Y456009D01*
X523710Y453945D01*
X523323Y451000D01*
X523710Y448055D01*
X524847Y445311D01*
X526655Y442955D01*
X529011Y441147D01*
X531755Y440010D01*
X534700Y439623D01*
X537645Y440010D01*
X540389Y441147D01*
X542745Y442955D01*
X544553Y445311D01*
X545690Y448055D01*
X546077Y451000D01*
X545690Y453945D01*
X544553Y456689D01*
X542745Y459045D01*
X540389Y460853D01*
X537645Y461990D01*
X534700Y462377D01*
X531755Y461990D01*
X531291Y461797D01*
X530234Y462503D01*
Y490600D01*
X530019Y491685D01*
X529404Y492604D01*
X525835Y496174D01*
Y636000D01*
X525619Y637085D01*
X525004Y638004D01*
X524325Y638683D01*
X524004Y639996D01*
X524619Y640915D01*
X524834Y642000D01*
X524619Y643085D01*
X524252Y643634D01*
X524094Y644500D01*
X524190Y645025D01*
X524613Y645281D01*
X525881Y645415D01*
X526496Y644496D01*
X534865Y636127D01*
Y630250D01*
X535270Y629270D01*
X536250Y628865D01*
X544750D01*
X545730Y629270D01*
X546135Y630250D01*
Y638750D01*
X545730Y639730D01*
X544750Y640135D01*
X538873D01*
X536414Y642595D01*
X536940Y643865D01*
X544750D01*
X545730Y644270D01*
X546135Y645250D01*
Y653750D01*
X545730Y654730D01*
X544750Y655135D01*
X536873D01*
X529113Y662896D01*
X529639Y664165D01*
X534865D01*
Y660250D01*
X535270Y659270D01*
X536250Y658865D01*
X544750D01*
X545730Y659270D01*
X546135Y660250D01*
Y668750D01*
X545730Y669730D01*
X544750Y670135D01*
X536250D01*
X535523Y669834D01*
X525424D01*
X524897Y670542D01*
X524656Y671104D01*
X524834Y672000D01*
X524656Y672896D01*
X524897Y673458D01*
X525424Y674165D01*
X538750D01*
X539835Y674381D01*
X540754Y674996D01*
X553873Y688114D01*
X559750D01*
X560730Y688520D01*
X561135Y689500D01*
Y698000D01*
X560730Y698980D01*
X560374Y699127D01*
Y705481D01*
X570019Y715126D01*
X603123D01*
X603270Y714770D01*
X604250Y714364D01*
X612743D01*
X618348Y708760D01*
X618010Y707945D01*
X617623Y705000D01*
X618010Y702055D01*
X619147Y699311D01*
X620955Y696955D01*
X623311Y695147D01*
X626055Y694010D01*
X629000Y693623D01*
X631945Y694010D01*
X634689Y695147D01*
X637045Y696955D01*
X638853Y699311D01*
X639191Y700126D01*
X683809D01*
X684147Y699311D01*
X685955Y696955D01*
X688311Y695147D01*
X691055Y694010D01*
X694000Y693623D01*
X696945Y694010D01*
X699689Y695147D01*
X702045Y696955D01*
X703853Y699311D01*
X704990Y702055D01*
X705377Y705000D01*
X704990Y707945D01*
X703853Y710689D01*
X702045Y713045D01*
X699689Y714853D01*
X696945Y715990D01*
X694000Y716377D01*
X691055Y715990D01*
X688311Y714853D01*
X685955Y713045D01*
X684147Y710689D01*
X683809Y709874D01*
X639191D01*
X638853Y710689D01*
X637045Y713045D01*
X634689Y714853D01*
X631945Y715990D01*
X629000Y716377D01*
X626055Y715990D01*
X625240Y715652D01*
X617446Y723446D01*
X615865Y724503D01*
X614000Y724874D01*
X613877D01*
X613730Y725230D01*
X612750Y725636D01*
D02*
G37*
G36*
X486500Y642844D02*
X485220Y642590D01*
X484135Y641865D01*
X483410Y640780D01*
X483156Y639500D01*
X483410Y638220D01*
X484135Y637135D01*
X485220Y636410D01*
X486500Y636156D01*
X487780Y636410D01*
X488162Y636666D01*
X489051D01*
X493331Y632386D01*
X493386Y631740D01*
X492455Y630744D01*
X492000Y630835D01*
X490915Y630619D01*
X490366Y630252D01*
X489500Y630094D01*
X488634Y630252D01*
X488085Y630619D01*
X487000Y630835D01*
X485915Y630619D01*
X485366Y630252D01*
X484500Y630094D01*
X483634Y630252D01*
X483085Y630619D01*
X482000Y630835D01*
X480915Y630619D01*
X480366Y630252D01*
X479500Y630094D01*
X478634Y630252D01*
X478085Y630619D01*
X477000Y630835D01*
X475915Y630619D01*
X475366Y630252D01*
X474500Y630094D01*
X473634Y630252D01*
X473085Y630619D01*
X472000Y630835D01*
X470915Y630619D01*
X470366Y630252D01*
X469500Y630094D01*
X468634Y630252D01*
X468085Y630619D01*
X467000Y630835D01*
X465915Y630619D01*
X465366Y630252D01*
X464500Y630094D01*
X463634Y630252D01*
X463085Y630619D01*
X462000Y630835D01*
X460915Y630619D01*
X460366Y630252D01*
X459500Y630094D01*
X458634Y630252D01*
X458085Y630619D01*
X457000Y630835D01*
X455915Y630619D01*
X455366Y630252D01*
X454500Y630094D01*
X453634Y630252D01*
X453085Y630619D01*
X452000Y630835D01*
X450915Y630619D01*
X450366Y630252D01*
X449500Y630094D01*
X448634Y630252D01*
X448085Y630619D01*
X447000Y630835D01*
X445915Y630619D01*
X444996Y630004D01*
X444381Y629085D01*
X444165Y628000D01*
Y622500D01*
Y611885D01*
X444135Y611865D01*
X443410Y610780D01*
X443156Y609500D01*
X443410Y608220D01*
X444135Y607135D01*
X445220Y606410D01*
X446500Y606156D01*
X447780Y606410D01*
X447963Y606533D01*
X449375Y605948D01*
X449381Y605915D01*
X449996Y604996D01*
X452665Y602326D01*
Y595000D01*
X425883D01*
Y595500D01*
X425474Y597560D01*
X424307Y599307D01*
X422560Y600474D01*
X420500Y600883D01*
X418440Y600474D01*
X416693Y599307D01*
X415526Y597560D01*
X415117Y595500D01*
Y595000D01*
X414000D01*
Y559000D01*
X440000Y533000D01*
X476000D01*
Y575992D01*
X478829Y578821D01*
X479280Y578910D01*
X480365Y579635D01*
X481090Y580720D01*
X481344Y582000D01*
X481090Y583280D01*
X480365Y584365D01*
X479280Y585090D01*
X478000Y585344D01*
X477270Y585199D01*
X476000Y586020D01*
Y595000D01*
X469334D01*
Y607500D01*
X469119Y608585D01*
X468504Y609504D01*
X465480Y612529D01*
X465511Y613329D01*
X466699Y614226D01*
X467000Y614166D01*
X468085Y614381D01*
X468634Y614748D01*
X469500Y614906D01*
X470366Y614748D01*
X470915Y614381D01*
X472000Y614166D01*
X473085Y614381D01*
X473634Y614748D01*
X474500Y614906D01*
X475366Y614748D01*
X475915Y614381D01*
X477000Y614166D01*
X478085Y614381D01*
X478634Y614748D01*
X479500Y614906D01*
X480366Y614748D01*
X480915Y614381D01*
X482000Y614166D01*
X483085Y614381D01*
X483634Y614748D01*
X484500Y614906D01*
X485366Y614748D01*
X485915Y614381D01*
X487000Y614166D01*
X487895Y614344D01*
X488458Y614103D01*
X489165Y613576D01*
Y610000D01*
X489381Y608915D01*
X489996Y607996D01*
X501665Y596326D01*
Y575954D01*
X490496Y564784D01*
X489881Y563865D01*
X489665Y562780D01*
Y556500D01*
X489881Y555415D01*
X490496Y554496D01*
X507165Y537826D01*
Y462096D01*
X506355Y461990D01*
X503611Y460853D01*
X501255Y459045D01*
X499447Y456689D01*
X498310Y453945D01*
X497923Y451000D01*
X498310Y448055D01*
X499447Y445311D01*
X501255Y442955D01*
X503611Y441147D01*
X506355Y440010D01*
X509300Y439623D01*
X512245Y440010D01*
X514989Y441147D01*
X517345Y442955D01*
X519153Y445311D01*
X520290Y448055D01*
X520677Y451000D01*
X520290Y453945D01*
X519153Y456689D01*
X517345Y459045D01*
X514989Y460853D01*
X512835Y461745D01*
Y539000D01*
X512619Y540085D01*
X512004Y541004D01*
X495334Y557674D01*
Y561606D01*
X506504Y572776D01*
X507119Y573695D01*
X507334Y574780D01*
Y597500D01*
X507119Y598585D01*
X506504Y599504D01*
X494834Y611174D01*
Y613576D01*
X495542Y614103D01*
X496104Y614344D01*
X497000Y614166D01*
X498085Y614381D01*
X499004Y614996D01*
X499619Y615915D01*
X499834Y617000D01*
Y628000D01*
Y632725D01*
X499780Y633000D01*
X499619Y633810D01*
X499004Y634730D01*
X492229Y641504D01*
X491310Y642119D01*
X490225Y642335D01*
X488162D01*
X487780Y642590D01*
X486500Y642844D01*
D02*
G37*
G36*
X595750Y671135D02*
X587250D01*
X586270Y670730D01*
X585864Y669750D01*
Y668864D01*
X560088D01*
X559730Y669730D01*
X558750Y670135D01*
X550250D01*
X549270Y669730D01*
X548865Y668750D01*
Y660250D01*
X549270Y659270D01*
X550250Y658865D01*
X558750D01*
X559730Y659270D01*
X560088Y660136D01*
X586594D01*
X587136Y659912D01*
Y653500D01*
X587468Y651830D01*
X588414Y650414D01*
X596414Y642414D01*
X597830Y641468D01*
X599500Y641136D01*
X601912D01*
X602270Y640270D01*
X603250Y639865D01*
X611750D01*
X612730Y640270D01*
X613004Y640325D01*
X618559Y634770D01*
X618010Y633445D01*
X617623Y630500D01*
X618010Y627555D01*
X619147Y624811D01*
X620955Y622455D01*
X623311Y620647D01*
X626055Y619510D01*
X629000Y619123D01*
X631945Y619510D01*
X634689Y620647D01*
X637045Y622455D01*
X638853Y624811D01*
X639402Y626136D01*
X683598D01*
X684147Y624811D01*
X685955Y622455D01*
X688311Y620647D01*
X691055Y619510D01*
X694000Y619123D01*
X696945Y619510D01*
X699689Y620647D01*
X702045Y622455D01*
X703853Y624811D01*
X704990Y627555D01*
X705377Y630500D01*
X704990Y633445D01*
X703853Y636189D01*
X702045Y638545D01*
X699689Y640353D01*
X696945Y641490D01*
X694000Y641877D01*
X691055Y641490D01*
X688311Y640353D01*
X685955Y638545D01*
X684147Y636189D01*
X683598Y634864D01*
X639402D01*
X638853Y636189D01*
X637045Y638545D01*
X634689Y640353D01*
X631945Y641490D01*
X629000Y641877D01*
X626055Y641490D01*
X624730Y640941D01*
X617086Y648586D01*
X615670Y649532D01*
X614000Y649864D01*
X613088D01*
X612730Y650730D01*
X611750Y651135D01*
X603250D01*
X602270Y650730D01*
X602245Y650668D01*
X600763Y650409D01*
X595864Y655308D01*
Y659912D01*
X596730Y660270D01*
X597136Y661250D01*
Y669750D01*
X596730Y670730D01*
X595750Y671135D01*
D02*
G37*
G36*
X699000Y800354D02*
X696005Y800059D01*
X693124Y799185D01*
X690470Y797766D01*
X688143Y795857D01*
X686234Y793530D01*
X684815Y790876D01*
X683941Y787995D01*
X683646Y785000D01*
X683941Y782005D01*
X684815Y779124D01*
X686234Y776470D01*
X688143Y774143D01*
X690470Y772234D01*
X693124Y770815D01*
X696005Y769941D01*
X699000Y769646D01*
X701995Y769941D01*
X704876Y770815D01*
X707530Y772234D01*
X709857Y774143D01*
X711766Y776470D01*
X713185Y779124D01*
X714059Y782005D01*
X714354Y785000D01*
X714059Y787995D01*
X713185Y790876D01*
X711766Y793530D01*
X709857Y795857D01*
X707530Y797766D01*
X704876Y799185D01*
X701995Y800059D01*
X699000Y800354D01*
D02*
G37*
G36*
X540000Y725364D02*
X538330Y725032D01*
X536914Y724086D01*
X535968Y722670D01*
X535636Y721000D01*
X535968Y719330D01*
X536136Y719079D01*
Y713338D01*
X535270Y712980D01*
X534865Y712000D01*
Y703500D01*
X535270Y702520D01*
X536250Y702115D01*
X544750D01*
X545730Y702520D01*
X546135Y703500D01*
Y712000D01*
X545730Y712980D01*
X544864Y713338D01*
Y720500D01*
X544532Y722170D01*
X543586Y723586D01*
X543086Y724086D01*
X541670Y725032D01*
X540000Y725364D01*
D02*
G37*
G36*
X694000Y761377D02*
X691055Y760990D01*
X688311Y759853D01*
X685955Y758045D01*
X684147Y755689D01*
X684020Y755384D01*
X638979D01*
X638853Y755689D01*
X637045Y758045D01*
X634689Y759853D01*
X631945Y760990D01*
X629000Y761377D01*
X626055Y760990D01*
X623311Y759853D01*
X620955Y758045D01*
X619147Y755689D01*
X618010Y752945D01*
X617623Y750000D01*
X618010Y747055D01*
X619147Y744311D01*
X620146Y743009D01*
X616520Y739383D01*
X613358D01*
X612750Y739635D01*
X604250D01*
X603270Y739230D01*
X603123Y738874D01*
X582269D01*
X574874Y746269D01*
Y748000D01*
X574503Y749865D01*
X573446Y751446D01*
X571865Y752503D01*
X570000Y752874D01*
X568135Y752503D01*
X566554Y751446D01*
X565497Y749865D01*
X565126Y748000D01*
Y744250D01*
X565497Y742385D01*
X566554Y740804D01*
X576804Y730554D01*
X578385Y729497D01*
X580250Y729126D01*
X603123D01*
X603270Y728770D01*
X604250Y728365D01*
X612750D01*
X613358Y728617D01*
X618750D01*
X620810Y729026D01*
X622557Y730193D01*
X631287Y738924D01*
X631945Y739010D01*
X634689Y740147D01*
X637045Y741955D01*
X638853Y744311D01*
X638979Y744617D01*
X684020D01*
X684147Y744311D01*
X685955Y741955D01*
X688311Y740147D01*
X691055Y739010D01*
X694000Y738623D01*
X696945Y739010D01*
X699689Y740147D01*
X702045Y741955D01*
X703853Y744311D01*
X704990Y747055D01*
X705377Y750000D01*
X704990Y752945D01*
X703853Y755689D01*
X702045Y758045D01*
X699689Y759853D01*
X696945Y760990D01*
X694000Y761377D01*
D02*
G37*
G36*
X590500Y634883D02*
X588440Y634474D01*
X586693Y633307D01*
X585526Y631560D01*
X585117Y629500D01*
Y604359D01*
X584865Y603750D01*
Y595250D01*
X585270Y594270D01*
X586250Y593865D01*
X594750D01*
X595730Y594270D01*
X596135Y595250D01*
Y603750D01*
X595883Y604359D01*
Y629500D01*
X595474Y631560D01*
X594307Y633307D01*
X592560Y634474D01*
X590500Y634883D01*
D02*
G37*
G36*
X439000Y465354D02*
X436005Y465059D01*
X433124Y464185D01*
X430470Y462766D01*
X428143Y460857D01*
X426234Y458530D01*
X424815Y455876D01*
X423941Y452995D01*
X423646Y450000D01*
X423941Y447005D01*
X424815Y444124D01*
X426234Y441470D01*
X428143Y439143D01*
X430470Y437234D01*
X433124Y435815D01*
X436005Y434941D01*
X439000Y434646D01*
X441995Y434941D01*
X444876Y435815D01*
X447530Y437234D01*
X449857Y439143D01*
X451766Y441470D01*
X453185Y444124D01*
X454059Y447005D01*
X454354Y450000D01*
X454059Y452995D01*
X453185Y455876D01*
X451766Y458530D01*
X449857Y460857D01*
X447530Y462766D01*
X444876Y464185D01*
X441995Y465059D01*
X439000Y465354D01*
D02*
G37*
G36*
X699000D02*
X696005Y465059D01*
X693124Y464185D01*
X690470Y462766D01*
X688143Y460857D01*
X686234Y458530D01*
X684815Y455876D01*
X683941Y452995D01*
X683646Y450000D01*
X683941Y447005D01*
X684815Y444124D01*
X686234Y441470D01*
X688143Y439143D01*
X690470Y437234D01*
X693124Y435815D01*
X696005Y434941D01*
X699000Y434646D01*
X701995Y434941D01*
X704876Y435815D01*
X707530Y437234D01*
X709857Y439143D01*
X711766Y441470D01*
X713185Y444124D01*
X714059Y447005D01*
X714354Y450000D01*
X714059Y452995D01*
X713185Y455876D01*
X711766Y458530D01*
X709857Y460857D01*
X707530Y462766D01*
X704876Y464185D01*
X701995Y465059D01*
X699000Y465354D01*
D02*
G37*
G36*
X558750Y655135D02*
X550250D01*
X549270Y654730D01*
X548865Y653750D01*
Y645250D01*
X549270Y644270D01*
X550250Y643865D01*
X558750D01*
X559730Y644270D01*
X560088Y645136D01*
X566692D01*
X568136Y643692D01*
Y595500D01*
X568468Y593830D01*
X569414Y592414D01*
X579414Y582414D01*
X580830Y581468D01*
X582500Y581136D01*
X584912D01*
X585270Y580270D01*
X586136Y579912D01*
Y579500D01*
X586468Y577830D01*
X587414Y576414D01*
X595414Y568414D01*
X596830Y567468D01*
X598500Y567136D01*
X601912D01*
X602270Y566270D01*
X603250Y565864D01*
X611750D01*
X612608Y566220D01*
X618559Y560270D01*
X618010Y558945D01*
X617623Y556000D01*
X618010Y553055D01*
X619147Y550311D01*
X620955Y547955D01*
X623311Y546147D01*
X626055Y545010D01*
X629000Y544623D01*
X631945Y545010D01*
X634689Y546147D01*
X637045Y547955D01*
X638853Y550311D01*
X639402Y551636D01*
X683598D01*
X684147Y550311D01*
X685955Y547955D01*
X688311Y546147D01*
X691055Y545010D01*
X694000Y544623D01*
X696945Y545010D01*
X699689Y546147D01*
X702045Y547955D01*
X703853Y550311D01*
X704990Y553055D01*
X705377Y556000D01*
X704990Y558945D01*
X703853Y561689D01*
X702045Y564045D01*
X699689Y565853D01*
X696945Y566990D01*
X694000Y567377D01*
X691055Y566990D01*
X688311Y565853D01*
X685955Y564045D01*
X684147Y561689D01*
X683598Y560364D01*
X639402D01*
X638853Y561689D01*
X637045Y564045D01*
X634689Y565853D01*
X631945Y566990D01*
X629000Y567377D01*
X626055Y566990D01*
X624730Y566441D01*
X616086Y575086D01*
X614670Y576032D01*
X613000Y576364D01*
X612881D01*
X612730Y576730D01*
X611750Y577136D01*
X603250D01*
X602270Y576730D01*
X601912Y575864D01*
X600308D01*
X595780Y580392D01*
X596135Y581250D01*
Y589750D01*
X595730Y590730D01*
X594750Y591135D01*
X586250D01*
X585270Y590730D01*
X585245Y590668D01*
X583763Y590409D01*
X576864Y597308D01*
Y645500D01*
X576532Y647170D01*
X575586Y648586D01*
X571586Y652586D01*
X570170Y653532D01*
X568500Y653864D01*
X560088D01*
X559730Y654730D01*
X558750Y655135D01*
D02*
G37*
G36*
X570100Y462385D02*
X550100D01*
X549120Y461980D01*
X548714Y461000D01*
Y441000D01*
X549120Y440020D01*
X550100Y439614D01*
X570100D01*
X571080Y440020D01*
X571485Y441000D01*
Y461000D01*
X571080Y461980D01*
X570100Y462385D01*
D02*
G37*
G36*
X558750Y640135D02*
X550250D01*
X549270Y639730D01*
X548865Y638750D01*
Y630250D01*
X549270Y629270D01*
X550136Y628912D01*
Y593500D01*
X550468Y591830D01*
X551414Y590414D01*
X575136Y566693D01*
Y518500D01*
X575468Y516830D01*
X576414Y515414D01*
X579414Y512414D01*
X580830Y511468D01*
X582500Y511136D01*
X584912D01*
X585270Y510270D01*
X586136Y509912D01*
Y508500D01*
X586468Y506830D01*
X587414Y505414D01*
X598914Y493914D01*
X600330Y492968D01*
X602000Y492636D01*
X602119D01*
X602270Y492270D01*
X603250Y491865D01*
X611750D01*
X612255Y492074D01*
X618559Y485770D01*
X618010Y484445D01*
X617623Y481500D01*
X618010Y478555D01*
X619147Y475811D01*
X620955Y473455D01*
X623311Y471647D01*
X626055Y470510D01*
X629000Y470123D01*
X631945Y470510D01*
X634689Y471647D01*
X637045Y473455D01*
X638853Y475811D01*
X639402Y477136D01*
X683598D01*
X684147Y475811D01*
X685955Y473455D01*
X688311Y471647D01*
X691055Y470510D01*
X694000Y470123D01*
X696945Y470510D01*
X699689Y471647D01*
X702045Y473455D01*
X703853Y475811D01*
X704990Y478555D01*
X705377Y481500D01*
X704990Y484445D01*
X703853Y487189D01*
X702045Y489545D01*
X699689Y491353D01*
X696945Y492490D01*
X694000Y492877D01*
X691055Y492490D01*
X688311Y491353D01*
X685955Y489545D01*
X684147Y487189D01*
X683598Y485864D01*
X639402D01*
X638853Y487189D01*
X637045Y489545D01*
X634689Y491353D01*
X631945Y492490D01*
X629000Y492877D01*
X626055Y492490D01*
X624730Y491941D01*
X616586Y500086D01*
X615170Y501032D01*
X613500Y501364D01*
X613135D01*
Y501750D01*
X612730Y502730D01*
X611750Y503135D01*
X603250D01*
X602392Y502780D01*
X595592Y509579D01*
X595730Y510270D01*
X596135Y511250D01*
Y519750D01*
X595730Y520730D01*
X594750Y521135D01*
X586250D01*
X585270Y520730D01*
X584127Y521246D01*
X583864Y521407D01*
Y524347D01*
X585134Y524600D01*
X585270Y524270D01*
X586250Y523865D01*
X594750D01*
X595730Y524270D01*
X596135Y525250D01*
Y533750D01*
X595883Y534358D01*
Y559500D01*
X595474Y561560D01*
X594307Y563307D01*
X592560Y564474D01*
X590500Y564883D01*
X588440Y564474D01*
X586693Y563307D01*
X585526Y561560D01*
X585117Y559500D01*
X583864Y559542D01*
Y568500D01*
X583532Y570170D01*
X582586Y571586D01*
X558864Y595308D01*
Y628912D01*
X559730Y629270D01*
X560135Y630250D01*
Y638750D01*
X559730Y639730D01*
X558750Y640135D01*
D02*
G37*
G36*
X39000Y800354D02*
X36005Y800059D01*
X33124Y799185D01*
X30470Y797766D01*
X28143Y795857D01*
X26234Y793530D01*
X24815Y790876D01*
X23941Y787995D01*
X23646Y785000D01*
X23941Y782005D01*
X24815Y779124D01*
X26234Y776470D01*
X28143Y774143D01*
X30470Y772234D01*
X33124Y770815D01*
X36005Y769941D01*
X39000Y769646D01*
X41995Y769941D01*
X44876Y770815D01*
X47530Y772234D01*
X49857Y774143D01*
X51766Y776470D01*
X53185Y779124D01*
X54059Y782005D01*
X54354Y785000D01*
X54059Y787995D01*
X53185Y790876D01*
X51766Y793530D01*
X49857Y795857D01*
X47530Y797766D01*
X44876Y799185D01*
X41995Y800059D01*
X39000Y800354D01*
D02*
G37*
G36*
Y600354D02*
X36005Y600059D01*
X33124Y599185D01*
X30470Y597766D01*
X28143Y595857D01*
X26234Y593530D01*
X24815Y590876D01*
X23941Y587995D01*
X23646Y585000D01*
X23941Y582005D01*
X24815Y579124D01*
X26234Y576470D01*
X28143Y574143D01*
X30470Y572234D01*
X33124Y570815D01*
X36005Y569941D01*
X39000Y569646D01*
X41995Y569941D01*
X44876Y570815D01*
X47530Y572234D01*
X49857Y574143D01*
X51766Y576470D01*
X53185Y579124D01*
X54059Y582005D01*
X54354Y585000D01*
X54059Y587995D01*
X53185Y590876D01*
X51766Y593530D01*
X49857Y595857D01*
X47530Y597766D01*
X44876Y599185D01*
X41995Y600059D01*
X39000Y600354D01*
D02*
G37*
G36*
X717250Y242527D02*
X714305Y242140D01*
X711561Y241003D01*
X709205Y239195D01*
X707397Y236839D01*
X706320Y234239D01*
X563150D01*
X561968Y234004D01*
X560965Y233335D01*
X540220Y212589D01*
X357477D01*
X357390Y212648D01*
X356500Y212825D01*
X308500D01*
X307610Y212648D01*
X306856Y212144D01*
X306352Y211390D01*
X306175Y210500D01*
Y208500D01*
X306352Y207610D01*
X306856Y206856D01*
X307610Y206352D01*
X308500Y206175D01*
X356500D01*
X357390Y206352D01*
X357477Y206411D01*
X541500D01*
X542682Y206646D01*
X543685Y207316D01*
X564430Y228061D01*
X706320D01*
X707397Y225461D01*
X709205Y223105D01*
X711561Y221297D01*
X714305Y220160D01*
X717250Y219773D01*
X720195Y220160D01*
X722939Y221297D01*
X725295Y223105D01*
X727103Y225461D01*
X728240Y228205D01*
X728627Y231150D01*
X728240Y234095D01*
X727103Y236839D01*
X725295Y239195D01*
X722939Y241003D01*
X720195Y242140D01*
X717250Y242527D01*
D02*
G37*
G36*
X362500Y244844D02*
X361220Y244590D01*
X361220Y244589D01*
X357477D01*
X357390Y244648D01*
X356500Y244825D01*
X308500D01*
X307610Y244648D01*
X306856Y244144D01*
X306352Y243390D01*
X306175Y242500D01*
Y240500D01*
X306352Y239611D01*
X306856Y238856D01*
X307610Y238352D01*
X308500Y238175D01*
X356500D01*
X357390Y238352D01*
X357477Y238411D01*
X361220D01*
X361220Y238410D01*
X362500Y238156D01*
X363780Y238410D01*
X364865Y239135D01*
X365590Y240220D01*
X365844Y241500D01*
X365590Y242780D01*
X364865Y243865D01*
X363780Y244590D01*
X362500Y244844D01*
D02*
G37*
G36*
X727250Y344136D02*
X707250D01*
X706270Y343730D01*
X705864Y342750D01*
Y322750D01*
X706270Y321770D01*
X707250Y321365D01*
X727250D01*
X728230Y321770D01*
X728635Y322750D01*
Y342750D01*
X728230Y343730D01*
X727250Y344136D01*
D02*
G37*
G36*
X356500Y252825D02*
X308500D01*
X307610Y252648D01*
X306856Y252144D01*
X306352Y251390D01*
X306175Y250500D01*
Y248500D01*
X306352Y247610D01*
X306856Y246856D01*
X307610Y246352D01*
X308500Y246175D01*
X356500D01*
X357390Y246352D01*
X358144Y246856D01*
X358648Y247610D01*
X358825Y248500D01*
Y250500D01*
X358648Y251390D01*
X358144Y252144D01*
X357390Y252648D01*
X356500Y252825D01*
D02*
G37*
G36*
X717250Y293327D02*
X714305Y292940D01*
X711561Y291803D01*
X709205Y289995D01*
X707397Y287639D01*
X706260Y284895D01*
X705873Y281950D01*
X706260Y279005D01*
X707397Y276261D01*
X709205Y273905D01*
X711561Y272097D01*
X714305Y270960D01*
X717250Y270573D01*
X720195Y270960D01*
X722939Y272097D01*
X725295Y273905D01*
X727103Y276261D01*
X728240Y279005D01*
X728627Y281950D01*
X728240Y284895D01*
X727103Y287639D01*
X725295Y289995D01*
X722939Y291803D01*
X720195Y292940D01*
X717250Y293327D01*
D02*
G37*
G36*
Y318727D02*
X714305Y318340D01*
X711561Y317203D01*
X709205Y315395D01*
X707397Y313039D01*
X706848Y311714D01*
X548600D01*
X546930Y311382D01*
X545514Y310436D01*
X494664Y259586D01*
X493718Y258170D01*
X493386Y256500D01*
X493718Y254830D01*
X494664Y253414D01*
X496080Y252468D01*
X497750Y252136D01*
X498000D01*
X499670Y252468D01*
X501086Y253414D01*
X501589Y254168D01*
X550408Y302986D01*
X706848D01*
X707397Y301661D01*
X709205Y299305D01*
X711561Y297497D01*
X714305Y296360D01*
X717250Y295973D01*
X720195Y296360D01*
X722939Y297497D01*
X725295Y299305D01*
X727103Y301661D01*
X728240Y304405D01*
X728627Y307350D01*
X728240Y310295D01*
X727103Y313039D01*
X725295Y315395D01*
X722939Y317203D01*
X720195Y318340D01*
X717250Y318727D01*
D02*
G37*
G36*
Y267927D02*
X714305Y267540D01*
X711561Y266403D01*
X709205Y264595D01*
X707397Y262239D01*
X706320Y259639D01*
X563550D01*
X562368Y259404D01*
X561366Y258735D01*
X539220Y236589D01*
X357477D01*
X357390Y236648D01*
X356500Y236825D01*
X308500D01*
X307610Y236648D01*
X306856Y236144D01*
X306352Y235390D01*
X306175Y234500D01*
Y232500D01*
X306352Y231611D01*
X306856Y230856D01*
X307610Y230352D01*
X308500Y230175D01*
X356500D01*
X357390Y230352D01*
X357477Y230411D01*
X540500D01*
X541682Y230646D01*
X542685Y231315D01*
X564830Y253461D01*
X706320D01*
X707397Y250861D01*
X709205Y248505D01*
X711561Y246697D01*
X714305Y245560D01*
X717250Y245173D01*
X720195Y245560D01*
X722939Y246697D01*
X725295Y248505D01*
X727103Y250861D01*
X728240Y253605D01*
X728627Y256550D01*
X728240Y259495D01*
X727103Y262239D01*
X725295Y264595D01*
X722939Y266403D01*
X720195Y267540D01*
X717250Y267927D01*
D02*
G37*
G36*
Y217127D02*
X714305Y216740D01*
X711561Y215603D01*
X709205Y213795D01*
X707397Y211439D01*
X706320Y208839D01*
X565250D01*
X564068Y208604D01*
X563065Y207935D01*
X559720Y204589D01*
X357477D01*
X357390Y204648D01*
X356500Y204825D01*
X308500D01*
X307610Y204648D01*
X306856Y204144D01*
X306352Y203390D01*
X306175Y202500D01*
Y200500D01*
X306352Y199610D01*
X306856Y198856D01*
X307610Y198352D01*
X308500Y198175D01*
X356500D01*
X357390Y198352D01*
X357477Y198411D01*
X561000D01*
X562182Y198646D01*
X563185Y199315D01*
X566530Y202661D01*
X706320D01*
X707397Y200061D01*
X709205Y197705D01*
X711561Y195897D01*
X714305Y194760D01*
X717250Y194373D01*
X720195Y194760D01*
X722939Y195897D01*
X725295Y197705D01*
X727103Y200061D01*
X728240Y202805D01*
X728627Y205750D01*
X728240Y208695D01*
X727103Y211439D01*
X725295Y213795D01*
X722939Y215603D01*
X720195Y216740D01*
X717250Y217127D01*
D02*
G37*
G36*
Y191727D02*
X714305Y191340D01*
X711561Y190203D01*
X709205Y188395D01*
X707397Y186039D01*
X706260Y183295D01*
X705873Y180350D01*
X706260Y177405D01*
X707397Y174661D01*
X709205Y172305D01*
X711561Y170497D01*
X714305Y169360D01*
X714992Y169270D01*
X714909Y168000D01*
X711000D01*
X704000Y161000D01*
X705000Y160000D01*
Y148000D01*
X711000Y142000D01*
X724000D01*
Y142000D01*
X730000Y148000D01*
Y161000D01*
X723000Y168000D01*
X719591D01*
X719508Y169270D01*
X720195Y169360D01*
X722939Y170497D01*
X725295Y172305D01*
X727103Y174661D01*
X728240Y177405D01*
X728627Y180350D01*
X728240Y183295D01*
X727103Y186039D01*
X725295Y188395D01*
X722939Y190203D01*
X720195Y191340D01*
X717250Y191727D01*
D02*
G37*
G36*
X356500Y148825D02*
X308500D01*
X307610Y148648D01*
X306856Y148144D01*
X306352Y147390D01*
X306175Y146500D01*
Y144500D01*
X306352Y143610D01*
X306856Y142856D01*
X307610Y142352D01*
X308500Y142175D01*
X356500D01*
X357390Y142352D01*
X358144Y142856D01*
X358648Y143610D01*
X358825Y144500D01*
Y146500D01*
X358648Y147390D01*
X358144Y148144D01*
X357390Y148648D01*
X356500Y148825D01*
D02*
G37*
G36*
X198000Y38354D02*
X195005Y38059D01*
X192124Y37185D01*
X189470Y35766D01*
X187143Y33857D01*
X185234Y31530D01*
X183815Y28876D01*
X182941Y25995D01*
X182646Y23000D01*
X182941Y20005D01*
X183815Y17124D01*
X185234Y14470D01*
X187143Y12143D01*
X189470Y10234D01*
X192124Y8815D01*
X195005Y7941D01*
X198000Y7646D01*
X200995Y7941D01*
X203876Y8815D01*
X206530Y10234D01*
X208857Y12143D01*
X210766Y14470D01*
X212185Y17124D01*
X213059Y20005D01*
X213354Y23000D01*
X213059Y25995D01*
X212185Y28876D01*
X210766Y31530D01*
X208857Y33857D01*
X206530Y35766D01*
X203876Y37185D01*
X200995Y38059D01*
X198000Y38354D01*
D02*
G37*
G36*
X715000D02*
X712005Y38059D01*
X709124Y37185D01*
X706470Y35766D01*
X704143Y33857D01*
X702234Y31530D01*
X700815Y28876D01*
X699941Y25995D01*
X699646Y23000D01*
X699941Y20005D01*
X700815Y17124D01*
X702234Y14470D01*
X704143Y12143D01*
X706470Y10234D01*
X709124Y8815D01*
X712005Y7941D01*
X715000Y7646D01*
X717995Y7941D01*
X720876Y8815D01*
X723530Y10234D01*
X725857Y12143D01*
X727766Y14470D01*
X729185Y17124D01*
X730059Y20005D01*
X730354Y23000D01*
X730059Y25995D01*
X729185Y28876D01*
X727766Y31530D01*
X725857Y33857D01*
X723530Y35766D01*
X720876Y37185D01*
X717995Y38059D01*
X715000Y38354D01*
D02*
G37*
G36*
X362250Y164844D02*
X360970Y164590D01*
X360970Y164589D01*
X357477D01*
X357390Y164648D01*
X356500Y164825D01*
X308500D01*
X307610Y164648D01*
X306856Y164144D01*
X306352Y163390D01*
X306175Y162500D01*
Y160500D01*
X306352Y159610D01*
X306856Y158856D01*
X307610Y158352D01*
X308500Y158175D01*
X356500D01*
X357390Y158352D01*
X357477Y158411D01*
X360372D01*
X360822Y157141D01*
X360451Y156839D01*
X332750D01*
X332676Y156825D01*
X308500D01*
X307610Y156648D01*
X306856Y156144D01*
X306352Y155390D01*
X306175Y154500D01*
Y152500D01*
X306352Y151610D01*
X306856Y150856D01*
X307610Y150352D01*
X308500Y150175D01*
X356500D01*
X357390Y150352D01*
X357851Y150661D01*
X360970D01*
X360970Y150660D01*
X362250Y150406D01*
X363530Y150660D01*
X364615Y151385D01*
X365340Y152470D01*
X365594Y153750D01*
X365340Y155030D01*
X364615Y156115D01*
X363530Y156840D01*
X362926Y156960D01*
X362837Y156978D01*
Y157524D01*
X362837D01*
Y158272D01*
X362926Y158290D01*
X363530Y158410D01*
X364615Y159135D01*
X365340Y160220D01*
X365594Y161500D01*
X365340Y162780D01*
X364615Y163865D01*
X363530Y164590D01*
X362250Y164844D01*
D02*
G37*
G36*
X399250Y188844D02*
X397970Y188590D01*
X397970Y188589D01*
X357477D01*
X357390Y188648D01*
X356500Y188825D01*
X308500D01*
X307610Y188648D01*
X306856Y188144D01*
X306352Y187390D01*
X306175Y186500D01*
Y184500D01*
X306352Y183610D01*
X306856Y182856D01*
X307610Y182352D01*
X308500Y182175D01*
X356500D01*
X357390Y182352D01*
X357477Y182411D01*
X397970D01*
X397970Y182410D01*
X399250Y182156D01*
X400530Y182410D01*
X401615Y183135D01*
X402340Y184220D01*
X402594Y185500D01*
X402340Y186780D01*
X401615Y187865D01*
X400530Y188590D01*
X399250Y188844D01*
D02*
G37*
G36*
X394500Y196844D02*
X393220Y196590D01*
X393220Y196589D01*
X357477D01*
X357390Y196648D01*
X356500Y196825D01*
X308500D01*
X307610Y196648D01*
X306856Y196144D01*
X306352Y195390D01*
X306175Y194500D01*
Y192500D01*
X306352Y191610D01*
X306856Y190856D01*
X307610Y190352D01*
X308500Y190175D01*
X356500D01*
X357390Y190352D01*
X357477Y190411D01*
X393220D01*
X393220Y190410D01*
X394500Y190156D01*
X395780Y190410D01*
X396865Y191135D01*
X397590Y192220D01*
X397844Y193500D01*
X397590Y194780D01*
X396865Y195865D01*
X395780Y196590D01*
X394500Y196844D01*
D02*
G37*
G36*
X369000Y172844D02*
X367720Y172590D01*
X367720Y172589D01*
X357477D01*
X357390Y172648D01*
X356500Y172825D01*
X308500D01*
X307610Y172648D01*
X306856Y172144D01*
X306352Y171390D01*
X306175Y170500D01*
Y168500D01*
X306352Y167610D01*
X306856Y166856D01*
X307610Y166352D01*
X308500Y166175D01*
X356500D01*
X357390Y166352D01*
X357477Y166411D01*
X367720D01*
X367720Y166410D01*
X369000Y166156D01*
X370280Y166410D01*
X371365Y167135D01*
X372090Y168220D01*
X372344Y169500D01*
X372090Y170780D01*
X371365Y171865D01*
X370280Y172590D01*
X369000Y172844D01*
D02*
G37*
G36*
X362250Y180844D02*
X360970Y180590D01*
X360970Y180589D01*
X357477D01*
X357390Y180648D01*
X356500Y180825D01*
X308500D01*
X307610Y180648D01*
X306856Y180144D01*
X306352Y179390D01*
X306175Y178500D01*
Y176500D01*
X306352Y175610D01*
X306856Y174856D01*
X307610Y174352D01*
X308500Y174175D01*
X356500D01*
X357390Y174352D01*
X357477Y174411D01*
X360970D01*
X360970Y174410D01*
X362250Y174156D01*
X363530Y174410D01*
X364615Y175135D01*
X365340Y176220D01*
X365594Y177500D01*
X365340Y178780D01*
X364615Y179865D01*
X363530Y180590D01*
X362250Y180844D01*
D02*
G37*
G36*
X198000Y382354D02*
X195005Y382059D01*
X192124Y381185D01*
X189470Y379766D01*
X187143Y377857D01*
X185234Y375530D01*
X183815Y372876D01*
X182941Y369995D01*
X182646Y367000D01*
X182941Y364005D01*
X183815Y361124D01*
X185234Y358470D01*
X187143Y356143D01*
X189470Y354234D01*
X192124Y352815D01*
X195005Y351941D01*
X198000Y351646D01*
X200995Y351941D01*
X203876Y352815D01*
X206530Y354234D01*
X208857Y356143D01*
X210766Y358470D01*
X212185Y361124D01*
X213059Y364005D01*
X213354Y367000D01*
X213059Y369995D01*
X212185Y372876D01*
X210766Y375530D01*
X208857Y377857D01*
X206530Y379766D01*
X203876Y381185D01*
X200995Y382059D01*
X198000Y382354D01*
D02*
G37*
G36*
X715000D02*
X712005Y382059D01*
X709124Y381185D01*
X706470Y379766D01*
X704143Y377857D01*
X702234Y375530D01*
X700815Y372876D01*
X699941Y369995D01*
X699646Y367000D01*
X699941Y364005D01*
X700815Y361124D01*
X702234Y358470D01*
X704143Y356143D01*
X706470Y354234D01*
X709124Y352815D01*
X712005Y351941D01*
X715000Y351646D01*
X717995Y351941D01*
X720876Y352815D01*
X723530Y354234D01*
X725857Y356143D01*
X727766Y358470D01*
X729185Y361124D01*
X730059Y364005D01*
X730354Y367000D01*
X730059Y369995D01*
X729185Y372876D01*
X727766Y375530D01*
X725857Y377857D01*
X723530Y379766D01*
X720876Y381185D01*
X717995Y382059D01*
X715000Y382354D01*
D02*
G37*
%LPD*%
D10*
X607500Y511500D02*
D03*
Y497500D02*
D03*
X431500Y757500D02*
D03*
Y743500D02*
D03*
X608500Y734000D02*
D03*
Y720000D02*
D03*
X540500Y707750D02*
D03*
Y693750D02*
D03*
X238500Y792500D02*
D03*
Y806500D02*
D03*
X591500Y679500D02*
D03*
Y665500D02*
D03*
X590500Y599500D02*
D03*
Y585500D02*
D03*
X388500Y634500D02*
D03*
Y648500D02*
D03*
X590500Y529500D02*
D03*
Y515500D02*
D03*
X388500Y619500D02*
D03*
Y605500D02*
D03*
X89000Y658000D02*
D03*
Y672000D02*
D03*
X212000Y739000D02*
D03*
Y753000D02*
D03*
X607500Y659500D02*
D03*
Y645500D02*
D03*
X607500Y585500D02*
D03*
Y571500D02*
D03*
X404500Y634500D02*
D03*
Y648500D02*
D03*
X420500Y585500D02*
D03*
Y571500D02*
D03*
D11*
X332500Y249500D02*
D03*
Y241500D02*
D03*
Y233500D02*
D03*
Y225500D02*
D03*
Y217500D02*
D03*
Y209500D02*
D03*
Y201500D02*
D03*
Y193500D02*
D03*
Y185500D02*
D03*
Y177500D02*
D03*
Y169500D02*
D03*
Y161500D02*
D03*
Y153500D02*
D03*
Y145500D02*
D03*
D03*
Y153500D02*
D03*
Y161500D02*
D03*
Y169500D02*
D03*
Y177500D02*
D03*
Y185500D02*
D03*
Y193500D02*
D03*
Y201500D02*
D03*
Y209500D02*
D03*
Y217500D02*
D03*
Y225500D02*
D03*
Y233500D02*
D03*
Y241500D02*
D03*
Y249500D02*
D03*
D12*
X555500Y693750D02*
D03*
X569500D02*
D03*
X145250Y769000D02*
D03*
X131250D02*
D03*
X132000Y681000D02*
D03*
X118000D02*
D03*
X102000Y769000D02*
D03*
X116000D02*
D03*
X554500Y664500D02*
D03*
X540500D02*
D03*
X554500Y649500D02*
D03*
X540500D02*
D03*
X267250Y792500D02*
D03*
X253250D02*
D03*
X554500Y634500D02*
D03*
X540500D02*
D03*
X477500Y734500D02*
D03*
X463500D02*
D03*
D13*
X229000Y740750D02*
D03*
X248000D02*
D03*
X238500Y764750D02*
D03*
X229000D02*
D03*
X248000D02*
D03*
D14*
X11500Y652500D02*
D03*
Y675000D02*
D03*
D15*
Y623750D02*
D03*
Y703750D02*
D03*
D16*
X37000Y632750D02*
D03*
Y694750D02*
D03*
D17*
X38000Y650750D02*
D03*
Y657250D02*
D03*
Y663750D02*
D03*
Y670250D02*
D03*
Y676750D02*
D03*
D18*
X497500Y729690D02*
D03*
Y737310D02*
D03*
D19*
X474690Y769500D02*
D03*
X482310D02*
D03*
D20*
X117750Y752500D02*
D03*
X130250D02*
D03*
X142750D02*
D03*
X105250D02*
D03*
X142750Y697500D02*
D03*
X105250D02*
D03*
X117750D02*
D03*
X130250D02*
D03*
D21*
X447000Y706500D02*
D03*
X452000D02*
D03*
X457000D02*
D03*
X462000D02*
D03*
X467000D02*
D03*
X472000D02*
D03*
X477000D02*
D03*
X482000D02*
D03*
X487000D02*
D03*
X492000D02*
D03*
X502000D02*
D03*
X497000D02*
D03*
X502000Y622500D02*
D03*
X497000D02*
D03*
X492000D02*
D03*
X487000D02*
D03*
X482000D02*
D03*
X477000D02*
D03*
X472000D02*
D03*
X467000D02*
D03*
X462000D02*
D03*
X457000D02*
D03*
X447000D02*
D03*
X452000D02*
D03*
D22*
X432500Y637000D02*
D03*
Y642000D02*
D03*
Y647000D02*
D03*
Y652000D02*
D03*
Y657000D02*
D03*
Y662000D02*
D03*
Y667000D02*
D03*
Y672000D02*
D03*
Y677000D02*
D03*
Y682000D02*
D03*
Y692000D02*
D03*
Y687000D02*
D03*
X516500Y692000D02*
D03*
Y687000D02*
D03*
Y682000D02*
D03*
Y677000D02*
D03*
Y672000D02*
D03*
Y667000D02*
D03*
Y662000D02*
D03*
Y657000D02*
D03*
Y652000D02*
D03*
Y647000D02*
D03*
Y637000D02*
D03*
Y642000D02*
D03*
D23*
X466500Y559500D02*
D03*
Y543500D02*
D03*
Y551500D02*
D03*
Y567500D02*
D03*
Y575500D02*
D03*
Y583500D02*
D03*
X444500Y543500D02*
D03*
Y551500D02*
D03*
Y559500D02*
D03*
Y567500D02*
D03*
Y575500D02*
D03*
Y583500D02*
D03*
D24*
X455500Y584500D02*
D03*
Y542500D02*
D03*
D25*
X368000Y591000D02*
D03*
Y623000D02*
D03*
X70000Y680000D02*
D03*
Y648000D02*
D03*
X193000Y752000D02*
D03*
Y720000D02*
D03*
D26*
X465500Y753500D02*
D03*
X497500D02*
D03*
D27*
X309500Y225500D02*
X355250D01*
X629000Y675500D02*
X694000D01*
X497750Y256500D02*
X548600Y307350D01*
X717250D01*
X602000Y497000D02*
X613500D01*
X607500Y585500D02*
Y586500D01*
X622000Y601000D02*
X629000D01*
X607500Y586500D02*
X622000Y601000D01*
X607000Y572000D02*
X613000D01*
X606500Y571500D02*
X607000Y572000D01*
X598500Y571500D02*
X606500D01*
X613000Y572000D02*
X629000Y556000D01*
X613500Y511000D02*
X629000Y526500D01*
X612000Y511000D02*
X613500D01*
X613500Y497000D02*
X629000Y481500D01*
X590500Y508500D02*
X602000Y497000D01*
X629000Y481500D02*
X694000D01*
X629000Y526500D02*
X694000D01*
X629000Y556000D02*
X694000D01*
X629000Y601000D02*
X694000D01*
X301500Y217500D02*
X309500Y225500D01*
X301500Y217500D02*
X301500D01*
X304250D01*
X296000Y212000D02*
X301500Y217500D01*
X296000Y212000D02*
X298750Y212000D01*
X304250Y217500D01*
X332500D02*
X355000D01*
X304250D02*
X332500D01*
X497750Y256500D02*
X498000D01*
X463500Y734500D02*
Y751500D01*
X465500Y753500D01*
X477500Y734500D02*
X478500D01*
X497500Y753500D01*
X554500Y664500D02*
X590500D01*
X591500Y665500D01*
Y653500D02*
Y665500D01*
Y653500D02*
X599500Y645500D01*
X607500D01*
X554500Y649500D02*
X568500D01*
X572500Y645500D01*
Y595500D02*
Y645500D01*
X607500Y659500D02*
X613000D01*
X629000Y675500D01*
X607500Y645500D02*
X614000D01*
X629000Y630500D01*
X694000D01*
X590500Y579500D02*
X598500Y571500D01*
X590500Y579500D02*
Y585500D01*
X572500Y595500D02*
X582500Y585500D01*
X590500D01*
X554500Y593500D02*
Y634500D01*
Y593500D02*
X579500Y568500D01*
Y518500D02*
Y568500D01*
Y518500D02*
X582500Y515500D01*
X590500D01*
Y508500D02*
Y515500D01*
X229000Y764750D02*
Y800250D01*
X235250Y806500D01*
X238500D01*
X540500Y707750D02*
Y720500D01*
X540000Y721000D02*
X540500Y720500D01*
X238500Y806500D02*
X332500D01*
D28*
X328250Y177500D02*
X362250D01*
X328250Y161500D02*
X362250D01*
X563150Y231150D02*
X717250D01*
X541500Y209500D02*
X563150Y231150D01*
X563550Y256550D02*
X717250D01*
X540500Y233500D02*
X563550Y256550D01*
X332500Y185500D02*
X399250D01*
X333000Y193500D02*
X394500D01*
X332500Y153500D02*
X332750Y153750D01*
X565250Y205750D02*
X717250D01*
X332500Y169500D02*
X369000D01*
X332750Y241500D02*
X362500D01*
X332750Y241494D02*
X332750Y241500D01*
X332710Y241408D02*
Y241408D01*
X332750Y241500D01*
X332500Y233500D02*
X540500D01*
X332500Y201500D02*
X561000D01*
X565250Y205750D01*
X332250Y185500D02*
X332500D01*
X332750Y153750D02*
X362250D01*
X332500Y209500D02*
X541500D01*
D29*
X502000Y451000D02*
X510000Y459000D01*
X408500Y620500D02*
Y626500D01*
X527400Y451000D02*
Y490600D01*
X523000Y495000D02*
Y636000D01*
X522000Y637000D02*
X523000Y636000D01*
X516500Y637000D02*
X522000D01*
X523000Y495000D02*
X527400Y490600D01*
X492500Y556500D02*
X510000Y539000D01*
Y459000D02*
Y539000D01*
X353500Y721500D02*
X383000Y692000D01*
X317500Y721500D02*
X353500D01*
X383000Y692000D02*
X432500D01*
X471500Y575500D02*
X478000Y582000D01*
X392500Y726500D02*
X442500D01*
X346700Y772300D02*
X392500Y726500D01*
X442500D02*
X452000Y717000D01*
X373000Y687000D02*
X432500D01*
X363900Y696100D02*
X373000Y687000D01*
X317500Y696100D02*
X363900D01*
X382000Y672000D02*
X432500D01*
X355300Y645300D02*
X382000Y672000D01*
X374000Y682000D02*
X432500D01*
X362700Y670700D02*
X374000Y682000D01*
X317500Y670700D02*
X362700D01*
X317500Y645300D02*
X355300D01*
X455500Y584500D02*
Y603500D01*
X466500Y583500D02*
Y607500D01*
X447000Y610000D02*
Y622500D01*
X457000Y610000D02*
Y622500D01*
X462000Y612000D02*
Y622500D01*
Y612000D02*
X466500Y607500D01*
X452000Y607000D02*
Y622500D01*
Y607000D02*
X455500Y603500D01*
X421000Y667000D02*
X432500D01*
X404500Y650500D02*
X421000Y667000D01*
X452000Y706500D02*
Y717000D01*
X317500Y772300D02*
X346700D01*
X462000Y706500D02*
Y733000D01*
X463500Y734500D01*
X467000Y706500D02*
Y724000D01*
X477500Y734500D01*
X424000Y642000D02*
X432500D01*
X408500Y626500D02*
X424000Y642000D01*
X432500Y637000D02*
X438058Y631442D01*
X440220D01*
X492500Y556500D02*
Y562780D01*
X504500Y574780D01*
X502000Y622500D02*
Y633778D01*
X497000Y622500D02*
Y632725D01*
X486500Y639500D02*
X490225D01*
X497000Y632725D01*
X502000Y693778D02*
Y706500D01*
X503778Y692000D02*
X516500D01*
X502000Y693778D02*
X502278Y693500D01*
X516500Y667000D02*
X538000D01*
X540500Y664500D01*
X516500Y657000D02*
X523053D01*
X528500Y651553D01*
Y646500D02*
Y651553D01*
Y646500D02*
X540500Y634500D01*
X516500Y662000D02*
X526000D01*
X538500Y649500D01*
X540500D01*
X492000Y610000D02*
Y622500D01*
Y610000D02*
X504500Y597500D01*
Y574780D02*
Y597500D01*
X500500Y677500D02*
X506720Y683720D01*
Y683773D01*
X510000Y687000D02*
X516500D01*
X506720Y683773D02*
X509227Y686280D01*
X509280D01*
X510000Y687000D01*
X516500Y682000D02*
X533250D01*
X540500Y689250D01*
Y693750D01*
X457000Y706500D02*
Y721000D01*
X434500Y743500D02*
X457000Y721000D01*
X431500Y743500D02*
X434500D01*
X538750Y677000D02*
X555500Y693750D01*
X516500Y677000D02*
X538750D01*
D30*
X224000Y727500D02*
X233000D01*
X223500D02*
X224000D01*
X212000Y739000D02*
X223500Y727500D01*
X65000Y648000D02*
X75000Y658000D01*
X368500Y589500D02*
X384500Y605500D01*
X363000Y589500D02*
X368500D01*
X314000Y594000D02*
X318000Y590000D01*
X474389Y665611D02*
X504220Y635780D01*
Y634192D02*
Y635780D01*
Y634192D02*
X507558Y630854D01*
Y607442D02*
Y630854D01*
X629000Y750000D02*
X694000D01*
X193000Y753000D02*
X212000D01*
X99750Y747000D02*
X142750Y704000D01*
X86000Y672000D02*
Y733250D01*
X65000Y680000D02*
Y721300D01*
Y680000D02*
X73000Y672000D01*
X65000Y746700D02*
Y750000D01*
X351100Y746900D02*
X391000Y707000D01*
X444000D01*
X89000Y658000D02*
X98000D01*
X130250Y752500D02*
X131250Y753500D01*
Y769000D01*
X401500Y562500D02*
Y582500D01*
X420500Y585500D02*
X421500Y586500D01*
X404000Y622000D02*
X404500Y622500D01*
Y634500D01*
X317500Y746900D02*
X351100D01*
X371500Y648500D02*
X388500D01*
X75000Y658000D02*
X89000D01*
X73000Y672000D02*
X86000D01*
X142750Y697500D02*
Y704000D01*
X86000Y733250D02*
X99750Y747000D01*
X105250Y752500D01*
Y665250D02*
Y697500D01*
X98000Y658000D02*
X105250Y665250D01*
X117750Y681250D02*
Y697500D01*
Y681250D02*
X118000Y681000D01*
X130250Y682750D02*
Y697500D01*
Y682750D02*
X132000Y681000D01*
Y677000D02*
Y681000D01*
X113000Y658000D02*
X132000Y677000D01*
X98000Y658000D02*
X113000D01*
X116000Y754250D02*
Y769000D01*
Y754250D02*
X117750Y752500D01*
X84000Y769000D02*
X102000D01*
X65000Y750000D02*
X84000Y769000D01*
X142750Y752500D02*
X148250Y747000D01*
X168000D01*
X188000D01*
X193000Y752000D01*
X212000Y739000D02*
X212000D01*
X169600Y720000D02*
X193000D01*
X132000Y681000D02*
X145000D01*
X169600Y705600D01*
Y720000D01*
X317500Y619900D02*
X366900D01*
X368500Y621500D01*
X386500D01*
X388500Y619500D01*
Y634500D02*
X404500D01*
X384500Y605500D02*
X388500D01*
X412500Y571500D02*
X420500D01*
X401500Y582500D02*
X412500Y571500D01*
X401500Y582500D02*
Y592500D01*
X388500Y648500D02*
X404500D01*
X497500Y753500D02*
X497500Y753500D01*
Y741120D02*
Y753500D01*
X420500Y585500D02*
X420500Y585500D01*
X420500Y585500D02*
Y595500D01*
X421500Y586500D02*
X430500D01*
X398500Y595500D02*
X404278D01*
X440220Y631442D01*
X388500Y605500D02*
X398500Y595500D01*
X401500Y592500D01*
X193000Y720000D02*
X212000Y739000D01*
X590500Y599500D02*
Y629500D01*
Y529500D02*
Y559500D01*
X440220Y631442D02*
X474389Y665611D01*
X502278Y693500D01*
X431500Y757500D02*
X440500D01*
X462860Y779860D01*
X481808D01*
X485050Y776618D01*
Y770570D02*
Y776618D01*
Y770570D02*
X486120Y769500D01*
X238500Y776500D02*
Y781250D01*
Y764750D02*
Y776500D01*
Y781250D02*
Y792500D01*
X591500Y679500D02*
X591750Y679750D01*
X629000Y744250D02*
Y750000D01*
X618750Y734000D02*
X629000Y744250D01*
X608500Y734000D02*
X618750D01*
X591750Y679750D02*
Y693750D01*
X569500D02*
X591750D01*
X270000Y795250D02*
X310500D01*
X267250Y792500D02*
X270000Y795250D01*
D31*
X516500Y759500D02*
X597000D01*
X502000Y693778D02*
X516500Y708278D01*
Y759500D01*
X483900Y451000D02*
Y458300D01*
X484000Y458400D01*
X401500Y562500D02*
X484000Y480000D01*
Y458400D02*
Y480000D01*
X402000Y160750D02*
X672750D01*
X366500Y125250D02*
X402000Y160750D01*
X306250Y125250D02*
X366500D01*
X298000Y133500D02*
X306250Y125250D01*
X298000Y133500D02*
Y211250D01*
X465500Y753500D02*
Y764120D01*
X470880Y769500D01*
X486120D02*
X506500D01*
X516500Y759500D01*
X497500Y725880D02*
X497880Y725500D01*
X500500D01*
X282000Y594000D02*
X314000D01*
X317500Y594500D02*
X358000D01*
X363000Y589500D01*
X248000Y628000D02*
X282000Y594000D01*
X248000Y628000D02*
Y740750D01*
D32*
X629000Y705000D02*
X694000D01*
X570000Y744250D02*
Y748000D01*
Y744250D02*
X580250Y734000D01*
X608500D01*
X212000Y753000D02*
X242750D01*
X248000Y758250D01*
Y764750D01*
Y774000D01*
X253250Y779250D01*
Y792500D01*
X145250Y769000D02*
X182750D01*
X608500Y720000D02*
X614000D01*
X629000Y705000D01*
X555500Y693750D02*
Y707500D01*
X568000Y720000D01*
X608500D01*
X182750Y769000D02*
X230500Y816750D01*
X412000Y743500D02*
X431500D01*
X230500Y816750D02*
X338750D01*
X412000Y743500D01*
D33*
X444000Y707000D02*
X444500Y706500D01*
X447000D01*
X466500Y575500D02*
X471500D01*
X455500Y542500D02*
Y553500D01*
X446500Y609500D02*
X447000Y610000D01*
X457000Y610000D02*
X457500Y609500D01*
X404500Y648500D02*
Y650500D01*
D34*
X428003Y573000D02*
X438280Y583277D01*
X422000Y573000D02*
X428003D01*
X420500Y571500D02*
X422000Y573000D01*
X433500Y546500D02*
Y561500D01*
X423500Y571500D02*
X433500Y561500D01*
X420500Y571500D02*
X423500D01*
X436500Y543500D02*
X444500D01*
X438500Y583500D02*
X444500D01*
X438280Y583280D02*
X438500Y583500D01*
X438280Y583277D02*
Y583280D01*
X433500Y546500D02*
X436500Y543500D01*
D35*
X444500Y551500D02*
Y559500D01*
X453500D01*
X455500Y561500D01*
Y564500D01*
Y571500D01*
X451500Y575500D02*
X455500Y571500D01*
X444500Y575500D02*
X451500D01*
X40500Y676750D02*
X61750D01*
X65000Y680000D01*
X40500Y650750D02*
X62250D01*
X65000Y648000D01*
D36*
X629000Y526500D02*
D03*
Y481500D02*
D03*
X694000Y526500D02*
D03*
Y481500D02*
D03*
X629000Y601000D02*
D03*
Y556000D02*
D03*
X694000Y601000D02*
D03*
Y556000D02*
D03*
X717250Y180350D02*
D03*
Y231150D02*
D03*
Y256550D02*
D03*
Y307350D02*
D03*
Y281950D02*
D03*
Y205750D02*
D03*
Y154950D02*
D03*
X168000Y721600D02*
D03*
X66000Y721300D02*
D03*
X509300Y451000D02*
D03*
X534700D02*
D03*
X483900D02*
D03*
X629000Y750000D02*
D03*
Y705000D02*
D03*
X694000Y750000D02*
D03*
Y705000D02*
D03*
X629000Y675500D02*
D03*
Y630500D02*
D03*
X694000Y675500D02*
D03*
Y630500D02*
D03*
D37*
X717250Y332750D02*
D03*
X168000Y747000D02*
D03*
X66000Y746700D02*
D03*
D38*
X317500Y645300D02*
D03*
Y696100D02*
D03*
Y721500D02*
D03*
Y746900D02*
D03*
Y670700D02*
D03*
Y619900D02*
D03*
Y594500D02*
D03*
D39*
Y772300D02*
D03*
D40*
X560100Y451000D02*
D03*
D41*
X399250Y185500D02*
D03*
X394500Y193500D02*
D03*
X297000Y615000D02*
D03*
X292000D02*
D03*
X297000Y620000D02*
D03*
Y625000D02*
D03*
Y630000D02*
D03*
X292000Y620000D02*
D03*
Y625000D02*
D03*
Y630000D02*
D03*
X287000Y620000D02*
D03*
Y625000D02*
D03*
Y630000D02*
D03*
X224000Y713500D02*
D03*
Y718500D02*
D03*
Y723500D02*
D03*
X224000Y729000D02*
D03*
X230000D02*
D03*
X230000Y723500D02*
D03*
X236000Y718500D02*
D03*
Y723500D02*
D03*
Y713500D02*
D03*
X230000Y718500D02*
D03*
Y713500D02*
D03*
X236000Y729000D02*
D03*
X369000Y169500D02*
D03*
X362250Y177500D02*
D03*
X362250Y161500D02*
D03*
X362500Y241500D02*
D03*
X497750Y256500D02*
D03*
X362250Y153750D02*
D03*
X404000Y617000D02*
D03*
X409000D02*
D03*
X399000D02*
D03*
X404000Y622000D02*
D03*
X409000D02*
D03*
X399000D02*
D03*
X478000Y582000D02*
D03*
X455500Y564500D02*
D03*
Y553500D02*
D03*
X446500Y609500D02*
D03*
X457500D02*
D03*
X486500Y639500D02*
D03*
X500500Y677500D02*
D03*
X238500Y776500D02*
D03*
Y781250D02*
D03*
D42*
X597000Y760000D02*
D03*
X570000Y748000D02*
D03*
X672750Y160750D02*
D03*
X371500Y648500D02*
D03*
X420500Y595500D02*
D03*
X430750Y586500D02*
D03*
X507558Y607442D02*
D03*
X500500Y725500D02*
D03*
X590500Y629750D02*
D03*
Y559500D02*
D03*
X591750Y693750D02*
D03*
X540000Y721000D02*
D03*
X310500Y795250D02*
D03*
X332500Y806500D02*
D03*
X568000Y720000D02*
D03*
D43*
X715000Y367000D02*
D03*
X198000D02*
D03*
X715000Y23000D02*
D03*
X198000D02*
D03*
X699000Y450000D02*
D03*
Y785000D02*
D03*
X39000D02*
D03*
Y585000D02*
D03*
X439000Y450000D02*
D03*
M02*
