G04 Layer_Color=32896*
%FSLAX44Y44*%
%MOMM*%
G71*
G01*
G75*
%ADD45C,0.2000*%
%ADD46C,0.2500*%
G36*
X683176Y349456D02*
X683299Y349404D01*
X683370Y349316D01*
X683440Y349245D01*
X683475Y349157D01*
X683493Y349070D01*
Y349017D01*
Y348999D01*
X683475Y348841D01*
X683422Y348718D01*
X683335Y348648D01*
X683247Y348577D01*
X683176Y348542D01*
X683089Y348525D01*
X681120D01*
X680909Y348507D01*
X680716Y348454D01*
X680540Y348384D01*
X680399Y348314D01*
X680276Y348243D01*
X680188Y348173D01*
X680136Y348120D01*
X680118Y348103D01*
X679977Y347945D01*
X679872Y347769D01*
X679802Y347593D01*
X679749Y347453D01*
X679714Y347312D01*
X679696Y347206D01*
Y347119D01*
Y347101D01*
X679714Y346890D01*
X679766Y346697D01*
X679837Y346521D01*
X679907Y346363D01*
X679977Y346240D01*
X680048Y346152D01*
X680100Y346099D01*
X680118Y346082D01*
X680276Y345941D01*
X680452Y345853D01*
X680610Y345783D01*
X680768Y345730D01*
X680909Y345695D01*
X681014Y345677D01*
X682069D01*
X682227Y345660D01*
X682350Y345607D01*
X682421Y345519D01*
X682491Y345449D01*
X682526Y345361D01*
X682544Y345273D01*
Y345220D01*
Y345203D01*
X682526Y345045D01*
X682473Y344921D01*
X682385Y344851D01*
X682298Y344781D01*
X682227Y344746D01*
X682139Y344728D01*
X681120D01*
X680909Y344711D01*
X680716Y344658D01*
X680540Y344588D01*
X680399Y344517D01*
X680276Y344447D01*
X680188Y344377D01*
X680136Y344324D01*
X680118Y344306D01*
X679977Y344148D01*
X679872Y343972D01*
X679802Y343797D01*
X679749Y343656D01*
X679714Y343515D01*
X679696Y343410D01*
Y343322D01*
Y343304D01*
Y342355D01*
X679714Y342144D01*
X679766Y341951D01*
X679837Y341775D01*
X679907Y341635D01*
X679977Y341512D01*
X680048Y341424D01*
X680100Y341371D01*
X680118Y341353D01*
X680276Y341213D01*
X680452Y341125D01*
X680610Y341055D01*
X680768Y341002D01*
X680909Y340967D01*
X681014Y340949D01*
X683018D01*
X683176Y340932D01*
X683299Y340879D01*
X683370Y340791D01*
X683440Y340721D01*
X683475Y340633D01*
X683493Y340545D01*
Y340492D01*
Y340475D01*
X683475Y340316D01*
X683422Y340193D01*
X683335Y340123D01*
X683247Y340053D01*
X683176Y340018D01*
X683089Y340000D01*
X681120D01*
X680768Y340035D01*
X680452Y340106D01*
X680171Y340211D01*
X679925Y340351D01*
X679731Y340475D01*
X679573Y340580D01*
X679485Y340650D01*
X679450Y340686D01*
X679222Y340949D01*
X679046Y341230D01*
X678923Y341512D01*
X678835Y341775D01*
X678782Y342004D01*
X678765Y342197D01*
X678747Y342267D01*
Y342320D01*
Y342338D01*
Y342355D01*
Y343304D01*
X678765Y343515D01*
X678782Y343726D01*
X678888Y344095D01*
X679046Y344429D01*
X679222Y344693D01*
X679397Y344921D01*
X679556Y345080D01*
X679661Y345168D01*
X679679Y345203D01*
X679696D01*
X679520Y345343D01*
X679380Y345484D01*
X679257Y345642D01*
X679151Y345800D01*
X678976Y346117D01*
X678870Y346415D01*
X678800Y346679D01*
X678782Y346802D01*
X678765Y346908D01*
X678747Y346978D01*
Y347048D01*
Y347084D01*
Y347101D01*
X678782Y347453D01*
X678852Y347769D01*
X678976Y348050D01*
X679099Y348296D01*
X679222Y348490D01*
X679345Y348648D01*
X679415Y348736D01*
X679450Y348771D01*
X679714Y348999D01*
X679995Y349175D01*
X680276Y349298D01*
X680540Y349386D01*
X680768Y349439D01*
X680962Y349456D01*
X681032Y349474D01*
X683018D01*
X683176Y349456D01*
D02*
G37*
G36*
X687641Y194689D02*
X687764Y194636D01*
X687852Y194566D01*
X687887Y194548D01*
Y194531D01*
X689751Y192685D01*
X689821Y192579D01*
X689856Y192474D01*
X689874Y192386D01*
Y192369D01*
Y192351D01*
X689856Y192193D01*
X689803Y192070D01*
X689715Y191999D01*
X689628Y191929D01*
X689557Y191894D01*
X689469Y191876D01*
X689399D01*
X689276Y191894D01*
X689171Y191947D01*
X689100Y191999D01*
X689083Y192017D01*
X687975Y193107D01*
Y185707D01*
X687958Y185549D01*
X687905Y185443D01*
X687817Y185355D01*
X687729Y185303D01*
X687659Y185268D01*
X687571Y185250D01*
X687501D01*
X687343Y185268D01*
X687219Y185320D01*
X687149Y185391D01*
X687079Y185478D01*
X687044Y185566D01*
X687026Y185637D01*
Y185689D01*
Y185707D01*
Y194249D01*
X687044Y194408D01*
X687096Y194531D01*
X687184Y194601D01*
X687255Y194671D01*
X687343Y194706D01*
X687430Y194724D01*
X687571D01*
X687641Y194689D01*
D02*
G37*
G36*
X691701Y349456D02*
X691824Y349404D01*
X691895Y349316D01*
X691965Y349245D01*
X692000Y349157D01*
X692018Y349070D01*
Y349017D01*
Y348999D01*
X692000Y348894D01*
X691965Y348806D01*
X691947Y348736D01*
X691930Y348718D01*
X689276Y344728D01*
X691930Y340738D01*
X691982Y340650D01*
X692000Y340545D01*
X692018Y340492D01*
Y340457D01*
X692000Y340299D01*
X691947Y340193D01*
X691859Y340106D01*
X691771Y340053D01*
X691701Y340018D01*
X691613Y340000D01*
X691543D01*
X691455Y340018D01*
X691367Y340035D01*
X691244Y340106D01*
X691156Y340158D01*
X691139Y340193D01*
X688696Y343867D01*
X686252Y340193D01*
X686200Y340123D01*
X686129Y340088D01*
X685989Y340018D01*
X685883Y340000D01*
X685848D01*
X685690Y340018D01*
X685567Y340070D01*
X685497Y340141D01*
X685426Y340229D01*
X685391Y340316D01*
X685374Y340387D01*
Y340439D01*
Y340457D01*
X685391Y340563D01*
X685409Y340650D01*
X685444Y340721D01*
X685461Y340738D01*
X688115Y344728D01*
X685461Y348718D01*
X685409Y348806D01*
X685391Y348911D01*
X685374Y348982D01*
Y348999D01*
X685391Y349157D01*
X685444Y349281D01*
X685532Y349351D01*
X685602Y349421D01*
X685690Y349456D01*
X685778Y349474D01*
X685936D01*
X686024Y349439D01*
X686147Y349368D01*
X686217Y349298D01*
X686252Y349281D01*
Y349263D01*
X688696Y345589D01*
X691139Y349263D01*
X691191Y349333D01*
X691262Y349386D01*
X691385Y349456D01*
X691490Y349474D01*
X691543D01*
X691701Y349456D01*
D02*
G37*
G36*
X388591Y189879D02*
X388714Y189826D01*
X388802Y189756D01*
X388837Y189738D01*
Y189721D01*
X390700Y187875D01*
X390771Y187770D01*
X390806Y187664D01*
X390824Y187576D01*
Y187559D01*
Y187541D01*
X390806Y187383D01*
X390753Y187260D01*
X390665Y187190D01*
X390577Y187119D01*
X390507Y187084D01*
X390419Y187066D01*
X390349D01*
X390226Y187084D01*
X390120Y187137D01*
X390050Y187190D01*
X390033Y187207D01*
X388925Y188297D01*
Y180897D01*
X388908Y180739D01*
X388855Y180633D01*
X388767Y180546D01*
X388679Y180493D01*
X388609Y180458D01*
X388521Y180440D01*
X388451D01*
X388292Y180458D01*
X388169Y180510D01*
X388099Y180581D01*
X388029Y180669D01*
X387994Y180756D01*
X387976Y180827D01*
Y180879D01*
Y180897D01*
Y189439D01*
X387994Y189597D01*
X388046Y189721D01*
X388134Y189791D01*
X388204Y189861D01*
X388292Y189896D01*
X388380Y189914D01*
X388521D01*
X388591Y189879D01*
D02*
G37*
G36*
X395446D02*
X395763Y189809D01*
X396061Y189685D01*
X396290Y189562D01*
X396501Y189439D01*
X396641Y189316D01*
X396729Y189246D01*
X396764Y189211D01*
X396993Y188947D01*
X397169Y188666D01*
X397274Y188385D01*
X397362Y188121D01*
X397415Y187893D01*
X397432Y187699D01*
X397450Y187629D01*
Y187594D01*
Y187559D01*
Y187541D01*
Y182795D01*
X397415Y182444D01*
X397345Y182127D01*
X397239Y181829D01*
X397098Y181600D01*
X396975Y181389D01*
X396870Y181249D01*
X396800Y181161D01*
X396764Y181126D01*
X396501Y180897D01*
X396220Y180721D01*
X395938Y180616D01*
X395675Y180528D01*
X395446Y180475D01*
X395253Y180458D01*
X395182Y180440D01*
X393196D01*
X393038Y180458D01*
X392915Y180510D01*
X392845Y180598D01*
X392775Y180686D01*
X392739Y180756D01*
X392722Y180844D01*
Y180897D01*
Y180915D01*
X392739Y181073D01*
X392792Y181196D01*
X392880Y181266D01*
X392950Y181336D01*
X393038Y181372D01*
X393126Y181389D01*
X395095D01*
X395306Y181407D01*
X395499Y181460D01*
X395675Y181512D01*
X395815Y181600D01*
X395938Y181670D01*
X396026Y181723D01*
X396079Y181776D01*
X396096Y181793D01*
X396237Y181952D01*
X396325Y182127D01*
X396395Y182303D01*
X396448Y182461D01*
X396483Y182584D01*
X396501Y182707D01*
Y182778D01*
Y182795D01*
Y187541D01*
X396483Y187752D01*
X396431Y187945D01*
X396378Y188121D01*
X396290Y188262D01*
X396220Y188385D01*
X396167Y188473D01*
X396114Y188525D01*
X396096Y188543D01*
X395938Y188683D01*
X395763Y188789D01*
X395604Y188859D01*
X395446Y188912D01*
X395306Y188947D01*
X395200Y188965D01*
X393196D01*
X393038Y188982D01*
X392915Y189035D01*
X392845Y189123D01*
X392775Y189211D01*
X392739Y189281D01*
X392722Y189369D01*
Y189422D01*
Y189439D01*
X392739Y189597D01*
X392792Y189721D01*
X392880Y189791D01*
X392950Y189861D01*
X393038Y189896D01*
X393126Y189914D01*
X395095D01*
X395446Y189879D01*
D02*
G37*
G36*
X550201Y813456D02*
X550324Y813404D01*
X550395Y813316D01*
X550465Y813245D01*
X550500Y813158D01*
X550518Y813070D01*
Y813017D01*
Y812999D01*
X550500Y812894D01*
X550482Y812859D01*
Y812841D01*
X547670Y804352D01*
X547617Y804229D01*
X547547Y804141D01*
X547459Y804088D01*
X547389Y804053D01*
X547319Y804018D01*
X547248Y804000D01*
X547196D01*
X547072Y804018D01*
X546967Y804053D01*
X546897Y804106D01*
X546826Y804176D01*
X546739Y804299D01*
X546721Y804334D01*
Y804352D01*
X543909Y812841D01*
X543873Y812947D01*
Y812982D01*
Y812999D01*
X543891Y813158D01*
X543944Y813281D01*
X544032Y813351D01*
X544102Y813421D01*
X544190Y813456D01*
X544278Y813474D01*
X544348D01*
X544471Y813456D01*
X544559Y813421D01*
X544647Y813369D01*
X544700Y813316D01*
X544787Y813193D01*
X544805Y813158D01*
Y813140D01*
X547196Y805969D01*
X549586Y813140D01*
X549639Y813245D01*
X549709Y813333D01*
X549779Y813386D01*
X549850Y813439D01*
X549920Y813456D01*
X549990Y813474D01*
X550043D01*
X550201Y813456D01*
D02*
G37*
G36*
X541659D02*
X541782Y813404D01*
X541852Y813316D01*
X541922Y813245D01*
X541958Y813158D01*
X541975Y813070D01*
Y813017D01*
Y812999D01*
X541958Y812841D01*
X541905Y812718D01*
X541817Y812648D01*
X541729Y812578D01*
X541659Y812542D01*
X541571Y812525D01*
X539602D01*
Y804457D01*
X539585Y804299D01*
X539532Y804193D01*
X539444Y804106D01*
X539356Y804053D01*
X539286Y804018D01*
X539198Y804000D01*
X539128D01*
X538970Y804018D01*
X538847Y804070D01*
X538776Y804141D01*
X538706Y804229D01*
X538671Y804316D01*
X538653Y804387D01*
Y804439D01*
Y804457D01*
Y812525D01*
X536772D01*
X536614Y812542D01*
X536491Y812595D01*
X536421Y812683D01*
X536351Y812771D01*
X536315Y812841D01*
X536298Y812929D01*
Y812982D01*
Y812999D01*
X536315Y813158D01*
X536368Y813281D01*
X536456Y813351D01*
X536526Y813421D01*
X536614Y813456D01*
X536702Y813474D01*
X541501D01*
X541659Y813456D01*
D02*
G37*
G36*
X532167Y813439D02*
X532290Y813386D01*
X532378Y813316D01*
X532413Y813298D01*
Y813281D01*
X534277Y811435D01*
X534347Y811329D01*
X534382Y811224D01*
X534400Y811136D01*
Y811119D01*
Y811101D01*
X534382Y810943D01*
X534329Y810820D01*
X534241Y810750D01*
X534154Y810679D01*
X534083Y810644D01*
X533995Y810627D01*
X533925D01*
X533802Y810644D01*
X533697Y810697D01*
X533626Y810750D01*
X533609Y810767D01*
X532501Y811857D01*
Y804457D01*
X532484Y804299D01*
X532431Y804193D01*
X532343Y804106D01*
X532255Y804053D01*
X532185Y804018D01*
X532097Y804000D01*
X532027D01*
X531869Y804018D01*
X531745Y804070D01*
X531675Y804141D01*
X531605Y804229D01*
X531570Y804316D01*
X531552Y804387D01*
Y804439D01*
Y804457D01*
Y812999D01*
X531570Y813158D01*
X531623Y813281D01*
X531710Y813351D01*
X531781Y813421D01*
X531869Y813456D01*
X531956Y813474D01*
X532097D01*
X532167Y813439D01*
D02*
G37*
G36*
X682913Y194689D02*
X683036Y194636D01*
X683124Y194566D01*
X683159Y194548D01*
Y194531D01*
X685022Y192685D01*
X685093Y192579D01*
X685128Y192474D01*
X685145Y192386D01*
Y192369D01*
Y192351D01*
X685128Y192193D01*
X685075Y192070D01*
X684987Y191999D01*
X684899Y191929D01*
X684829Y191894D01*
X684741Y191876D01*
X684671D01*
X684548Y191894D01*
X684442Y191947D01*
X684372Y191999D01*
X684354Y192017D01*
X683247Y193107D01*
Y185707D01*
X683230Y185549D01*
X683177Y185443D01*
X683089Y185355D01*
X683001Y185303D01*
X682931Y185268D01*
X682843Y185250D01*
X682773D01*
X682614Y185268D01*
X682491Y185320D01*
X682421Y185391D01*
X682351Y185478D01*
X682316Y185566D01*
X682298Y185637D01*
Y185689D01*
Y185707D01*
Y194249D01*
X682316Y194408D01*
X682368Y194531D01*
X682456Y194601D01*
X682526Y194671D01*
X682614Y194706D01*
X682702Y194724D01*
X682843D01*
X682913Y194689D01*
D02*
G37*
G36*
X694496D02*
X694813Y194618D01*
X695111Y194495D01*
X695340Y194372D01*
X695551Y194249D01*
X695692Y194126D01*
X695779Y194056D01*
X695815Y194021D01*
X696043Y193757D01*
X696219Y193476D01*
X696324Y193195D01*
X696412Y192931D01*
X696465Y192703D01*
X696482Y192509D01*
X696500Y192439D01*
Y192404D01*
Y192369D01*
Y192351D01*
Y187605D01*
X696465Y187254D01*
X696395Y186937D01*
X696289Y186639D01*
X696149Y186410D01*
X696025Y186199D01*
X695920Y186059D01*
X695850Y185971D01*
X695815Y185935D01*
X695551Y185707D01*
X695270Y185531D01*
X694988Y185426D01*
X694725Y185338D01*
X694496Y185285D01*
X694303Y185268D01*
X694233Y185250D01*
X692246D01*
X692088Y185268D01*
X691965Y185320D01*
X691895Y185408D01*
X691825Y185496D01*
X691789Y185566D01*
X691772Y185654D01*
Y185707D01*
Y185725D01*
X691789Y185883D01*
X691842Y186006D01*
X691930Y186076D01*
X692000Y186146D01*
X692088Y186182D01*
X692176Y186199D01*
X694145D01*
X694356Y186217D01*
X694549Y186269D01*
X694725Y186322D01*
X694865Y186410D01*
X694988Y186480D01*
X695076Y186533D01*
X695129Y186586D01*
X695147Y186603D01*
X695287Y186762D01*
X695375Y186937D01*
X695445Y187113D01*
X695498Y187271D01*
X695533Y187394D01*
X695551Y187517D01*
Y187588D01*
Y187605D01*
Y192351D01*
X695533Y192562D01*
X695480Y192755D01*
X695428Y192931D01*
X695340Y193072D01*
X695270Y193195D01*
X695217Y193283D01*
X695164Y193335D01*
X695147Y193353D01*
X694988Y193493D01*
X694813Y193599D01*
X694654Y193669D01*
X694496Y193722D01*
X694356Y193757D01*
X694250Y193775D01*
X692246D01*
X692088Y193792D01*
X691965Y193845D01*
X691895Y193933D01*
X691825Y194021D01*
X691789Y194091D01*
X691772Y194179D01*
Y194232D01*
Y194249D01*
X691789Y194408D01*
X691842Y194531D01*
X691930Y194601D01*
X692000Y194671D01*
X692088Y194706D01*
X692176Y194724D01*
X694145D01*
X694496Y194689D01*
D02*
G37*
G36*
X384004Y189896D02*
X384250Y189844D01*
X384496Y189756D01*
X384707Y189650D01*
X384918Y189527D01*
X385111Y189369D01*
X385445Y189070D01*
X385586Y188895D01*
X385709Y188754D01*
X385814Y188613D01*
X385902Y188473D01*
X385972Y188367D01*
X386025Y188279D01*
X386043Y188227D01*
X386060Y188209D01*
X386095Y188139D01*
X386113Y188086D01*
Y188033D01*
Y188016D01*
X386095Y187857D01*
X386043Y187734D01*
X385955Y187664D01*
X385867Y187594D01*
X385797Y187559D01*
X385709Y187541D01*
X385638D01*
X385533Y187559D01*
X385445Y187576D01*
X385322Y187664D01*
X385234Y187734D01*
X385216Y187752D01*
Y187770D01*
X385093Y187980D01*
X384953Y188156D01*
X384830Y188332D01*
X384707Y188455D01*
X384584Y188578D01*
X384461Y188666D01*
X384232Y188824D01*
X384039Y188895D01*
X383881Y188947D01*
X383775Y188965D01*
X383740D01*
X383529Y188947D01*
X383336Y188895D01*
X383160Y188824D01*
X383019Y188754D01*
X382896Y188683D01*
X382808Y188613D01*
X382756Y188561D01*
X382738Y188543D01*
X382598Y188385D01*
X382492Y188209D01*
X382422Y188033D01*
X382369Y187893D01*
X382334Y187752D01*
X382316Y187647D01*
Y187559D01*
Y187541D01*
X382334Y187383D01*
X382351Y187242D01*
X382387Y187119D01*
X382439Y186996D01*
X382492Y186891D01*
X382527Y186820D01*
X382545Y186768D01*
X382562Y186750D01*
X386025Y181178D01*
X386078Y181090D01*
X386095Y180985D01*
X386113Y180932D01*
Y180897D01*
X386095Y180739D01*
X386043Y180633D01*
X385955Y180546D01*
X385867Y180493D01*
X385797Y180458D01*
X385709Y180440D01*
X381842D01*
X381684Y180458D01*
X381561Y180510D01*
X381490Y180598D01*
X381420Y180686D01*
X381385Y180756D01*
X381367Y180844D01*
Y180897D01*
Y180915D01*
X381385Y181073D01*
X381437Y181196D01*
X381525Y181266D01*
X381596Y181336D01*
X381684Y181372D01*
X381771Y181389D01*
X384777D01*
X381807Y186170D01*
X381666Y186434D01*
X381561Y186680D01*
X381473Y186908D01*
X381420Y187119D01*
X381385Y187295D01*
X381367Y187418D01*
Y187506D01*
Y187541D01*
X381402Y187893D01*
X381473Y188227D01*
X381596Y188508D01*
X381719Y188754D01*
X381842Y188947D01*
X381965Y189088D01*
X382035Y189176D01*
X382070Y189211D01*
X382334Y189439D01*
X382615Y189615D01*
X382896Y189738D01*
X383160Y189826D01*
X383388Y189879D01*
X383582Y189896D01*
X383652Y189914D01*
X383740D01*
X384004Y189896D01*
D02*
G37*
G36*
X573141Y758439D02*
X573264Y758386D01*
X573352Y758316D01*
X573387Y758298D01*
Y758281D01*
X575251Y756435D01*
X575321Y756329D01*
X575356Y756224D01*
X575374Y756136D01*
Y756119D01*
Y756101D01*
X575356Y755943D01*
X575303Y755820D01*
X575215Y755750D01*
X575127Y755679D01*
X575057Y755644D01*
X574969Y755627D01*
X574899D01*
X574776Y755644D01*
X574670Y755697D01*
X574600Y755750D01*
X574583Y755767D01*
X573475Y756857D01*
Y749457D01*
X573458Y749299D01*
X573405Y749193D01*
X573317Y749106D01*
X573229Y749053D01*
X573159Y749018D01*
X573071Y749000D01*
X573001D01*
X572842Y749018D01*
X572719Y749070D01*
X572649Y749141D01*
X572579Y749229D01*
X572544Y749316D01*
X572526Y749387D01*
Y749439D01*
Y749457D01*
Y757999D01*
X572544Y758158D01*
X572596Y758281D01*
X572684Y758351D01*
X572755Y758421D01*
X572842Y758456D01*
X572930Y758474D01*
X573071D01*
X573141Y758439D01*
D02*
G37*
G36*
X579996D02*
X580313Y758368D01*
X580611Y758245D01*
X580840Y758122D01*
X581051Y757999D01*
X581191Y757876D01*
X581279Y757806D01*
X581315Y757771D01*
X581543Y757507D01*
X581719Y757226D01*
X581824Y756945D01*
X581912Y756681D01*
X581965Y756453D01*
X581982Y756259D01*
X582000Y756189D01*
Y756154D01*
Y756119D01*
Y756101D01*
Y751355D01*
X581965Y751004D01*
X581894Y750687D01*
X581789Y750389D01*
X581648Y750160D01*
X581525Y749949D01*
X581420Y749809D01*
X581350Y749721D01*
X581315Y749686D01*
X581051Y749457D01*
X580770Y749281D01*
X580488Y749176D01*
X580225Y749088D01*
X579996Y749035D01*
X579803Y749018D01*
X579733Y749000D01*
X577746D01*
X577588Y749018D01*
X577465Y749070D01*
X577395Y749158D01*
X577325Y749246D01*
X577289Y749316D01*
X577272Y749404D01*
Y749457D01*
Y749475D01*
X577289Y749633D01*
X577342Y749756D01*
X577430Y749826D01*
X577500Y749896D01*
X577588Y749932D01*
X577676Y749949D01*
X579645D01*
X579856Y749967D01*
X580049Y750020D01*
X580225Y750072D01*
X580365Y750160D01*
X580488Y750230D01*
X580576Y750283D01*
X580629Y750336D01*
X580647Y750353D01*
X580787Y750512D01*
X580875Y750687D01*
X580945Y750863D01*
X580998Y751021D01*
X581033Y751144D01*
X581051Y751267D01*
Y751338D01*
Y751355D01*
Y756101D01*
X581033Y756312D01*
X580980Y756505D01*
X580928Y756681D01*
X580840Y756822D01*
X580770Y756945D01*
X580717Y757033D01*
X580664Y757085D01*
X580647Y757103D01*
X580488Y757243D01*
X580313Y757349D01*
X580154Y757419D01*
X579996Y757472D01*
X579856Y757507D01*
X579750Y757525D01*
X577746D01*
X577588Y757542D01*
X577465Y757595D01*
X577395Y757683D01*
X577325Y757771D01*
X577289Y757841D01*
X577272Y757929D01*
Y757982D01*
Y757999D01*
X577289Y758158D01*
X577342Y758281D01*
X577430Y758351D01*
X577500Y758421D01*
X577588Y758456D01*
X577676Y758474D01*
X579645D01*
X579996Y758439D01*
D02*
G37*
G36*
X550996Y742439D02*
X551313Y742368D01*
X551611Y742245D01*
X551840Y742122D01*
X552051Y741999D01*
X552192Y741876D01*
X552279Y741806D01*
X552314Y741771D01*
X552543Y741507D01*
X552719Y741226D01*
X552824Y740945D01*
X552912Y740681D01*
X552965Y740453D01*
X552982Y740259D01*
X553000Y740189D01*
Y740154D01*
Y740119D01*
Y740101D01*
Y735355D01*
X552965Y735004D01*
X552895Y734687D01*
X552789Y734389D01*
X552649Y734160D01*
X552525Y733949D01*
X552420Y733809D01*
X552350Y733721D01*
X552314Y733686D01*
X552051Y733457D01*
X551770Y733281D01*
X551488Y733176D01*
X551225Y733088D01*
X550996Y733035D01*
X550803Y733018D01*
X550733Y733000D01*
X548746D01*
X548588Y733018D01*
X548465Y733070D01*
X548395Y733158D01*
X548325Y733246D01*
X548289Y733316D01*
X548272Y733404D01*
Y733457D01*
Y733475D01*
X548289Y733633D01*
X548342Y733756D01*
X548430Y733826D01*
X548500Y733896D01*
X548588Y733932D01*
X548676Y733949D01*
X550645D01*
X550856Y733967D01*
X551049Y734019D01*
X551225Y734072D01*
X551365Y734160D01*
X551488Y734230D01*
X551576Y734283D01*
X551629Y734336D01*
X551647Y734353D01*
X551787Y734512D01*
X551875Y734687D01*
X551945Y734863D01*
X551998Y735021D01*
X552033Y735144D01*
X552051Y735267D01*
Y735338D01*
Y735355D01*
Y740101D01*
X552033Y740312D01*
X551981Y740505D01*
X551928Y740681D01*
X551840Y740822D01*
X551770Y740945D01*
X551717Y741033D01*
X551664Y741085D01*
X551647Y741103D01*
X551488Y741244D01*
X551313Y741349D01*
X551154Y741419D01*
X550996Y741472D01*
X550856Y741507D01*
X550750Y741525D01*
X548746D01*
X548588Y741542D01*
X548465Y741595D01*
X548395Y741683D01*
X548325Y741771D01*
X548289Y741841D01*
X548272Y741929D01*
Y741982D01*
Y741999D01*
X548289Y742158D01*
X548342Y742281D01*
X548430Y742351D01*
X548500Y742421D01*
X548588Y742456D01*
X548676Y742474D01*
X550645D01*
X550996Y742439D01*
D02*
G37*
G36*
X544370D02*
X544686Y742368D01*
X544985Y742245D01*
X545214Y742122D01*
X545424Y741999D01*
X545565Y741876D01*
X545653Y741806D01*
X545688Y741771D01*
X545917Y741507D01*
X546092Y741226D01*
X546198Y740945D01*
X546286Y740681D01*
X546338Y740453D01*
X546356Y740259D01*
X546374Y740189D01*
Y740154D01*
Y740119D01*
Y740101D01*
Y739152D01*
X546338Y738800D01*
X546268Y738466D01*
X546163Y738185D01*
X546022Y737939D01*
X545899Y737728D01*
X545793Y737588D01*
X545723Y737500D01*
X545688Y737465D01*
X545424Y737236D01*
X545143Y737060D01*
X544862Y736955D01*
X544598Y736867D01*
X544370Y736814D01*
X544176Y736797D01*
X544106Y736779D01*
X542630D01*
X542682Y736498D01*
X542753Y736234D01*
X542858Y735988D01*
X542981Y735742D01*
X543245Y735320D01*
X543403Y735127D01*
X543561Y734951D01*
X543702Y734793D01*
X543843Y734652D01*
X543983Y734547D01*
X544089Y734441D01*
X544194Y734371D01*
X544264Y734318D01*
X544317Y734283D01*
X544335Y734266D01*
X544616Y734107D01*
X544897Y733984D01*
X545020Y733949D01*
X545108Y733914D01*
X545178Y733879D01*
X545196D01*
X545266Y733844D01*
X545319Y733773D01*
X545389Y733633D01*
X545407Y733562D01*
X545424Y733510D01*
Y733475D01*
Y733457D01*
X545407Y733334D01*
X545354Y733229D01*
X545301Y733158D01*
X545284Y733141D01*
X545178Y733053D01*
X545073Y733018D01*
X545003Y733000D01*
X544967D01*
X544827Y733018D01*
X544651Y733070D01*
X544475Y733141D01*
X544300Y733229D01*
X544141Y733299D01*
X544018Y733369D01*
X543930Y733422D01*
X543895Y733439D01*
X543491Y733721D01*
X543157Y734002D01*
X542858Y734318D01*
X542594Y734635D01*
X542384Y734951D01*
X542190Y735267D01*
X542050Y735584D01*
X541927Y735883D01*
X541839Y736164D01*
X541768Y736410D01*
X541716Y736656D01*
X541681Y736849D01*
X541663Y737025D01*
X541645Y737148D01*
Y737218D01*
Y737254D01*
Y740119D01*
X541681Y740470D01*
X541751Y740804D01*
X541874Y741085D01*
X541997Y741331D01*
X542120Y741525D01*
X542243Y741665D01*
X542313Y741753D01*
X542349Y741788D01*
X542612Y742017D01*
X542893Y742193D01*
X543175Y742316D01*
X543438Y742386D01*
X543667Y742439D01*
X543860Y742456D01*
X543930Y742474D01*
X544018D01*
X544370Y742439D01*
D02*
G37*
G36*
X416996Y193939D02*
X417313Y193869D01*
X417611Y193745D01*
X417840Y193622D01*
X418051Y193499D01*
X418191Y193376D01*
X418279Y193306D01*
X418315Y193271D01*
X418543Y193007D01*
X418719Y192726D01*
X418824Y192445D01*
X418912Y192181D01*
X418965Y191953D01*
X418982Y191759D01*
X419000Y191689D01*
Y191654D01*
Y191619D01*
Y191601D01*
Y186855D01*
X418965Y186504D01*
X418895Y186187D01*
X418789Y185889D01*
X418648Y185660D01*
X418525Y185449D01*
X418420Y185309D01*
X418350Y185221D01*
X418315Y185186D01*
X418051Y184957D01*
X417770Y184781D01*
X417488Y184676D01*
X417225Y184588D01*
X416996Y184535D01*
X416803Y184518D01*
X416733Y184500D01*
X414746D01*
X414588Y184518D01*
X414465Y184570D01*
X414395Y184658D01*
X414325Y184746D01*
X414289Y184816D01*
X414272Y184904D01*
Y184957D01*
Y184975D01*
X414289Y185133D01*
X414342Y185256D01*
X414430Y185326D01*
X414500Y185396D01*
X414588Y185432D01*
X414676Y185449D01*
X416645D01*
X416856Y185467D01*
X417049Y185520D01*
X417225Y185572D01*
X417365Y185660D01*
X417488Y185730D01*
X417576Y185783D01*
X417629Y185836D01*
X417647Y185854D01*
X417787Y186012D01*
X417875Y186187D01*
X417945Y186363D01*
X417998Y186521D01*
X418033Y186644D01*
X418051Y186767D01*
Y186838D01*
Y186855D01*
Y191601D01*
X418033Y191812D01*
X417980Y192005D01*
X417928Y192181D01*
X417840Y192322D01*
X417770Y192445D01*
X417717Y192533D01*
X417664Y192585D01*
X417647Y192603D01*
X417488Y192744D01*
X417313Y192849D01*
X417154Y192919D01*
X416996Y192972D01*
X416856Y193007D01*
X416750Y193025D01*
X414746D01*
X414588Y193042D01*
X414465Y193095D01*
X414395Y193183D01*
X414325Y193271D01*
X414289Y193341D01*
X414272Y193429D01*
Y193482D01*
Y193499D01*
X414289Y193658D01*
X414342Y193781D01*
X414430Y193851D01*
X414500Y193921D01*
X414588Y193956D01*
X414676Y193974D01*
X416645D01*
X416996Y193939D01*
D02*
G37*
G36*
X407347Y193956D02*
X407470Y193904D01*
X407540Y193816D01*
X407610Y193745D01*
X407645Y193658D01*
X407663Y193570D01*
Y193517D01*
Y193499D01*
X407645Y193341D01*
X407593Y193218D01*
X407505Y193148D01*
X407417Y193078D01*
X407347Y193042D01*
X407259Y193025D01*
X405290D01*
X405079Y193007D01*
X404886Y192955D01*
X404710Y192884D01*
X404569Y192814D01*
X404446Y192744D01*
X404358Y192673D01*
X404306Y192621D01*
X404288Y192603D01*
X404148Y192445D01*
X404042Y192269D01*
X403972Y192093D01*
X403919Y191953D01*
X403884Y191812D01*
X403866Y191707D01*
Y191619D01*
Y191601D01*
X403884Y191390D01*
X403937Y191197D01*
X404007Y191021D01*
X404077Y190863D01*
X404148Y190740D01*
X404218Y190652D01*
X404271Y190599D01*
X404288Y190582D01*
X404446Y190441D01*
X404622Y190353D01*
X404780Y190283D01*
X404939Y190230D01*
X405079Y190195D01*
X405185Y190177D01*
X406239D01*
X406397Y190160D01*
X406521Y190107D01*
X406591Y190019D01*
X406661Y189949D01*
X406696Y189861D01*
X406714Y189773D01*
Y189720D01*
Y189703D01*
X406696Y189545D01*
X406643Y189422D01*
X406556Y189351D01*
X406468Y189281D01*
X406397Y189246D01*
X406310Y189228D01*
X405290D01*
X405079Y189211D01*
X404886Y189158D01*
X404710Y189088D01*
X404569Y189017D01*
X404446Y188947D01*
X404358Y188877D01*
X404306Y188824D01*
X404288Y188806D01*
X404148Y188648D01*
X404042Y188472D01*
X403972Y188297D01*
X403919Y188156D01*
X403884Y188015D01*
X403866Y187910D01*
Y187822D01*
Y187805D01*
Y186855D01*
X403884Y186644D01*
X403937Y186451D01*
X404007Y186275D01*
X404077Y186135D01*
X404148Y186012D01*
X404218Y185924D01*
X404271Y185871D01*
X404288Y185854D01*
X404446Y185713D01*
X404622Y185625D01*
X404780Y185555D01*
X404939Y185502D01*
X405079Y185467D01*
X405185Y185449D01*
X407188D01*
X407347Y185432D01*
X407470Y185379D01*
X407540Y185291D01*
X407610Y185221D01*
X407645Y185133D01*
X407663Y185045D01*
Y184992D01*
Y184975D01*
X407645Y184816D01*
X407593Y184693D01*
X407505Y184623D01*
X407417Y184553D01*
X407347Y184518D01*
X407259Y184500D01*
X405290D01*
X404939Y184535D01*
X404622Y184606D01*
X404341Y184711D01*
X404095Y184852D01*
X403901Y184975D01*
X403743Y185080D01*
X403656Y185150D01*
X403620Y185186D01*
X403392Y185449D01*
X403216Y185730D01*
X403093Y186012D01*
X403005Y186275D01*
X402952Y186504D01*
X402935Y186697D01*
X402917Y186767D01*
Y186820D01*
Y186838D01*
Y186855D01*
Y187805D01*
X402935Y188015D01*
X402952Y188226D01*
X403058Y188595D01*
X403216Y188929D01*
X403392Y189193D01*
X403568Y189422D01*
X403726Y189580D01*
X403831Y189668D01*
X403849Y189703D01*
X403866D01*
X403691Y189843D01*
X403550Y189984D01*
X403427Y190142D01*
X403321Y190300D01*
X403146Y190617D01*
X403040Y190916D01*
X402970Y191179D01*
X402952Y191302D01*
X402935Y191408D01*
X402917Y191478D01*
Y191548D01*
Y191583D01*
Y191601D01*
X402952Y191953D01*
X403023Y192269D01*
X403146Y192550D01*
X403269Y192796D01*
X403392Y192990D01*
X403515Y193148D01*
X403585Y193236D01*
X403620Y193271D01*
X403884Y193499D01*
X404165Y193675D01*
X404446Y193798D01*
X404710Y193886D01*
X404939Y193939D01*
X405132Y193956D01*
X405202Y193974D01*
X407188D01*
X407347Y193956D01*
D02*
G37*
G36*
X410141Y193939D02*
X410264Y193886D01*
X410352Y193816D01*
X410387Y193798D01*
Y193781D01*
X412251Y191935D01*
X412321Y191830D01*
X412356Y191724D01*
X412374Y191636D01*
Y191619D01*
Y191601D01*
X412356Y191443D01*
X412303Y191320D01*
X412215Y191250D01*
X412127Y191179D01*
X412057Y191144D01*
X411969Y191126D01*
X411899D01*
X411776Y191144D01*
X411670Y191197D01*
X411600Y191250D01*
X411583Y191267D01*
X410475Y192357D01*
Y184957D01*
X410458Y184799D01*
X410405Y184693D01*
X410317Y184606D01*
X410229Y184553D01*
X410159Y184518D01*
X410071Y184500D01*
X410001D01*
X409842Y184518D01*
X409719Y184570D01*
X409649Y184641D01*
X409579Y184729D01*
X409544Y184816D01*
X409526Y184887D01*
Y184939D01*
Y184957D01*
Y193499D01*
X409544Y193658D01*
X409596Y193781D01*
X409684Y193851D01*
X409755Y193921D01*
X409842Y193956D01*
X409930Y193974D01*
X410071D01*
X410141Y193939D01*
D02*
G37*
G36*
X568536Y758456D02*
X568765Y758404D01*
X568958Y758316D01*
X569151Y758193D01*
X569327Y758052D01*
X569485Y757894D01*
X569767Y757578D01*
X569977Y757243D01*
X570065Y757085D01*
X570118Y756945D01*
X570171Y756839D01*
X570206Y756734D01*
X570241Y756681D01*
Y756664D01*
X570382Y756189D01*
X570470Y755679D01*
X570540Y755187D01*
X570593Y754730D01*
X570610Y754519D01*
X570628Y754326D01*
Y754168D01*
X570645Y754009D01*
Y753886D01*
Y753799D01*
Y753746D01*
Y753728D01*
X570628Y753113D01*
X570575Y752551D01*
X570558Y752287D01*
X570522Y752058D01*
X570487Y751830D01*
X570434Y751619D01*
X570399Y751443D01*
X570364Y751267D01*
X570329Y751127D01*
X570311Y751004D01*
X570276Y750916D01*
X570259Y750846D01*
X570241Y750810D01*
Y750793D01*
X570118Y750477D01*
X569977Y750195D01*
X569837Y749967D01*
X569679Y749756D01*
X569520Y749580D01*
X569345Y749439D01*
X569187Y749316D01*
X569028Y749229D01*
X568888Y749158D01*
X568747Y749088D01*
X568624Y749053D01*
X568501Y749035D01*
X568413Y749018D01*
X568343Y749000D01*
X568290D01*
X568044Y749018D01*
X567816Y749070D01*
X567622Y749158D01*
X567429Y749281D01*
X567253Y749422D01*
X567077Y749563D01*
X566814Y749896D01*
X566603Y750230D01*
X566515Y750371D01*
X566462Y750512D01*
X566409Y750635D01*
X566374Y750723D01*
X566339Y750775D01*
Y750793D01*
X566199Y751285D01*
X566093Y751777D01*
X566023Y752269D01*
X565970Y752726D01*
X565952Y752937D01*
X565935Y753130D01*
Y753306D01*
X565917Y753447D01*
Y753570D01*
Y753658D01*
Y753711D01*
Y753728D01*
X565935Y754343D01*
X565988Y754906D01*
X566058Y755398D01*
X566093Y755627D01*
X566128Y755837D01*
X566163Y756013D01*
X566199Y756189D01*
X566234Y756329D01*
X566269Y756435D01*
X566304Y756540D01*
X566321Y756611D01*
X566339Y756646D01*
Y756664D01*
X566462Y756980D01*
X566603Y757261D01*
X566743Y757507D01*
X566902Y757718D01*
X567060Y757894D01*
X567218Y758035D01*
X567394Y758158D01*
X567552Y758245D01*
X567692Y758316D01*
X567833Y758386D01*
X567956Y758421D01*
X568079Y758439D01*
X568167Y758456D01*
X568237Y758474D01*
X568290D01*
X568536Y758456D01*
D02*
G37*
%LPC*%
G36*
X544106Y741507D02*
X544018D01*
X543807Y741490D01*
X543614Y741437D01*
X543438Y741367D01*
X543298Y741296D01*
X543175Y741226D01*
X543087Y741156D01*
X543034Y741103D01*
X543016Y741085D01*
X542876Y740927D01*
X542770Y740751D01*
X542700Y740593D01*
X542647Y740435D01*
X542612Y740294D01*
X542594Y740189D01*
Y740119D01*
Y740083D01*
Y737728D01*
X544018D01*
X544229Y737746D01*
X544422Y737798D01*
X544598Y737851D01*
X544739Y737939D01*
X544862Y738009D01*
X544950Y738062D01*
X545003Y738115D01*
X545020Y738132D01*
X545161Y738291D01*
X545249Y738466D01*
X545319Y738625D01*
X545372Y738783D01*
X545407Y738923D01*
X545424Y739029D01*
Y739117D01*
Y739134D01*
Y740083D01*
X545407Y740294D01*
X545354Y740488D01*
X545301Y740664D01*
X545214Y740804D01*
X545143Y740927D01*
X545090Y741015D01*
X545038Y741068D01*
X545020Y741085D01*
X544862Y741226D01*
X544686Y741331D01*
X544510Y741402D01*
X544352Y741454D01*
X544229Y741490D01*
X544106Y741507D01*
D02*
G37*
G36*
X568325Y757525D02*
X568290D01*
X568149Y757507D01*
X568009Y757454D01*
X567886Y757384D01*
X567780Y757279D01*
X567675Y757156D01*
X567570Y757033D01*
X567411Y756734D01*
X567288Y756453D01*
X567235Y756312D01*
X567200Y756189D01*
X567165Y756084D01*
X567148Y756013D01*
X567130Y755960D01*
Y755943D01*
X567042Y755556D01*
X566972Y755152D01*
X566937Y754783D01*
X566902Y754449D01*
X566884Y754150D01*
X566866Y754027D01*
Y753922D01*
Y753851D01*
Y753781D01*
Y753746D01*
Y753728D01*
X566884Y753289D01*
X566902Y752885D01*
X566954Y752515D01*
X566989Y752181D01*
X567042Y751900D01*
X567060Y751795D01*
X567095Y751689D01*
X567113Y751619D01*
Y751566D01*
X567130Y751531D01*
Y751514D01*
X567200Y751232D01*
X567288Y751004D01*
X567376Y750793D01*
X567464Y750617D01*
X567570Y750459D01*
X567657Y750336D01*
X567763Y750230D01*
X567851Y750143D01*
X567939Y750072D01*
X568026Y750037D01*
X568167Y749967D01*
X568255Y749949D01*
X568290D01*
X568431Y749967D01*
X568571Y750020D01*
X568694Y750090D01*
X568800Y750195D01*
X568905Y750318D01*
X569011Y750441D01*
X569169Y750740D01*
X569292Y751021D01*
X569345Y751144D01*
X569380Y751267D01*
X569415Y751373D01*
X569433Y751443D01*
X569450Y751496D01*
Y751514D01*
X569538Y751900D01*
X569591Y752304D01*
X569644Y752674D01*
X569661Y753008D01*
X569679Y753306D01*
X569696Y753429D01*
Y753535D01*
Y753605D01*
Y753675D01*
Y753711D01*
Y753728D01*
X569679Y754150D01*
X569661Y754554D01*
X569626Y754923D01*
X569573Y755257D01*
X569520Y755539D01*
X569503Y755662D01*
X569485Y755750D01*
X569468Y755837D01*
Y755890D01*
X569450Y755925D01*
Y755943D01*
X569380Y756224D01*
X569292Y756470D01*
X569204Y756681D01*
X569099Y756857D01*
X569011Y757015D01*
X568905Y757138D01*
X568817Y757243D01*
X568730Y757331D01*
X568642Y757384D01*
X568554Y757437D01*
X568413Y757507D01*
X568325Y757525D01*
D02*
G37*
%LPD*%
D45*
X511750Y731750D02*
Y744250D01*
X538250Y731750D02*
Y744250D01*
X511750Y731750D02*
X538250D01*
X511750Y744250D02*
X538250D01*
X563250Y746750D02*
Y759250D01*
X536750Y746750D02*
Y759250D01*
X563250D01*
X536750Y746750D02*
X563250D01*
X400000Y132500D02*
Y180500D01*
Y132500D02*
X420000D01*
Y180500D01*
X400000D02*
X420000D01*
X400000Y163500D02*
X420000D01*
X384000Y147750D02*
Y174250D01*
X396500Y147750D02*
Y174250D01*
X384000D02*
X396500D01*
X384000Y147750D02*
X396500D01*
X710900Y167650D02*
X723600D01*
Y193050D02*
X729950Y186700D01*
Y174000D02*
Y186700D01*
X723600Y167650D02*
X729950Y174000D01*
X704550D02*
X710900Y167650D01*
X704550Y174000D02*
Y186700D01*
X710900Y193050D01*
X704550Y237500D02*
X710900Y243850D01*
X704550Y224800D02*
Y237500D01*
Y224800D02*
X710900Y218450D01*
X723600D01*
X729950Y224800D01*
Y237500D01*
X723600Y243850D02*
X729950Y237500D01*
X704550Y262900D02*
X710900Y269250D01*
X704550Y250200D02*
Y262900D01*
Y250200D02*
X710900Y243850D01*
X723600D01*
X729950Y250200D01*
Y262900D01*
X723600Y269250D02*
X729950Y262900D01*
X704550Y288300D02*
X710900Y294650D01*
X704550Y275600D02*
Y288300D01*
Y275600D02*
X710900Y269250D01*
X723600D01*
X729950Y275600D01*
Y288300D01*
X723600Y294650D02*
X729950Y288300D01*
Y320050D02*
Y345450D01*
X723600Y320050D02*
X729950Y313700D01*
Y301000D02*
Y313700D01*
X723600Y294650D02*
X729950Y301000D01*
X710900Y294650D02*
X723600D01*
X704550Y301000D02*
X710900Y294650D01*
X704550Y301000D02*
Y313700D01*
X710900Y320050D01*
X704550Y345450D02*
X729950D01*
X704550Y320050D02*
X729950D01*
X704550D02*
Y345450D01*
X710900Y193050D02*
X723600D01*
X704550Y212100D02*
X710900Y218450D01*
X704550Y199400D02*
Y212100D01*
Y199400D02*
X710900Y193050D01*
X723600D02*
X729950Y199400D01*
Y212100D01*
X723600Y218450D02*
X729950Y212100D01*
X710900Y142250D02*
X723600D01*
X704550Y161300D02*
X710900Y167650D01*
X704550Y148600D02*
Y161300D01*
Y148600D02*
X710900Y142250D01*
X723600D02*
X729950Y148600D01*
Y161300D01*
X723600Y167650D02*
X729950Y161300D01*
X695750Y155000D02*
Y181500D01*
X683250Y155000D02*
Y181500D01*
Y155000D02*
X695750D01*
X683250Y181500D02*
X695750D01*
X537500Y769250D02*
Y777250D01*
Y769250D02*
X547500D01*
X537500Y791250D02*
Y799250D01*
X547500D01*
D46*
X557750Y802250D02*
G03*
X557750Y802250I-1250J0D01*
G01*
M02*
