G04 Layer_Color=16711935*
%FSLAX44Y44*%
%MOMM*%
G71*
G01*
G75*
%ADD48R,1.0532X1.0532*%
%ADD50R,1.0532X1.0532*%
%ADD61R,1.8032X1.4032*%
%ADD63C,2.2032*%
%ADD64R,2.2032X2.2032*%
%ADD65C,2.0032*%
%ADD66P,2.1683X8X292.5*%
%ADD67R,2.2032X2.2032*%
%ADD68C,0.2032*%
%ADD69C,0.6032*%
%ADD70C,0.8032*%
%ADD71C,3.0032*%
%ADD72R,1.3032X0.8032*%
D48*
X390250Y168000D02*
D03*
Y154000D02*
D03*
X689500Y161250D02*
D03*
Y175250D02*
D03*
D50*
X518000Y738000D02*
D03*
X532000D02*
D03*
X557000Y753000D02*
D03*
X543000D02*
D03*
D61*
X410000Y172500D02*
D03*
Y140500D02*
D03*
D63*
X629000Y526500D02*
D03*
Y481500D02*
D03*
X694000Y526500D02*
D03*
Y481500D02*
D03*
X629000Y601000D02*
D03*
Y556000D02*
D03*
X694000Y601000D02*
D03*
Y556000D02*
D03*
X717250Y180350D02*
D03*
Y231150D02*
D03*
Y256550D02*
D03*
Y307350D02*
D03*
Y281950D02*
D03*
Y205750D02*
D03*
Y154950D02*
D03*
X168000Y721600D02*
D03*
X66000Y721300D02*
D03*
X509300Y451000D02*
D03*
X534700D02*
D03*
X483900D02*
D03*
X629000Y750000D02*
D03*
Y705000D02*
D03*
X694000Y750000D02*
D03*
Y705000D02*
D03*
X629000Y675500D02*
D03*
Y630500D02*
D03*
X694000Y675500D02*
D03*
Y630500D02*
D03*
D64*
X717250Y332750D02*
D03*
X168000Y747000D02*
D03*
X66000Y746700D02*
D03*
D65*
X317500Y645300D02*
D03*
Y696100D02*
D03*
Y721500D02*
D03*
Y746900D02*
D03*
Y670700D02*
D03*
Y619900D02*
D03*
Y594500D02*
D03*
D66*
Y772300D02*
D03*
D67*
X560100Y451000D02*
D03*
D68*
X379000Y438000D02*
D03*
Y446000D02*
D03*
Y442000D02*
D03*
Y434000D02*
D03*
X397000Y446000D02*
D03*
Y438000D02*
D03*
Y434000D02*
D03*
Y442000D02*
D03*
X379000Y503000D02*
D03*
Y511000D02*
D03*
Y507000D02*
D03*
Y499000D02*
D03*
X397000Y511000D02*
D03*
Y503000D02*
D03*
Y499000D02*
D03*
Y507000D02*
D03*
X147000Y526000D02*
D03*
X139000D02*
D03*
X143000D02*
D03*
X151000D02*
D03*
X139000Y544000D02*
D03*
X147000D02*
D03*
X151000D02*
D03*
X143000D02*
D03*
X82000Y526000D02*
D03*
X74000D02*
D03*
X78000D02*
D03*
X86000D02*
D03*
X74000Y544000D02*
D03*
X82000D02*
D03*
X86000D02*
D03*
X78000D02*
D03*
X17000Y526000D02*
D03*
X9000D02*
D03*
X13000D02*
D03*
X21000D02*
D03*
X9000Y544000D02*
D03*
X17000D02*
D03*
X21000D02*
D03*
X13000D02*
D03*
X725000Y391000D02*
D03*
X717000D02*
D03*
X721000D02*
D03*
X717000Y409000D02*
D03*
X721000D02*
D03*
X660000Y391000D02*
D03*
X652000D02*
D03*
X656000D02*
D03*
X664000D02*
D03*
X652000Y409000D02*
D03*
X660000D02*
D03*
X664000D02*
D03*
X656000D02*
D03*
X595000Y391000D02*
D03*
X587000D02*
D03*
X591000D02*
D03*
X599000D02*
D03*
X587000Y409000D02*
D03*
X595000D02*
D03*
X599000D02*
D03*
X591000D02*
D03*
X530000Y391000D02*
D03*
X522000D02*
D03*
X526000D02*
D03*
X534000D02*
D03*
X522000Y409000D02*
D03*
X530000D02*
D03*
X534000D02*
D03*
X526000D02*
D03*
X465000Y391000D02*
D03*
X457000D02*
D03*
X461000D02*
D03*
X469000D02*
D03*
X457000Y409000D02*
D03*
X465000D02*
D03*
X469000D02*
D03*
X461000D02*
D03*
X330000Y391000D02*
D03*
X322000D02*
D03*
X326000D02*
D03*
X334000D02*
D03*
X322000Y409000D02*
D03*
X330000D02*
D03*
X334000D02*
D03*
X326000D02*
D03*
X265000Y391000D02*
D03*
X257000D02*
D03*
X261000D02*
D03*
X269000D02*
D03*
X257000Y409000D02*
D03*
X265000D02*
D03*
X269000D02*
D03*
X261000D02*
D03*
X200000Y391000D02*
D03*
X192000D02*
D03*
X196000D02*
D03*
X204000D02*
D03*
X192000Y409000D02*
D03*
X200000D02*
D03*
X204000D02*
D03*
X196000D02*
D03*
X174000Y342000D02*
D03*
Y334000D02*
D03*
Y338000D02*
D03*
Y346000D02*
D03*
X156000Y334000D02*
D03*
Y342000D02*
D03*
Y346000D02*
D03*
Y338000D02*
D03*
Y273000D02*
D03*
Y281000D02*
D03*
Y277000D02*
D03*
Y269000D02*
D03*
X174000Y281000D02*
D03*
Y273000D02*
D03*
Y269000D02*
D03*
Y277000D02*
D03*
X156000Y208000D02*
D03*
Y216000D02*
D03*
Y212000D02*
D03*
Y204000D02*
D03*
X174000Y216000D02*
D03*
Y208000D02*
D03*
Y204000D02*
D03*
Y212000D02*
D03*
X156000Y143000D02*
D03*
Y151000D02*
D03*
Y147000D02*
D03*
Y139000D02*
D03*
X174000Y151000D02*
D03*
Y143000D02*
D03*
Y139000D02*
D03*
Y147000D02*
D03*
X156000Y78000D02*
D03*
Y86000D02*
D03*
Y82000D02*
D03*
Y74000D02*
D03*
X174000Y86000D02*
D03*
Y78000D02*
D03*
Y74000D02*
D03*
Y82000D02*
D03*
X156000Y13000D02*
D03*
Y21000D02*
D03*
Y17000D02*
D03*
Y9000D02*
D03*
X174000Y21000D02*
D03*
Y13000D02*
D03*
Y9000D02*
D03*
Y17000D02*
D03*
X725000Y409000D02*
D03*
X729000D02*
D03*
Y391000D02*
D03*
X197000Y544000D02*
D03*
X205000D02*
D03*
X201000D02*
D03*
X193000D02*
D03*
X205000Y526000D02*
D03*
X197000D02*
D03*
X193000D02*
D03*
X201000D02*
D03*
X327000Y544000D02*
D03*
X335000D02*
D03*
X331000D02*
D03*
X323000D02*
D03*
X335000Y526000D02*
D03*
X327000D02*
D03*
X323000D02*
D03*
X331000D02*
D03*
X266000D02*
D03*
X258000D02*
D03*
X262000D02*
D03*
X270000D02*
D03*
X258000Y544000D02*
D03*
X266000D02*
D03*
X270000D02*
D03*
X262000D02*
D03*
D69*
X399250Y185500D02*
D03*
X394500Y193500D02*
D03*
X297000Y615000D02*
D03*
X292000D02*
D03*
X297000Y620000D02*
D03*
Y625000D02*
D03*
Y630000D02*
D03*
X292000Y620000D02*
D03*
Y625000D02*
D03*
Y630000D02*
D03*
X287000Y620000D02*
D03*
Y625000D02*
D03*
Y630000D02*
D03*
X224000Y713500D02*
D03*
Y718500D02*
D03*
Y723500D02*
D03*
X224000Y729000D02*
D03*
X230000D02*
D03*
X230000Y723500D02*
D03*
X236000Y718500D02*
D03*
Y723500D02*
D03*
Y713500D02*
D03*
X230000Y718500D02*
D03*
Y713500D02*
D03*
X236000Y729000D02*
D03*
X369000Y169500D02*
D03*
X362250Y177500D02*
D03*
X362250Y161500D02*
D03*
X362500Y241500D02*
D03*
X497750Y256500D02*
D03*
X362250Y153750D02*
D03*
X404000Y617000D02*
D03*
X409000D02*
D03*
X399000D02*
D03*
X404000Y622000D02*
D03*
X409000D02*
D03*
X399000D02*
D03*
X478000Y582000D02*
D03*
X455500Y564500D02*
D03*
Y553500D02*
D03*
X446500Y609500D02*
D03*
X457500D02*
D03*
X486500Y639500D02*
D03*
X500500Y677500D02*
D03*
X238500Y776500D02*
D03*
Y781250D02*
D03*
D70*
X597000Y760000D02*
D03*
X570000Y748000D02*
D03*
X672750Y160750D02*
D03*
X371500Y648500D02*
D03*
X420500Y595500D02*
D03*
X430750Y586500D02*
D03*
X507558Y607442D02*
D03*
X500500Y725500D02*
D03*
X590500Y629750D02*
D03*
Y559500D02*
D03*
X591750Y693750D02*
D03*
X540000Y721000D02*
D03*
X310500Y795250D02*
D03*
X332500Y806500D02*
D03*
X568000Y720000D02*
D03*
D71*
X715000Y367000D02*
D03*
X198000D02*
D03*
X715000Y23000D02*
D03*
X198000D02*
D03*
X699000Y450000D02*
D03*
Y785000D02*
D03*
X39000D02*
D03*
Y585000D02*
D03*
X439000Y450000D02*
D03*
D72*
X532500Y784250D02*
D03*
X556500Y774750D02*
D03*
Y793750D02*
D03*
M02*
