M48
;Layer_Color=9474304
;FILE_FORMAT=4:4
METRIC,LZ
;TYPE=PLATED
T1F00S00C0.2000
T2F00S00C0.3000
T3F00S00C1.1000
T4F00S00C1.2000
T5F00S00C2.0000
%
T01
X0036225Y0015375
Y001615
X00369Y001695
X0036225Y001775
X0039925Y001855
X003945Y001935
X003625Y002415
X0049775Y002565
X0067275Y0016075
X005905Y005595
Y0062975
X0059175Y0069375
X005005Y006775
X004865Y006395
X00507558Y00607442
X004575Y006095
X004465
X0043075Y005865
X004205Y005955
X00409Y00617
X00404
Y00622
X00409
X00399
Y00617
X003715Y006485
X004555Y005645
Y005535
X00478Y00582
X00297Y00615
X00292
Y0062
X00297
Y00625
X00292
X00287
Y0062
Y0063
X00292
X00297
X00236Y007135
Y007185
Y007235
Y00729
X0023
X0023Y007235
Y007185
Y007135
X00224
Y007185
Y007235
X00224Y00729
X002385Y007765
Y0078125
X003105Y0079525
X003325Y008065
X005005Y007255
X0054Y00721
X00568Y0072
X0057Y00748
X00597Y0076
T02
X00156Y00009
Y00013
Y00017
Y00021
X00174Y00021
Y00017
Y00013
Y00009
Y00074
Y00078
Y00082
Y00086
X00156Y00086
Y00082
Y00078
Y00074
Y00139
Y00143
Y00147
Y00151
X00174Y00151
Y00147
Y00143
Y00139
Y00204
Y00208
Y00212
Y00216
X00156Y00216
Y00212
Y00208
Y00204
Y00269
Y00273
Y00277
Y00281
X00174Y00281
Y00277
Y00273
Y00269
X00379Y00434
Y00438
Y00442
Y00446
X00397Y00446
Y00442
Y00438
Y00434
Y00499
Y00503
Y00507
Y00511
X00379Y00511
Y00507
Y00503
Y00499
X00457Y00409
X00461
X00465
X00469
X00469Y00391
X00465
X00461
X00457
X00522
X00526
X0053
X00534
X00534Y00409
X0053
X00526
X00522
X00587
X00591
X00595
X00599
X00599Y00391
X00595
X00591
X00587
X00652
X00656
X0066
X00664
X00664Y00409
X0066
X00656
X00652
X00717
X00721
X00725Y00409
X00729
Y00391
X00725Y00391
X00721
X00717
X00334
X0033
X00326
X00322
X00322Y00409
X00326
X0033
X00334
X00269
X00265
X00261
X00257
X00257Y00391
X00261
X00265
X00269
X00204
X002
X00196
X00192
X00192Y00409
X00196
X002
X00204
X00174Y00346
Y00342
Y00338
Y00334
X00156Y00334
Y00338
Y00342
Y00346
X00151Y00526
X00147
X00143
X00139
X00139Y00544
X00143
X00147
X00151
X00193
X00197
X00201
X00205
X00205Y00526
X00201
X00197
X00193
X00258
X00262
X00266
X0027
X0027Y00544
X00266
X00262
X00258
X00323
X00327
X00331
X00335
X00335Y00526
X00331
X00327
X00323
X00086
X00082
X00078
X00074
X00074Y00544
X00078
X00082
X00086
X00021
X00017
X00013
X00009
X00009Y00526
X00013
X00017
X00021
T03
X0071725Y0015495
Y0018035
Y0020575
Y0023115
Y0025655
Y0028195
Y0030735
Y0033275
X005601Y00451
X005347
X005093
X004839
X003175Y005945
Y006199
Y006453
Y006707
Y006961
Y007215
Y007469
Y007723
X00168Y00747
Y007216
X00066Y007213
Y007467
T04
X00629Y004815
Y005265
Y00556
Y00601
Y006305
Y006755
X00629Y00705
X00694
X00694Y006755
Y006305
Y00601
Y00556
Y005265
Y004815
X00694Y0075
X00629
T05
X00198Y00023
X00715
Y00367
X00699Y0045
X00439
X00198Y00367
X00039Y00585
Y00785
X00699
M30
